<svg xmlns="http://www.w3.org/2000/svg" viewBox="0 0 955.34 377.01"><defs><style>.cls-1{fill:#324e00;}</style></defs><g id="Layer_2" data-name="Layer 2"><g id="Layer_1-2" data-name="Layer 1"><path class="cls-1" d="M204.06,306.64c-1.21,9.73-2.46,18.43,5.55,18.06,8.83-.4,15.51-11.82,19-20.21s7.76-15,11.25-15.13,2,7.53-4.72,22.86c-6.54,14.49-15.21,27.44-29.79,28.1-11.5.53-16.53-6-18.69-12.72a40.59,40.59,0,0,1-1.65-13.51c.25-8,3.12-26.48,6.46-48-27.29,1.86-52.72,8.16-80.35,16-21.39,45.22-27.51,78-30.95,88.45-4.37,12.34-17.71,8.63-11-24.6,2.49-13.28,8.77-33.33,18.21-56.6q-10.67,3.27-20.67,7.12c-7.88,3-16.82,1.18-22.22-4.54-1.53-2-10.64-7.54,1.92-12,18.43-6.4,35.06-11.69,52-15.75,27-58.64,51.65-121.71,94.36-123.65,33.27-1.52,35.52,29.86,31.58,51.65-.35,1.45-4.46,28.6-9.14,56.79,16.7.68,26.69,3.11,28.79,8.57,1.9,5.67-10.82,6.46-31.56,7.41ZM194,248.86c5.49-42,18.13-89.92-1.38-89-27.52,1.25-46.07,54.77-69.58,98.65C145.9,254.14,167.53,250.28,194,248.86Z"/><path class="cls-1" d="M345.73,304.91c-6.52,14.91-15.3,25.39-29.88,26.06-14.17.64-19.81-14.74-18.71-26.72-8.73,16-21.89,34.33-41.11,32.53-23.15-2.24-27.78-22.6-22.14-43.23,7.12-24.4,24.4-42.47,44.73-43.4,15-.69,19.41,5.9,22.92,10.68,4.87-37.67,13.31-100.61,14-104.55.77-5.59,2.79-10.83,9.37-11.13,7.39-.34,18.43-6.39,15.06,5.49-4.91,18.54-20.7,128.11-25.52,148.7-1.21,9.73-2.25,18.42,5.76,18.05,8.83-.4,15.51-11.82,19-20.21s7.75-15,11.24-15.12S352.44,289.58,345.73,304.91Zm-46.09-27.12.75-6a7.7,7.7,0,0,1-6.76.51c-5-1.41-2.51-9.76-12.16-9.32-9.86.45-20.15,13.89-24.4,28.89s-2.58,29.14,6.66,28.71C274.41,320.1,290.12,308.27,299.64,277.79Z"/><path class="cls-1" d="M366.3,332c-15.41.7-22.45-9.47-23.92-23.61-2.43-17.17-.83-31.65,2.45-49.9,1.17-6,1-10.13,8.1-11.9,8.76-2,20.49-2,17.14,10.33-4,15-8.17,28.36-7.43,44.58.31,11.31,4.21,15.65,7.29,15.51,13.76-.62,26.45-42.77,25.26-68.85-.25-5.54,14.35-5.8,14.72,2.42C410.88,271.89,399.36,330.45,366.3,332Z"/><path class="cls-1" d="M492.92,297.58c-14.79,27.63-38.55,34.68-57.13,28.74-21.5-6.64-26.81-23.68-21.21-45.33,6.11-23.95,19.78-35.68,35.85-39.71,13.63-3.29,27.32,3.49,27.3,16.66-.38,14.22-16.65,31.83-32.26,32.54-5.72.88-9.28-.4-14.14-3.26-2.19,10.59,2.86,17.56,9,22,9.8,7.37,31.72,5.34,46.44-19.41,4.56-8.23,6.72-15.12,10.21-15.28C500.3,274.4,501.27,282.18,492.92,297.58Zm-53-29.07c-2.29,4-1.54,6.86,1.79,7.74,5.61,1.18,12.59-3.87,17-10.86,3.31-4.06,3.4-11.27-.73-11.49C451.3,255.85,445.9,259.39,439.94,268.51Z"/><path class="cls-1" d="M587.66,286.26c-3.59,6.95-9.65,36.45-28.34,37.3-15,.69-23-9-20.59-22.93,1.83-14.07,11.15-44.33,2.11-43.92-6.16.28-28.27,52.32-35.8,63.16-3.86,5.73-7.53,6.51-13.28,6.77-2.26.11-4-2.28-4-6.19,0-13.79,4.75-49.19,7.42-62.9,1.35-6.44.73-15.46,8.94-15.84,9-.41,16.9-4.06,14.66,10-2.08,13.06-7,27.07-10.31,40.19,5.94-14.26,21.65-48.73,36.7-52.71,27.87-7,21.9,24.52,18.21,43-5,26.16-7.31,29.14-.53,28.84,6.36-.29,17.44-23.64,20.53-28.1C586.48,278.29,591.06,279.52,587.66,286.26Z"/><path class="cls-1" d="M606.31,307.43c8.42-.39,16.71-12.7,21.1-20.31,4.78-7.83,9.8-15.05,13.29-15.21,3.29-.15.78,8-6.77,22.94C626.56,309.18,616.57,320.33,602,321c-9.65.44-14.45-5.52-16.58-11.8a33.53,33.53,0,0,1-2.22-12.45c-.1-2.25,2.21-23.76,2.94-30.38,1-9.92,2.57-24.81,4.93-40.76l-15.14,1.92c-3.89.39-6.56-4-7.75-7.46-.66-1-3.32-5.2,2.22-5.45l22.37-1.44c4.1-31.87,8.59-64.18,8.89-66.66.77-5.59,2.79-11,9.36-11.33,7.8-.36,18-6.18,15.27,5.47-1.93,7.29-7.27,39-12.4,70.94,3.07-.34,5.33-.44,8.41-.59,19.68-1.51,26-2.83,28.27,1.8,2.47,4.62-11,7.29-33.3,9.75l-5.32.66c-3.72,22.18-8.09,43.78-11.18,66.15C599.55,299.09,598.31,307.79,606.31,307.43Z"/><path class="cls-1" d="M726.88,275.59c-3.58,7.36-11.94,40.46-30.83,41.33-14,.63-20.1-7.53-19.81-19.06-5.76,13.43-13.26,20.56-25,21.1-15.2.69-19.78-9.59-19.4-23.81.33-15.24,3.66-37,5.45-47.37.77-5.8,1-10.54,8.1-11.9,8.55-2,19-2.1,15.7,10.4C653.82,275.42,645,306.49,655,306c14.79-.68,24.74-30.55,29.17-64.3a5.94,5.94,0,0,1,.52-2.08c.66-3.53,2-6.06,7.11-6.5,8.22-.37,19.31-5.4,16,7.09-5,17.52-15,64.07-8,63.75,6.36-.29,18.51-27.19,21.59-31.85C724.46,267.67,730.45,268.22,726.88,275.59Z"/><path class="cls-1" d="M784.14,240.88c1.1,10.65-9.23,27.79-18.27,28.2-3.28.15-5.25-2.44-4.78-5.55,1.79-10.57,4.64-20.17-.29-19.94-5.75.26-14,7.63-19.62,25.38-4.49,23.46-6.33,46.18-18.65,46.74-2.06.09-3.18-1.91-3.37-6.23-1.19-12.5,2-32,6.11-64.48.73-6.41.42-13.39,9-13.79,9.45-.43,17.5-8.82,15.31,6.3-.5,2.7-.79,5.18-1.31,7.47,5.22-7.44,12.16-17.63,22-18.08C777.52,226.57,783.1,231.66,784.14,240.88Z"/><path class="cls-1" d="M865.16,280.6c-14.79,27.63-38.54,34.68-57.13,28.74-21.49-6.64-26.8-23.68-21.2-45.33,6.11-23.95,19.77-35.68,35.85-39.71C836.31,221,850,227.79,850,241c-.38,14.22-16.66,31.83-32.26,32.54-5.72.88-9.28-.4-14.14-3.26-2.2,10.59,2.86,17.56,9,22,9.8,7.37,31.72,5.34,46.44-19.41,4.56-8.23,6.72-15.12,10.21-15.28C872.54,257.42,873.51,265.2,865.16,280.6Zm-53-29.07c-2.29,4-1.54,6.86,1.79,7.74,5.61,1.18,12.58-3.87,17-10.86,3.31-4.06,3.39-11.27-.73-11.49C823.55,238.87,818.15,242.41,812.19,251.53Z"/><path class="cls-1" d="M918.62,284.33c-2.34,11.84-11.85,24.42-35,25.47-14.58.67-27.29-7.19-30.1-19.2-2-8.76,1.18-14.87,6.61-17.59.81-.24,1.21-.46,1.42-.47a7.86,7.86,0,0,1,.29-2.49c5.12-14.22,15.47-48.86,30.33-47.89,8.47.65,7.87,5.61,10.59,15.57C905.47,248.72,921.78,267.93,918.62,284.33ZM887.45,246c-.69-1.61-1.2-3.65-3-3.56-3.9.17-8.07,12.71-14,27.18a7,7,0,0,1-1.54,2.33c4.14.64,5.07,2.86,5.13,4.3.14,3.07-3.18,6.93-3,10.22.29,6.36,3.79,10.94,12.76,9.09,6.33-1.12,11-6.68,13-13.15C900.46,269.52,889.29,250.28,887.45,246Z"/><path class="cls-1" d="M99.89,24.45l15,20.68a53.46,53.46,0,0,1,10.48,32c0,30.31-23.19,54.76-54.77,54.76a55.06,55.06,0,0,1-44.29-22.77L10.48,88.29A53.6,53.6,0,0,1,0,56.16C0,27.24,24.17,1,55.18,1A55,55,0,0,1,99.89,24.45ZM2.79,56.16c0,29.48,24.87,52.39,52.39,52.39,30.18,0,52.39-23.33,52.39-52.39,0-29.48-24.86-52.39-52.39-52.39C25.71,3.77,2.79,28.78,2.79,56.16Zm32.42,0c0-13.27,6.84-30.73,20-30.73,13.84,0,20,18.44,20,30.73,0,13.41-6.7,30.74-20,30.74C41.35,86.9,35.21,69.43,35.21,56.16Zm37.16,0a48.61,48.61,0,0,0-.7-7.4C58.82,48.76,53,64.82,53,77.12A37.42,37.42,0,0,0,53.37,84C66.08,85.78,72.37,69,72.37,56.16Z"/><path class="cls-1" d="M228.81,23.75,197.09,83.13h9.78l14.95,21.37-1.68,26.41H134.08L118,110.37l31.85-60.22h-5.59L128.5,29.62l1.67-27.25h84ZM209.53,5.17h-76.7l-1.4,21.65h34.09l-42.89,80.75h79.91l1.4-21.65H166.5Z"/><path class="cls-1" d="M292.86,23.75,336,130.91H301L292,118.75H270.37l-4.89,12.16H238.66l-16.07-20.54,43.59-108h11.59Zm-17-18.58h-7.69l-41.35,102.4h21.65l4.89-12.15H282.1l5,12.15h30ZM261,76.56l6.84-17.05,6.71,17.05Z"/><path class="cls-1" d="M328.06,110.37V2.37h38.28c13.27,0,25.28,7.13,32.41,17.89.7,1.11,1.39,2.51,14.11,19.7a37.33,37.33,0,0,1,7.54,22.63,38.45,38.45,0,0,1-13.27,28.92l15.93,39.4H390l-11.46-15.65v15.65H343.84ZM389,69.85c8.38-7.12,13.69-17.18,13.69-28.22,0-19.7-16.9-36.46-36.32-36.46H330.85v102.4h29.9V78.24h6.42l9.08,29.33H404.2Zm-28.36-13v-30h4.05c5.45,0,10.2,6.43,10.2,15s-4.47,15.09-9.64,15.09Z"/><path class="cls-1" d="M471.39,108.69l-.56,1v21.24H436.18l-15.79-20.54V2.37h35.49L465.1,16.2c2.79-4.6,5.45-9.22,8.1-13.83h32.55l14.67,21.38-28.36,49,33.39,58.12H488l-15.65-20.54ZM506,107.57,473.9,51.83l27-46.66h-26l-21.8,37.72V5.17H423.19v102.4h29.89V87.87l4.75-8.24L474,107.57Z"/><path class="cls-1" d="M564.83,110.37V2.37h38.28c13.28,0,25.29,7.13,32.41,17.89.7,1.11,1.4,2.51,14.12,19.7a37.33,37.33,0,0,1,7.54,22.63,38.45,38.45,0,0,1-13.27,28.92l15.92,39.4H626.72l-11.45-15.65v15.65H580.62Zm60.92-40.52c8.38-7.12,13.69-17.18,13.69-28.22,0-19.7-16.91-36.46-36.33-36.46H567.63v102.4h29.89V78.24H604L613,107.57H641Zm-28.36-13v-30h4.05c5.45,0,10.2,6.43,10.2,15S607.16,56.86,602,56.86Z"/><path class="cls-1" d="M666.23,92.76A39.19,39.19,0,0,1,659,72.93V2.37h35.48L709.4,23.75v55.6a9.34,9.34,0,0,0,2.24-5.58V2.37h31.43L758,23.75V93.88c-1.12,19.56-20,37.44-40.94,37.44a43.25,43.25,0,0,1-34.92-17.74C668.75,96.12,667.35,94.72,666.23,92.76Zm48.2-87.59v68.6a11.39,11.39,0,0,1-22.77,0V5.17h-29.9V72.79c1.54,20.39,20.4,35.2,40,35.2s37.44-16.76,38.56-35.2V5.17Z"/><path class="cls-1" d="M848.08,77.68a31.58,31.58,0,0,1,6.7,20c0,19.56-16.2,34.65-36.88,34.65-17.6,0-29.62-10.34-41.49-24.87L760.48,86.34l25.57-17.6-7.83-10.9c-6-6-10.48-13.55-10.48-23.75C767.74,14.67,784.37,0,804.49,0c10.62,0,22.91,4.89,32.41,13.83l14.81,21L832.29,55.46a42,42,0,0,1,3.77,5.87ZM798.62,30.32a5.61,5.61,0,0,1,5.73-5.87c4.89,0,9.22,5,11.73,7.54L833,14a42.4,42.4,0,0,0-28.5-11.18c-18.44,0-34,13.41-34,31.3,0,14.11,10.62,23.75,20.68,29.76,4,2.51,18,9.5,18,17,0,4-3.63,6.43-7.55,6.43-8.52,0-13.13-10.48-16.06-14.95L764.53,87c10.34,13,21.52,21.93,38,21.93C822,109,837,94.86,837,76.7c0-15.37-11.46-26.41-23.75-33.11C809.52,41.35,798.62,36.46,798.62,30.32Zm-7.54,44.84,5,7.13a7.77,7.77,0,0,0,5.3,2.23A53.92,53.92,0,0,1,791.08,75.16Z"/><path class="cls-1" d="M940.39,2.37l15,21.38V130.91H920.69l-13.55-18.45v18.45H872.5l-15.79-20.54V2.37h35.48l12.72,18.45V2.37ZM907.7,5.17V53.51H889.4V5.17H859.5v102.4h29.9V75.16h18.3v32.41h29.9V5.17Z"/></g></g></svg>