<svg xmlns="http://www.w3.org/2000/svg" viewBox="0 0 727.29 112.01"><defs><style>.cls-1{fill:#324e00;}</style></defs><g id="Layer_2" data-name="Layer 2"><g id="Layer_1-2" data-name="Layer 1"><g id="duUVNc"><path class="cls-1" d="M6.09,27.36,5,29.57,6.7,31l0-.5c1.3,0,2.61,0,3.9-.13a27.74,27.74,0,0,0,3.09-.63c-.66-.69-1.31-1.38-2-2.06l-.64-.64a3.47,3.47,0,0,1,4.38,1.5C17.44,32.68,19,37,20.76,41.2a2.72,2.72,0,0,0,.37.81c3,3.27,6.08,6.23,11.15,5.7a82.92,82.92,0,0,1,9.46,0A2.08,2.08,0,0,1,43,48c1.38,1.4,3,.79,4.59.75,6.09-.15,12.19-.21,18.28-.22,17.73,0,35.46,0,53.19,0q18.77,0,37.55,0c13.56,0,27.12-.12,40.68-.11,8.13,0,16.26.18,24.39.26,7.52.08,15,.11,22.56.19,7.91.08,15.82.25,23.73.28,8.37,0,16.74-.12,25.11-.08,12.29.07,24.59.27,36.88.34,18,.1,36.07.11,54.1.2,21.65.11,43.3.27,64.95.36,7.45,0,14.91-.13,22.36-.13,2.41,0,4.81.26,7.28.4l.7,2.16a24.6,24.6,0,0,1,4-.27,12.08,12.08,0,0,0,8.07-2.22,3.09,3.09,0,0,1,1.7-.35c2.33,0,4.68,0,7,0,.67,0,1.32-.53,2-.61a10,10,0,0,1,2.5.08c.32,0,.64.6.89.54,1.69-.36,3.55-.5,5-1.34,1.26-.75,2-2.35,3-3.51a7.45,7.45,0,0,1,1.85-1.56C522,39.38,528.68,36,535,31.93c21.27-13.54,44.92-20.71,69.18-26.3A198.68,198.68,0,0,1,645.85.08c14.4-.22,28.81.07,43.21.38A88.75,88.75,0,0,1,703.42,2c11.27,2.1,18.2,9.25,20.79,20.11a106.35,106.35,0,0,1,2.6,20.59c.44,12.05,1.16,24.15-1,36.14-1.06,5.85-1.83,11.83-4.9,17.08-5.25,9-13.23,13.88-23.53,14.82C650.68,115,605.47,108.93,562,91c-9.73-4-19.66-7.57-29.45-11.46-3.49-1.39-6.81-3.19-10.25-4.71-10.74-4.76-21.46-9.58-32.29-14.13-2.85-1.19-6.07-1.52-9.13-2.17-.54-.11-1.55,0-1.68.28-1,2.46-3.11,1.65-4.88,1.65q-20.6,0-41.21-.13-49.92-.3-99.84-.65c-21.95-.13-43.91-.17-65.87-.3q-45.17-.25-90.33-.58-38.14-.24-76.29-.41-24.23-.1-48.45-.17c-7,0-13.95-.17-20.92-.19-5.55,0-9.13,3-11.36,7.82-.95,2-1.66,4.21-2.57,6.28-1.62,3.69-5,5-8.76,3.45-1.25-.51-2.78-.52-3.86-1.24-2.24-1.51-3.22-3.92-3.58-6.55-1.45-10.66-1.87-21.36,0-32C1.65,33.4,2.92,31.15,4,28.91c.33-.73,1.17-1.23,1.77-1.84Zm585.83,49,2.38.52,26.89,9.32c10.16,3.52,20.3,7.09,30.49,10.49,2.72.91,5.62,1.31,8.42,2a9.69,9.69,0,0,1,2.92.93c1.1.68,1.8.79,2.67-.31A13.4,13.4,0,0,1,668,97.47c-9.47-3.25-18.73-6.41-28-9.6-8.68-3-17.34-6.06-26-9-14.68-5-29.36-10.13-44.11-14.95-2.4-.78-5.21-.3-8.44-.43,1.29,1.55,1.89,3,2.87,3.34,8,2.72,16,5.22,24,7.85A28.6,28.6,0,0,1,591.92,76.38Zm101-71.33,0-.75c-5.58,0-11-1.26-16.73.57-36,11.56-72,22.87-108.07,34.28-4.56,1.44-9.09,3-13.63,4.46,0,.28,0,.57.08.86,4.73-.11,9.46-.2,14.19-.32a4.24,4.24,0,0,0,1.09-.27Q596.56,35.42,623.29,27,654,17.3,684.83,7.7C687.54,6.85,690.23,5.93,692.93,5.05ZM588.23,63.32v.56c11.9,4.12,23.79,8.27,35.7,12.35q39.62,13.56,79.23,27.08a6,6,0,0,0,7.42-2.62,3.06,3.06,0,0,0-.56-.35c-33.7-11.68-67.44-23.24-101.08-35.1C602,62.8,595.12,64,588.23,63.32ZM711.17,10.65l.29-.7c-1.9-1-3.78-2-5.71-2.85-.34-.16-.89.05-1.31.18-3.81,1.18-7.62,2.39-11.43,3.58q-17.7,5.58-35.4,11.15L599.39,40.45c-3.77,1.19-7.55,2.32-11.32,3.48a5.74,5.74,0,0,0,3,.66c5.47-.12,10.92.64,16.36-1.11,25.86-8.3,51.77-16.4,77.66-24.58Zm-61.9,34.21.07,1c4-.14,8-.15,11.95-.45a72.11,72.11,0,0,0,8.86-1.36,2.32,2.32,0,0,0,1.44-1.72c0-2.31.95-2.89,3.18-2.87,4.71,0,9.41.54,14.09-1.12,7.38-2.63,14.92-4.8,22.39-7.17,3.21-1,6.4-2,9.71-3.1l-1-5.31Zm46-2.6c-1.6.39-1.71.77-1.06,3.41a8,8,0,0,1,1.08-.25c2.35-.14,4.72-.17,7.05-.45.54-.06,1.13-.88,1.43-1.49a5.25,5.25,0,0,0,.17-1.84l.53-.18c.52.78,1,1.56,1.65,2.47,4-1.29,8.17-2.6,12.31-4s4-1.38,3.15-5.6c0-.06-.09-.11-.3-.36l-18.68,5.71m-1.81.5-3.94,1.31,1.35.08M705.73,67c-1.09,2.64,0,4.48,2,5.44,2.79,1.31,5.79,2.15,8.7,3.2-1.29-1.66-1.29-1.66.12-4.63ZM663.62,64.6c2,2.36,5.32,3.14,6.5,1.81Zm11-22.59,4.76-.57c0-.33,0-.66-.07-1a31.49,31.49,0,0,1-4.43.24c-2.13-.15-2.1,1-1.77,2.78M688.81,45l.38.42,3.39.31.17-2.64-.64-.41Zm11.83,25c-.32-1.54-.57-2.73-.93-4.43C698.11,68,698.41,69.34,700.64,70Z"/><path class="cls-1" d="M478.2,47,48.79,46.2l-.4-.53c.46-.33.93-1,1.39-1,11.23,0,22.47.15,33.71.17,18.94,0,37.87,0,56.81,0,11.24,0,22.47.07,33.71.08,9.8,0,19.61,0,29.42,0q33.94,0,67.91,0,34.41,0,68.82.13c14,0,28,0,42.08,0s28.19.23,42.29.27,28.2,0,42.3,0c3.24,0,6.48,0,9.72.08a7.75,7.75,0,0,1,1.89.53Z"/><path class="cls-1" d="M496.21,43.79,518.9,34.6C511.66,38.14,505.48,44.37,496.21,43.79Z"/><path class="cls-1" d="M591.92,76.38c-.66-1.46.44-1.38,1.18-1.13a39.6,39.6,0,0,1,6.11,2.65l-4.91-1Z"/></g></g></g></svg>