<svg xmlns="http://www.w3.org/2000/svg" viewBox="0 0 920.82 598.07"><defs><style>.cls-1{fill:#324e00;}.cls-2{fill:#fff;}</style></defs><g id="Layer_2" data-name="Layer 2"><g id="Layer_1-2" data-name="Layer 1"><path class="cls-1" d="M745.43,449.26c-14.1-10.63-28.2-21.3-42.36-31.88C676.59,397.6,650,378,623.6,358.07c-6.91-5.23-13.12-6.15-21.58-2.89-5.12,2-13.17,1.1-18-1.76-16.95-10.1-33.27-21.33-49.42-32.69-9.84-6.91-19.22-7.73-29.45-1.34-4.33,2.71-9.56,4.17-13.5,7.3-14.47,11.53-27.43,8.26-41.58-1.44-18.21-12.48-37.59-23.26-56.27-35.11-5.09-3.24-8.68-3.19-13.46.76Q340.59,323.81,300.21,356c-3.39,2.7-8.67,3-13.07,4.43-5.32,1.69-11.74,2-15.76,5.28-34.16,27.74-68,55.91-104,85.71l-10,8.33c4.56.5,7.59,1.3,10,1.36a8.1,8.1,0,0,0,2.23-.19c6.26-1.52,12.84-3.06,18.31-6.28,21.75-12.8,45.59-10.12,69-9.5,5.9.16,11.68,5.62,18.74,9.28-11.38-14.1-.42-25.86,3.39-38.43,4-13.16,3.78-28.11,16.34-38.36l47.44,36.49a58.5,58.5,0,0,0,2.68-6.35c6.12-21.12,19.15-36.65,38-47.48,17.39-10,19.29-16.4,9.14-33.49-4.95-8.34-5.25-16.59-.75-26.16a36.1,36.1,0,0,1,4.3,2.11c8.92,6.16,17.79,12.39,27,18.82-2.48,2.64-4.46,4.76-7.73,8.26L439.72,343c4.92-12.81-8.12-8.85-11.17-13.94,3.15-5.61,7.72-7,12.86-2.89,7.91,6.37,16.5,12.46,22.53,20.38,3.88,5.08,6.16,13.78,4.81,19.9-2.17,9.69-4.23,18.37,2.54,27.41-14-7-29-11.69-33.41-29.95-5.34,16.31-14.77,28-31,34.19l20.52,3.19c0,.53.06,1.08.09,1.63l-22,8.11.33,1.72,22.92,3.91c-12,11.11-27.74,11-37.45,20.57.34.89.69,1.79,1.05,2.69,10.54.6,21.09,1.17,32.85,1.84-1.52,3.45-1.86,5.93-2.84,6.22-13.84,4-27.68,5-40.38-3.32-2.39-1.56-4.32-5.34-4.62-8.29-1.07-10.4-1.33-20.89-1.91-31.34l-4.07-.58c-4,7.58-8,15.17-12.44,23.47,6.14,5.19,7.09,10.14-.21,16C344,455.74,344.26,456.06,361,466.57L326.77,465l-1-1.88,13.89-7.71c-14.36-3.42-11.78-16.23-16.62-27.52L303.63,461l9.12,3.78c-8.41,1.65-15.5,3-24.71,4.81L311,478.85l-27.35,7,20,8.11c-.15,1.2-.3,2.39-.44,3.61-6.48.69-12.93,1.7-19.43,2-18.7.91-37.49.86-56.11,2.64-7.68.73-15,5.16-22.18,8.94,17.58-2.75,35.43-5.67,51.17,3.79,15.19,9.1,31.34,14.17,48.15,18.5,6.91,1.77,10,4,11,8.67a25.58,25.58,0,0,1,.41,6.44l38.22,6.69,44.64,7.83-38.71-9.75c27.7-8.55,55.46-11.79,79.25-26,.07-1.45.13-2.91.2-4.37l-28.22-8.21c-.28-.62-.59-1.24-.89-1.85l40-10c.29,1,.56,2,.83,3L431.8,513c-.07.57-.16,1.14-.25,1.71l48.11,8.39c.11,1.56.24,3.1.36,4.65-7.15,3.4-14.07,7.37-21.46,10.11-25.95,9.63-29.95,16.77-14.64,33.05l22.76,4,16.67,2.93a75.84,75.84,0,0,0,8.27-2.8c12.27-5.26,24.71-10.18,36.86-15.68,4.53-2,9-4.19,13.46-6.45,32.49-16.64,67.18-23.9,103.06-28,12.38-1.4,24.33-6.55,36.48-10-.18-1.33-.37-2.65-.54-4l-35.66-9.24c2.82-3.3,5.19-6.07,6.66-7.81-10.92-14.67-16.19-30.45-19-50.2l-19.32,35.53,7.17,4.76c-.4.87-.5,1.67-.91,1.89-9.29,5-17.24,14.89-30.32,8l8.79-12.75c-4.52-1.86-8.43-3.45-13.54-5.54,4-3.52,7.32-6.48,10.68-9.45-23.17-21.55-21.59-41.91,4.88-58.88,10.51-6.73,16.87-14.54,14.13-27.76-.81-3.88-.13-8.06-.13-14.31,4.78,2,8.25,2.77,11,4.67q59.77,42.06,119.4,84.36c.21.16.43.3.66.45,2,1.27,4.35,2.09,6.5,3.17l1.48-2.54C750.76,453.27,748.09,451.27,745.43,449.26ZM252,438.5H239.32c-.43-5.72-.82-11-1.21-16.28-.45.18-.88.39-1.31.59q-.47,4-.94,8c-.84,0-1.66.16-2-.14-9.47-10.19-8.14-18.84,4.14-26.4,4.22-2.6,8.63-4.88,13.91-7.85Zm20.92-18.75c-.71.1-1.43.2-2.14.32q-.78-7.36-1.57-14.69l-1.21-.05q-1.5,13.79-3,27.58l-3.63.56c-5.7-9.49-4.48-21-5.2-31.56-.75-11.1,6.9-19.71,16.76-21.86Zm55.21-28.4c-10.19-2.67-10.29-29.52,0-44.08Zm10.71,11.23c-8.87-20.89-8.92-41.68-7.24-62.61.11-1.54,3.5-2.84,7.1-5.54v50.18l2.07,0V329.71C355.54,337.2,353.59,380.09,338.8,402.58Zm26-42.2c-.68,3.86-4.35,7.21-8.53,9.42a278.5,278.5,0,0,1-2.14-48c1.63,0,3.26,0,4.91.05V358.2l2.16,0c1-14.14,2-28.29,3.21-42.42,0-.16,2.47-.13,6.67-.31C369,331.33,367.38,345.93,364.81,360.38Zm18.4-13.68c-2.33-2.21-4.63-4.42-6.73-6.41-.26,4.38-.56,9.26-.85,14.13l-.92-.12V307.6l2.44-.3q4.17,18.82,8.35,37.66Zm43.78,107c-7.43,11.82-27.5,14.94-49.38,10.25-.15-.93-.29-1.84-.43-2.76C393.06,458.74,409,456.36,427,453.65Zm-2.61,37.52c-8.14,2.28-16.64,3.32-25,4.82l-1.86-3.76,7.75-4.18c-.22-.72-.45-1.44-.68-2.15l-28.1-3.75c0-.88,0-1.77-.06-2.65,4.33-.31,8.66-.84,13-.85,10.91,0,21.82-.06,32.69.53,2.5.14,7,3,6.86,4.21C428.67,486.21,426.6,490.54,424.38,491.17Zm77-25.43c-.39,1.2-.76,2.41-1.15,3.61L453,462c0-.71,0-1.42,0-2.12l24.72-6.66-.26-1.6-30.59-6c4.3-2.67,6.36-5.07,8-4.82,19.64,2.88,42.1-4.74,58.45,15.87l-28.58,2.84C490.15,461.51,495.76,463.64,501.39,465.74Zm-33.67,36.15c-6.35-.86-12.25-6.39-17.84-10.52-1.27-.95-1.45-6.11-.26-7.15,4.69-4,9.72-8.69,15.4-10.24,7.42-2,15.6-1.86,23.4-1.44,3.24.17,6.32,3.45,9.48,5.3-.42,1-.85,2.06-1.27,3.1L469,485.5c12.83,7.56,28.82,1.57,38.6,16.87C492.64,502.37,480,503.54,467.72,501.89Zm86,.6L520.21,500c6.23-6.68,39.51-13,49.11-8.47L551,496.76Zm35.93-109.25c-4.85,13.81-11.24,27.07-16.93,40.59-.27.63-.33,1.61-.79,1.84-13.16,6.59-7.87,14.1-.2,22-4.29,2-8,3.72-12.14,5.64,1.25,1.95,2.19,3,2.64,4.17,1.24,3.35,2.28,6.77,3.41,10.15-5.47,1.58-11.42,5.31-16.28,4.21-5.76-1.31-10.58-6.78-16.79-11.14,5.93-3.7,10.7-6.66,16.76-10.45-7.75-3.13-13.76-5.54-21.09-8.52L546,438.86l-22.5-3.21c1.1-5.65,2.09-10.79,3.07-15.93l3.64.26-11.3-25.63-10.29,18.27c-3.94-1.4-7.33-2.58-11.49-4.06,4.89,8.32,9.34,15.85,14.36,24.38-16.18,4.16-31.47,5.47-45.92-4.58a10.28,10.28,0,0,0-5.2-2.16c-12-.19-12-.1-15.35-12.48l25.67,2.46c-3.32-11.18,3.19-16.74,10.15-22.78,8.89-7.74,16.84-16.56,27.12-26.83H494.9c-.88-3.81-1.75-7.65-2.63-11.49l-1.44.09v23.95c-5.14-2.28-5.14-2.28-6.27-21.95-2.71-1.12-6.95-2.22-6.88-2.93.36-3.81.59-9.18,3.06-11,8.5-6.13,17.89-11,28.4-17.2,0,8,.81,15.95-.19,23.71-1.47,11.56,2.59,19,14.53,23.05-10.13-16.31.41-31.2.83-49.8,19.57,12.61,37.22,23.28,54.06,35.07C595.59,370.15,596.58,373.5,589.64,393.24Z"/><path class="cls-1" d="M671.53,52.62c-.71-1.23-1.42-2.47-2.14-3.7q-11.92-1.29-23.87-2.44c-.2,2.05-.39,4.09-.59,6.14h2.13c.12-1.31.25-2.61.38-3.93q9.81,1,19.61,2c-.07.64-.13,1.27-.2,1.91Zm81.36,7.16Q749.16,84.4,745.43,109v13.74q4.65-30.3,9.27-60.64c3.56.53,7.11,1.1,10.66,1.65v-2Q759.14,60.72,752.89,59.78ZM745.43,185.9V504.78l-216.95,54.6-61.8,15.55-10.26,2.59-8.25-2.08L399.1,563.09l-38.71-9.75-44.56-11.21L167.42,504.78V186.34q-10,1.17-19.93,2.43V520.31l308.93,77.76,308.94-77.76v-332Q755.4,187,745.43,185.9Zm19.8-47.15q-9.88-1.63-19.8-3.15v9q2.48,4.42,4.89,8.85c5,.79,10,1.6,15,2.44V138C765.32,138.21,765.28,138.49,765.23,138.75Zm-52.6-86.39a31.55,31.55,0,0,0-9.92.26h11.51C713.68,52.52,713.16,52.43,712.63,52.36Zm-75.73.26c-1.47-2.46-2.95-4.89-4.44-7.35Q619,44.06,605.46,43c-.25,3.19-.49,6.39-.72,9.58h2.13q.28-3.7.56-7.41,11.37.87,22.72,1.88c-.16,1.85-.33,3.68-.49,5.53ZM562,40.22q-14.58-.78-29.16-1.36l-.54,13.76h2.13q.21-5.82.46-11.65,13.5.54,27,1.27a27.85,27.85,0,0,1,20.07,10.38h2.54A29.72,29.72,0,0,0,562,40.22ZM487.3,52.62c-3.5-5-7.05-10.1-10.6-15.14-4.94,0-9.87-.09-14.81-.1-1.07,0-2.15,0-3.22,0-2.26,0-4.53,0-6.8,0-2,3.34-4,6.69-6.13,10q-3.53-5-7.07-10-13.53.11-27.06.41c.12,4.93.22,9.85.33,14.77h2.11q-.15-6.4-.28-12.8,11.4-.24,22.78-.35c0,4.39.08,8.76.13,13.15h8.5c2.64-4.42,5.31-8.82,8-13.24,1.83,0,3.68,0,5.51,0,1.08,0,2.15,0,3.22,0,3.69,0,7.37,0,11.05.06q-4.06,6.57-8.09,13.16ZM390,51.38a29.85,29.85,0,0,0-25.14-12q-14.58.68-29.16,1.56c.23,3.88.48,7.75.71,11.63h2.12c-.19-3.25-.39-6.5-.58-9.74q13.5-.81,27-1.43A28,28,0,0,1,388.4,52.62h2.5C390.37,51.93,390.18,51.64,390,51.38Zm-98.1-7.26-8.82.75c-.83,2.58-1.68,5.17-2.51,7.75h2.27c.62-2,1.27-3.91,1.9-5.88,1.95-.15,3.9-.33,5.85-.49L294,52.62h5.41Q295.65,48.36,291.91,44.12Zm-41.55,8.5q-1.87-2.13-3.78-4.23-18.33,1.95-36.64,4.23h16.88q8.25-1,16.49-1.85c-.26.62-.54,1.23-.8,1.85Zm-88.93,22.8a40.63,40.63,0,0,0-13.94-9v2.18A38.17,38.17,0,0,1,167.42,87V81.28C165.43,79.33,163.44,77.37,161.43,75.42ZM147.49,138v18a41.13,41.13,0,0,0,4.42-.46,42.34,42.34,0,0,0,15.51-5.71V119A38.08,38.08,0,0,1,147.49,138Z"/><path class="cls-2" d="M458.41,169.34c-1.14,0-2.28,0-3.42,0-5.27,0-10.53,0-15.8.07h-3l-2.34,0a2514,2514,0,0,0-266.44,16.87q-10,1.17-19.93,2.43-34,4.24-67.77,9.42v.28q33.77-5.13,67.77-9.36,10-1.23,19.93-2.38a2552.89,2552.89,0,0,1,291.25-17.1h3.22v-.29ZM436.68,52.62c0,4.7.08,9.42.13,14.13q4.15-7.08,8.37-14.13c2.64-4.42,5.31-8.82,8-13.24,1.83,0,3.68,0,5.51,0,1.08,0,2.15,0,3.22,0v-2c-1.07,0-2.15,0-3.22,0-2.26,0-4.53,0-6.8,0-2,3.34-4,6.69-6.13,10q-3.53-5-7.07-10-13.53.11-27.06.41c.12,4.93.22,9.85.33,14.77q.69,31.65,1.39,63.31,6,7.29,11.8,14.63,12.6-.21,25.19-.24c0-5.12,0-10.23-.05-15.36l.41-.7c.24.4.49.8.72,1.21,2.44,3.13,4.86,6.29,7.27,9.44,1.07,1.41,2.15,2.81,3.22,4.23V113.46h-9.27q-5.94-10.11-12-20.16l-3.46,6q.06,7.11.12,14.26-11,.08-21.92.33-.65-30.62-1.28-61.25-.15-6.4-.28-12.8,11.4-.24,22.78-.35C436.59,43.86,436.63,48.23,436.68,52.62Zm22,10.17q-3.12,5.16-6.2,10.34,3.11,5.2,6.2,10.43c1.07,1.82,2.15,3.64,3.22,5.47V57.47C460.81,59.24,459.74,61,458.67,62.79ZM460.27,11h0Zm-87.7,56.61c-.26-6.16-4-10.65-8.15-10.46-1,.06-2.05.1-3.06.14.34,7.23.69,14.48,1,21.71l3.43-.17C369.69,78.65,372.83,73.78,372.57,67.61Zm0,0c-.26-6.16-4-10.65-8.15-10.46-1,.06-2.05.1-3.06.14.34,7.23.69,14.48,1,21.71l3.43-.17C369.69,78.65,372.83,73.78,372.57,67.61Zm0,0c-.26-6.16-4-10.65-8.15-10.46-1,.06-2.05.1-3.06.14.34,7.23.69,14.48,1,21.71l3.43-.17C369.69,78.65,372.83,73.78,372.57,67.61Zm0,0c-.26-6.16-4-10.65-8.15-10.46-1,.06-2.05.1-3.06.14.34,7.23.69,14.48,1,21.71l3.43-.17C369.69,78.65,372.83,73.78,372.57,67.61Zm0,0c-.26-6.16-4-10.65-8.15-10.46-1,.06-2.05.1-3.06.14.34,7.23.69,14.48,1,21.71l3.43-.17C369.69,78.65,372.83,73.78,372.57,67.61Zm0,0c-.26-6.16-4-10.65-8.15-10.46-1,.06-2.05.1-3.06.14.34,7.23.69,14.48,1,21.71l3.43-.17C369.69,78.65,372.83,73.78,372.57,67.61Zm37.76,63.24q-6.13-14.09-12.43-28.17a27.78,27.78,0,0,0,9.26-21.17,26.2,26.2,0,0,0-6.09-16.21C394.41,57.14,392,54,390.9,52.62c-.53-.69-.72-1-.89-1.24a29.85,29.85,0,0,0-25.14-12q-14.58.68-29.16,1.56c.23,3.88.48,7.75.71,11.63q2,33.17,4,66.31,6.21,7.08,12.36,14.17,12.57-.69,25.15-1.19c-.16-3.77-.3-7.54-.46-11.32q4.41,5.5,8.79,11Q398.29,131.15,410.33,130.85Zm-34.71-15.74c-2.53-7-5.05-13.94-7.62-20.9l-4.77.22q.51,10.6,1,21.2-11,.51-21.89,1.17l-3.81-64.18c-.19-3.25-.39-6.5-.58-9.74q13.5-.81,27-1.43A28,28,0,0,1,388.4,52.62a24.74,24.74,0,0,1,5.05,14.11c.25,8-3.49,15.37-9.54,20.76q6.18,13.41,12.19,26.88C389.27,114.57,382.44,114.83,375.62,115.11Zm-11.2-58c-1,.06-2.05.1-3.06.14.34,7.23.69,14.48,1,21.71l3.43-.17c3.86-.18,7-5,6.74-11.22S368.53,57,364.42,57.15Zm8.15,10.46c-.26-6.16-4-10.65-8.15-10.46-1,.06-2.05.1-3.06.14.34,7.23.69,14.48,1,21.71l3.43-.17C369.69,78.65,372.83,73.78,372.57,67.61Zm0,0c-.26-6.16-4-10.65-8.15-10.46-1,.06-2.05.1-3.06.14.34,7.23.69,14.48,1,21.71l3.43-.17C369.69,78.65,372.83,73.78,372.57,67.61Zm0,0c-.26-6.16-4-10.65-8.15-10.46-1,.06-2.05.1-3.06.14.34,7.23.69,14.48,1,21.71l3.43-.17C369.69,78.65,372.83,73.78,372.57,67.61Zm0,0c-.26-6.16-4-10.65-8.15-10.46-1,.06-2.05.1-3.06.14.34,7.23.69,14.48,1,21.71l3.43-.17C369.69,78.65,372.83,73.78,372.57,67.61ZM287.94,85.93q-2,6.36-4,12.73c3.35-.31,6.68-.6,10-.88C292,93.82,290,89.87,287.94,85.93Zm0,0q-2,6.36-4,12.73c3.35-.31,6.68-.6,10-.88C292,93.82,290,89.87,287.94,85.93Zm0,0q-2,6.36-4,12.73c3.35-.31,6.68-.6,10-.88C292,93.82,290,89.87,287.94,85.93Zm0,0q-2,6.36-4,12.73c3.35-.31,6.68-.6,10-.88C292,93.82,290,89.87,287.94,85.93Zm16.64-27.32c-1.73-2-3.47-4-5.22-6q-3.71-4.26-7.45-8.5l-8.82.75c-.83,2.58-1.68,5.17-2.51,7.75q-11,34-21.05,68.13-6-6.89-12.15-13.71l-7.21.79q9.3-22.64,19.1-45.21-4.44-5-8.91-10-1.87-2.13-3.78-4.23-18.33,1.95-36.64,4.23-13.53,1.68-27,3.55.72,9.86,1.45,19.7,6.94,6.51,13.79,13.1l4.17-.55q-9,23.14-17.52,46.36,6.88,6.51,13.7,13.07,31.07-4.26,62.22-7.49-.27-6.21-.5-12.42c3.7,3.78,7.35,7.57,11,11.37q9.72-.94,19.44-1.8c.92-3,1.85-6,2.79-9.07,5.26-.44,10.52-.88,15.77-1.28,2.4,2.76,4.79,5.51,7.16,8.28q12.72-.94,25.44-1.71Q323.84,96,304.58,58.61ZM187.89,132.3q11.49-31.11,24-62.1c-8.53,1-17.08,2.18-25.59,3.36-.37-5.23-.74-10.44-1.1-15.66Q206,55,226.82,52.62q8.25-1,16.49-1.85c-.26.62-.54,1.23-.8,1.85q-12.76,29.87-24.6,59.89,13.74-1.71,27.53-3.23l.69,15.68Q217,128.17,187.89,132.3ZM305,119.38c-1.46-2.83-2.91-5.64-4.39-8.47-7,.58-14.1,1.18-21.14,1.83-.92,3-1.85,6.06-2.76,9.09q-7.92.73-15.83,1.56Q271.37,88,282.85,52.62c.62-2,1.27-3.91,1.9-5.88,1.95-.15,3.9-.33,5.85-.49L294,52.62Q311,85,327,117.78,316,118.51,305,119.38Zm-21.1-20.72c3.35-.31,6.68-.6,10-.88-2-4-4-7.91-6-11.85Q285.91,92.29,283.93,98.66Zm4-12.73q-2,6.36-4,12.73c3.35-.31,6.68-.6,10-.88C292,93.82,290,89.87,287.94,85.93Zm0,0q-2,6.36-4,12.73c3.35-.31,6.68-.6,10-.88C292,93.82,290,89.87,287.94,85.93Zm0,0q-2,6.36-4,12.73c3.35-.31,6.68-.6,10-.88C292,93.82,290,89.87,287.94,85.93Zm0,0q-2,6.36-4,12.73c3.35-.31,6.68-.6,10-.88C292,93.82,290,89.87,287.94,85.93Zm-141.4,15c-1.4-8.77-8.12-21.23-18.49-19.48-9.84,1.67-12.75,15-11.07,24.47s8.37,21.07,18.48,19.37C145.14,123.68,148.07,110.53,146.54,101Zm-12.77,22.49a26.17,26.17,0,0,1-1.14-4.82c-1.49-8.77.91-21,10.46-22.53a31.62,31.62,0,0,1,1.37,5.19C145.93,110.46,143.28,123.16,133.77,123.44ZM146.54,101c-1.4-8.77-8.12-21.23-18.49-19.48-9.84,1.67-12.75,15-11.07,24.47s8.37,21.07,18.48,19.37C145.14,123.68,148.07,110.53,146.54,101Zm-12.77,22.49a26.17,26.17,0,0,1-1.14-4.82c-1.49-8.77.91-21,10.46-22.53a31.62,31.62,0,0,1,1.37,5.19C145.93,110.46,143.28,123.16,133.77,123.44Zm52-13.09a37.39,37.39,0,0,0-11-21.8c-2.46-2.42-4.91-4.85-7.38-7.27-2-2-4-3.91-6-5.86a40.63,40.63,0,0,0-13.94-9A41.87,41.87,0,0,0,125.11,64C101.6,68,87,90.2,91,110.72a38.26,38.26,0,0,0,12,21.37q7.11,6.34,14.18,12.72a41.14,41.14,0,0,0,34.74,10.75,42.34,42.34,0,0,0,15.51-5.71A39.56,39.56,0,0,0,185.82,110.35ZM167.42,119a38.08,38.08,0,0,1-19.93,19,40.94,40.94,0,0,1-9.44,2.74c-19.88,3.34-41-9.49-45-30.42-3.75-19.44,10.09-40.54,32.4-44.3a40.18,40.18,0,0,1,22.05,2.52A38.17,38.17,0,0,1,167.42,87a35.43,35.43,0,0,1,3.14,10.25A38.24,38.24,0,0,1,167.42,119ZM128.05,81.47c-9.84,1.67-12.75,15-11.07,24.47s8.37,21.07,18.48,19.37c9.68-1.63,12.61-14.78,11.08-24.36C145.14,92.18,138.42,79.72,128.05,81.47Zm5.72,42a26.17,26.17,0,0,1-1.14-4.82c-1.49-8.77.91-21,10.46-22.53a31.62,31.62,0,0,1,1.37,5.19C145.93,110.46,143.28,123.16,133.77,123.44Z"/><path class="cls-2" d="M460.27,11h0Z"/><path class="cls-2" d="M490,130.62q-13.62-.24-27.22-.29l-.91-1.19c-1.07-1.42-2.15-2.82-3.22-4.23V113.45h3.22q7.1,0,14.2.09-7-12.3-14.2-24.52c-1.07-1.83-2.15-3.65-3.22-5.47V62.79c1.07-1.77,2.14-3.55,3.22-5.32,1-1.62,2-3.24,3-4.85q4-6.59,8.09-13.16c-3.68,0-7.36-.06-11.05-.06-1.07,0-2.14,0-3.22,0v-2c1.07,0,2.15,0,3.22,0,4.94,0,9.87.06,14.81.1,3.55,5,7.1,10.09,10.6,15.14.11.16.22.3.32.46q-11,17.55-21.65,35.23Q478.27,109.39,490,130.62Z"/><path class="cls-2" d="M566.84,69c-.35,6.15-4,10.69-7.82,10.49l-3.44-.17q.57-10.84,1.11-21.69c1,0,2,.1,3.06.15C563.88,58,567.2,62.88,566.84,69Z"/><path class="cls-2" d="M599.89,86.29a26.21,26.21,0,0,0-4.43-16.74c-8.69-13.06-9.2-14.1-9.66-14.94a20.89,20.89,0,0,0-1.33-2A29.72,29.72,0,0,0,562,40.22q-14.58-.78-29.16-1.36l-.54,13.76q-1.24,32.14-2.51,64.29,5.5,7.65,10.88,15.33,12.6.56,25.17,1.3.33-5.65.65-11.3,3.85,5.88,7.67,11.8,12,.77,24,1.66-4.7-14.62-9.57-29.27A27.66,27.66,0,0,0,599.89,86.29ZM587.71,70.23c-.54,8-5,15-11.55,19.69q4.82,14,9.45,28-10.22-.69-20.46-1.29-2.7-10.77-5.5-21.56l-4.76-.24q-.54,10.59-1.1,21.18-10.95-.56-21.91-1l2.52-62.34q.21-5.82.46-11.65,13.5.54,27,1.27a27.85,27.85,0,0,1,20.07,10.38A25.19,25.19,0,0,1,587.71,70.23Z"/><path class="cls-2" d="M730.28,99.54A30.37,30.37,0,0,0,728.07,95q8.26-6.39,16.61-12.7-4.41-8.31-8.92-16.63a38.52,38.52,0,0,0-21.54-13c-.54-.1-1.06-.19-1.59-.26a31.55,31.55,0,0,0-9.92.26c-11,2.05-19.58,10-20.82,20.79-.84,7.32,1.86,13.14,5.81,18q2.43,4.25,4.84,8.53-9.31,4.69-18.56,9.48,2.5-21.93,5-43.86-3.71-6.48-7.46-12.93c-.71-1.23-1.42-2.47-2.14-3.7q-11.92-1.29-23.87-2.44c-.2,2.05-.39,4.09-.59,6.14q-2.19,22.62-4.36,45.26a6.72,6.72,0,0,1-2,3.86l3.81-40q-2.72-4.55-5.45-9.09c-1.47-2.46-2.95-4.89-4.44-7.35Q619,44.06,605.46,43c-.25,3.19-.49,6.39-.72,9.58q-1.59,20.66-3.14,41.3a28.3,28.3,0,0,0,4.28,14.71c.69,1.48,1.68,2.55,10.43,16a32.22,32.22,0,0,0,24.22,15.1c15.12,1.48,30.22-9.79,32.7-23.74.13-1.09.24-2.18.37-3.27q4.29,7.08,8.49,14.16c7.42,11.47,15.13,20,27.83,21.68,14.87,2,28.17-7,30.3-21a22.45,22.45,0,0,0-2.78-15C735.07,108.2,732.67,103.87,730.28,99.54Zm-68.45-.21c-2.28,13.17-16.53,23.82-30.87,22.5S603.74,108.77,603.68,94q1.61-20.68,3.19-41.35.28-3.7.56-7.41,11.37.87,22.72,1.88c-.16,1.85-.33,3.68-.49,5.53q-1.95,21.95-3.88,43.89a8.47,8.47,0,0,0,16.85,1.57q2.22-22.72,4.43-45.46c.12-1.31.25-2.61.38-3.93q9.81,1,19.61,2c-.07.64-.13,1.27-.2,1.91Q664.34,76,661.83,99.33Zm67.6,11.32c-1.91,13-14.32,21.5-28.43,19.67-12-1.56-19.36-8.93-25.89-19.15q8.37-4.38,16.81-8.68c1.77,3.48,4.23,11.41,10.48,12.21,2.87.38,5.75-1,6.14-3.88.73-5.41-8.94-11.76-11.73-13.94-6.9-5.24-14-13.09-12.81-23.22,1.47-12.84,14.36-21.13,28.35-19.3A32.85,32.85,0,0,1,732.8,65.3q-7.27,5.57-14.49,11.16c-1.64-2.06-4.4-6.09-8.08-6.58a4.15,4.15,0,0,0-4.85,3.65c-.56,4.4,7.13,9,9.73,11C723.65,90.52,731,99.65,729.43,110.65ZM695.69,105a40.94,40.94,0,0,0,6.76,7.69,5.91,5.91,0,0,1-3.71-2.1Q697.23,107.78,695.69,105Z"/><path class="cls-2" d="M765.36,188.26q-10-1.23-19.93-2.36a2505.38,2505.38,0,0,0-265.56-16.46h-2.34c-1,0-2,0-3,0-4.23,0-8.44-.06-12.67-.06h-3.22v.29h3.22a2505.45,2505.45,0,0,1,283.54,16.53q10,1.14,19.93,2.38,36,4.44,71.76,9.93v-.28Q801.36,192.71,765.36,188.26ZM816,70.4q-13.35-2.48-26.74-4.76c-.75,4.38-1.5,8.77-2.24,13.14-2.44-4.92-4.87-9.84-7.36-14.75q-7.16-1.19-14.33-2.32-6.23-1-12.47-1.93Q749.16,84.4,745.43,109q-2.11,14-4.24,28l4.24,7.59q2.48,4.42,4.89,8.85c5,.79,10,1.6,15,2.44,3.31.55,6.6,1.09,9.9,1.66l2.25-13.14q3.79,7.41,7.49,14.84,12.45,2.2,24.87,4.58,7.25-38.07,14.52-76.13Q820.25,79,816,70.4Zm-15.84,74.44q-10.83-2-21.67-3.86,2-11.55,4-23.1c-4.49-.77-9-1.52-13.45-2.25q-1.83,11.16-3.68,22.32c0,.26-.08.54-.13.8q-9.88-1.63-19.8-3.15l-1.92-.3c.64-4.19,1.29-8.37,1.92-12.56q4.65-30.3,9.27-60.64c3.56.53,7.11,1.1,10.66,1.65q6,.94,11.89,1.93l-5.67,34.49q6.78,1.11,13.55,2.28,3-17.24,5.92-34.46c7.52,1.3,15,2.62,22.51,4Q806.87,108.41,800.19,144.84Z"/><path class="cls-1" d="M920.82,57.76l-4.3-.93a333.44,333.44,0,0,0-67.45-7.29V37a7.33,7.33,0,0,0-5.83-7.2Q732.57,12.58,621,5.31q-7.37-.49-14.72-.92c-1.39-.09-2.79-.18-4.19-.25L599.79,4Q529.14,0,458.41,0,386.26,0,314.14,4.17c-.77,0-1.53.09-2.3.15-1.4.07-2.78.15-4.17.24-4.91.29-9.8.61-14.7.94q-110,7.29-219.38,24.33A7.34,7.34,0,0,0,67.77,37V51.46l4-.37v.75A332,332,0,0,0,4.3,59.14L0,60.07v3.34c0,26,24.55,73,30.91,84.66C24.51,159.57,0,205.26,0,230.68v6.54l6.38-1.38a311.63,311.63,0,0,1,95.75-5.41,159.89,159.89,0,0,0,22.21,3c4.28.72,8.53,1.52,12.79,2.42l6.38,1.38v-3.41h-4V199.25c2.66-.35,5.33-.68,8-1q10-1.26,19.93-2.41a2499,2499,0,0,1,256.66-16.57l2.31,0,3.06,0q7.86-.09,15.68-.12l11.29,0,12.21,0q7.83,0,15.7.13c1,0,2,0,3.06,0l2.3,0a2492.4,2492.4,0,0,1,255.74,16.55c6.64.78,13.29,1.57,19.93,2.41,2.66.32,5.31.65,8,1v38l6.55-1.38q6.55-1.35,13.15-2.42a168.05,168.05,0,0,0,22.81-3,329.1,329.1,0,0,1,98.43,5.41l6.55,1.38v-3.31c0-26.09-25.25-73-31.85-84.83,6.55-12,31.85-60.18,31.85-86.94ZM71.74,217.83H69.88A325.09,325.09,0,0,0,9,223.62c4.11-27.33,30.25-72.85,30.54-73.34l1.51-2.61L39.59,145c-.29-.52-28.06-50.1-30.89-77.82a313.37,313.37,0,0,1,59.07-6v3.33C59.14,65.75,50.55,67.34,42,69.4a258.35,258.35,0,0,1,25.77-2.21V77.82A260.74,260.74,0,0,0,42,82.67a255.44,255.44,0,0,1,25.77-2.23V91.06Q54.83,92.86,42,95.91a258.33,258.33,0,0,1,25.77-2.2v10.62c-8.63,1.2-17.22,2.78-25.77,4.85A255.4,255.4,0,0,1,67.77,107v10.62A260.74,260.74,0,0,0,42,122.44a255.42,255.42,0,0,1,25.77-2.22v10.62q-12.94,1.8-25.77,4.85a255.4,255.4,0,0,1,25.77-2.21V144.1Q54.83,145.9,42,149a258.35,258.35,0,0,1,25.77-2.21v10.62c-8.63,1.2-17.22,2.79-25.77,4.85A252.51,252.51,0,0,1,67.77,160v10.62Q54.83,172.4,42,175.46c8.55-1.17,17.14-1.89,25.77-2.21v10.64c-8.63,1.2-17.22,2.77-25.77,4.83a252.5,252.5,0,0,1,25.77-2.19v10.62A260.69,260.69,0,0,0,42,202a252.51,252.51,0,0,1,25.77-2.2v9.43l.09,0a9,9,0,0,0,.19,1.16c-8.72,1.2-17.41,2.8-26,4.88A258.08,258.08,0,0,1,68.91,213a16,16,0,0,0,3.51,4.88C71.83,217.85,71.74,217.85,71.74,217.83Zm8-178.13c73.82-11.41,148.52-19.51,223.36-24.21q7.37-.48,14.74-.89l4.12-.23c.81,0,1.61-.1,2.41-.13q67.06-3.64,134.06-3.65,65.49,0,131.16,3.48c.81,0,1.61.09,2.41.15,1.38.07,2.75.14,4.13.23q7.38.39,14.76.85C686.68,20,762.33,28.13,837.12,39.7V198.19q-35.76-5.48-71.76-9.93-10-1.23-19.93-2.36a2505.38,2505.38,0,0,0-265.56-16.46h-2.34c-1,0-2,0-3,0-4.23,0-8.44-.06-12.67-.06h-3.48c-1.14,0-2.28,0-3.42,0-5.27,0-10.53,0-15.8.07h-3l-2.34,0a2514,2514,0,0,0-266.44,16.87q-10,1.17-19.93,2.43-34,4.24-67.77,9.42ZM131.55,224c-33.36-.74-53.42-10-52.93-14.95l0-.05q26.4-4.08,52.88-7.57Zm653.74,0V201.47Q811.75,205,838.17,209s0,0,0,.05C838.7,214.05,818.63,223.3,785.29,224Zm92-79-1.48,2.63,1.51,2.61c.29.51,26.41,46,30.54,73.36A324.49,324.49,0,0,0,847,217.86l-2.54,0a16.49,16.49,0,0,0,3.51-4.87,260.81,260.81,0,0,1,26.91,2.25q-13-3.1-26.05-4.89c.07-.37.15-.75.19-1.14l.09,0v-9.44c8.61.32,17.21,1,25.77,2.19-8.56-2.05-17.16-3.63-25.77-4.82V186.55a256.14,256.14,0,0,1,25.77,2.2c-8.56-2.06-17.16-3.63-25.77-4.83V173.28c8.61.32,17.21,1,25.77,2.21-8.56-2.06-17.16-3.65-25.77-4.85V160c8.61.32,17.21,1,25.77,2.21q-12.84-3.07-25.77-4.84V146.76c8.61.33,17.21,1,25.77,2.22q-12.84-3.09-25.77-4.85V133.51a256.16,256.16,0,0,1,25.77,2.21c-8.56-2.07-17.16-3.65-25.77-4.85V120.25a256.14,256.14,0,0,1,25.77,2.2q-12.84-3.08-25.77-4.85V107a256.19,256.19,0,0,1,25.77,2.23c-8.56-2.07-17.16-3.66-25.77-4.85V93.73c8.61.32,17.21,1,25.77,2.21-8.56-2.06-17.16-3.65-25.77-4.85V80.47c8.61.32,17.21,1,25.77,2.21Q862,79.6,849.07,77.83V67.22a256.16,256.16,0,0,1,25.77,2.21c-8.56-2.06-17.16-3.65-25.77-4.85V61.25a313.22,313.22,0,0,1,59,6C905.29,95,877.54,144.53,877.25,145.05Z"/><path class="cls-1" d="M146.54,101c-1.4-8.77-8.12-21.23-18.49-19.48-9.84,1.67-12.75,15-11.07,24.47s8.37,21.07,18.48,19.37C145.14,123.68,148.07,110.53,146.54,101Zm-12.77,22.49a26.17,26.17,0,0,1-1.14-4.82c-1.49-8.77.91-21,10.46-22.53a31.62,31.62,0,0,1,1.37,5.19C145.93,110.46,143.28,123.16,133.77,123.44ZM146.54,101c-1.4-8.77-8.12-21.23-18.49-19.48-9.84,1.67-12.75,15-11.07,24.47s8.37,21.07,18.48,19.37C145.14,123.68,148.07,110.53,146.54,101Zm-12.77,22.49a26.17,26.17,0,0,1-1.14-4.82c-1.49-8.77.91-21,10.46-22.53a31.62,31.62,0,0,1,1.37,5.19C145.93,110.46,143.28,123.16,133.77,123.44ZM146.54,101c-1.4-8.77-8.12-21.23-18.49-19.48-9.84,1.67-12.75,15-11.07,24.47s8.37,21.07,18.48,19.37C145.14,123.68,148.07,110.53,146.54,101Zm-12.77,22.49a26.17,26.17,0,0,1-1.14-4.82c-1.49-8.77.91-21,10.46-22.53a31.62,31.62,0,0,1,1.37,5.19C145.93,110.46,143.28,123.16,133.77,123.44ZM146.54,101c-1.4-8.77-8.12-21.23-18.49-19.48-9.84,1.67-12.75,15-11.07,24.47s8.37,21.07,18.48,19.37C145.14,123.68,148.07,110.53,146.54,101Zm-12.77,22.49a26.17,26.17,0,0,1-1.14-4.82c-1.49-8.77.91-21,10.46-22.53a31.62,31.62,0,0,1,1.37,5.19C145.93,110.46,143.28,123.16,133.77,123.44ZM146.54,101c-1.4-8.77-8.12-21.23-18.49-19.48-9.84,1.67-12.75,15-11.07,24.47s8.37,21.07,18.48,19.37C145.14,123.68,148.07,110.53,146.54,101Zm-12.77,22.49a26.17,26.17,0,0,1-1.14-4.82c-1.49-8.77.91-21,10.46-22.53a31.62,31.62,0,0,1,1.37,5.19C145.93,110.46,143.28,123.16,133.77,123.44ZM146.54,101c-1.4-8.77-8.12-21.23-18.49-19.48-9.84,1.67-12.75,15-11.07,24.47s8.37,21.07,18.48,19.37C145.14,123.68,148.07,110.53,146.54,101Zm-12.77,22.49a26.17,26.17,0,0,1-1.14-4.82c-1.49-8.77.91-21,10.46-22.53a31.62,31.62,0,0,1,1.37,5.19C145.93,110.46,143.28,123.16,133.77,123.44ZM146.54,101c-1.4-8.77-8.12-21.23-18.49-19.48-9.84,1.67-12.75,15-11.07,24.47s8.37,21.07,18.48,19.37C145.14,123.68,148.07,110.53,146.54,101Zm-12.77,22.49a26.17,26.17,0,0,1-1.14-4.82c-1.49-8.77.91-21,10.46-22.53a31.62,31.62,0,0,1,1.37,5.19C145.93,110.46,143.28,123.16,133.77,123.44ZM146.54,101c-1.4-8.77-8.12-21.23-18.49-19.48-9.84,1.67-12.75,15-11.07,24.47s8.37,21.07,18.48,19.37C145.14,123.68,148.07,110.53,146.54,101Zm-12.77,22.49a26.17,26.17,0,0,1-1.14-4.82c-1.49-8.77.91-21,10.46-22.53a31.62,31.62,0,0,1,1.37,5.19C145.93,110.46,143.28,123.16,133.77,123.44ZM146.54,101c-1.4-8.77-8.12-21.23-18.49-19.48-9.84,1.67-12.75,15-11.07,24.47s8.37,21.07,18.48,19.37C145.14,123.68,148.07,110.53,146.54,101Zm-12.77,22.49a26.17,26.17,0,0,1-1.14-4.82c-1.49-8.77.91-21,10.46-22.53a31.62,31.62,0,0,1,1.37,5.19C145.93,110.46,143.28,123.16,133.77,123.44ZM146.54,101c-1.4-8.77-8.12-21.23-18.49-19.48-9.84,1.67-12.75,15-11.07,24.47s8.37,21.07,18.48,19.37C145.14,123.68,148.07,110.53,146.54,101Zm-12.77,22.49a26.17,26.17,0,0,1-1.14-4.82c-1.49-8.77.91-21,10.46-22.53a31.62,31.62,0,0,1,1.37,5.19C145.93,110.46,143.28,123.16,133.77,123.44ZM146.54,101c-1.4-8.77-8.12-21.23-18.49-19.48-9.84,1.67-12.75,15-11.07,24.47s8.37,21.07,18.48,19.37C145.14,123.68,148.07,110.53,146.54,101Zm-12.77,22.49a26.17,26.17,0,0,1-1.14-4.82c-1.49-8.77.91-21,10.46-22.53a31.62,31.62,0,0,1,1.37,5.19C145.93,110.46,143.28,123.16,133.77,123.44ZM146.54,101c-1.4-8.77-8.12-21.23-18.49-19.48-9.84,1.67-12.75,15-11.07,24.47s8.37,21.07,18.48,19.37C145.14,123.68,148.07,110.53,146.54,101Zm-12.77,22.49a26.17,26.17,0,0,1-1.14-4.82c-1.49-8.77.91-21,10.46-22.53a31.62,31.62,0,0,1,1.37,5.19C145.93,110.46,143.28,123.16,133.77,123.44ZM146.54,101c-1.4-8.77-8.12-21.23-18.49-19.48-9.84,1.67-12.75,15-11.07,24.47s8.37,21.07,18.48,19.37C145.14,123.68,148.07,110.53,146.54,101Zm-12.77,22.49a26.17,26.17,0,0,1-1.14-4.82c-1.49-8.77.91-21,10.46-22.53a31.62,31.62,0,0,1,1.37,5.19C145.93,110.46,143.28,123.16,133.77,123.44ZM146.54,101c-1.4-8.77-8.12-21.23-18.49-19.48-9.84,1.67-12.75,15-11.07,24.47s8.37,21.07,18.48,19.37C145.14,123.68,148.07,110.53,146.54,101Zm-12.77,22.49a26.17,26.17,0,0,1-1.14-4.82c-1.49-8.77.91-21,10.46-22.53a31.62,31.62,0,0,1,1.37,5.19C145.93,110.46,143.28,123.16,133.77,123.44ZM146.54,101c-1.4-8.77-8.12-21.23-18.49-19.48-9.84,1.67-12.75,15-11.07,24.47s8.37,21.07,18.48,19.37C145.14,123.68,148.07,110.53,146.54,101Zm-12.77,22.49a26.17,26.17,0,0,1-1.14-4.82c-1.49-8.77.91-21,10.46-22.53a31.62,31.62,0,0,1,1.37,5.19C145.93,110.46,143.28,123.16,133.77,123.44ZM146.54,101c-1.4-8.77-8.12-21.23-18.49-19.48-9.84,1.67-12.75,15-11.07,24.47s8.37,21.07,18.48,19.37C145.14,123.68,148.07,110.53,146.54,101Zm-12.77,22.49a26.17,26.17,0,0,1-1.14-4.82c-1.49-8.77.91-21,10.46-22.53a31.62,31.62,0,0,1,1.37,5.19C145.93,110.46,143.28,123.16,133.77,123.44ZM146.54,101c-1.4-8.77-8.12-21.23-18.49-19.48-9.84,1.67-12.75,15-11.07,24.47s8.37,21.07,18.48,19.37C145.14,123.68,148.07,110.53,146.54,101Zm-12.77,22.49a26.17,26.17,0,0,1-1.14-4.82c-1.49-8.77.91-21,10.46-22.53a31.62,31.62,0,0,1,1.37,5.19C145.93,110.46,143.28,123.16,133.77,123.44ZM146.54,101c-1.4-8.77-8.12-21.23-18.49-19.48-9.84,1.67-12.75,15-11.07,24.47s8.37,21.07,18.48,19.37C145.14,123.68,148.07,110.53,146.54,101Zm-12.77,22.49a26.17,26.17,0,0,1-1.14-4.82c-1.49-8.77.91-21,10.46-22.53a31.62,31.62,0,0,1,1.37,5.19C145.93,110.46,143.28,123.16,133.77,123.44ZM146.54,101c-1.4-8.77-8.12-21.23-18.49-19.48-9.84,1.67-12.75,15-11.07,24.47s8.37,21.07,18.48,19.37C145.14,123.68,148.07,110.53,146.54,101Zm-12.77,22.49a26.17,26.17,0,0,1-1.14-4.82c-1.49-8.77.91-21,10.46-22.53a31.62,31.62,0,0,1,1.37,5.19C145.93,110.46,143.28,123.16,133.77,123.44ZM146.54,101c-1.4-8.77-8.12-21.23-18.49-19.48-9.84,1.67-12.75,15-11.07,24.47s8.37,21.07,18.48,19.37C145.14,123.68,148.07,110.53,146.54,101Zm-12.77,22.49a26.17,26.17,0,0,1-1.14-4.82c-1.49-8.77.91-21,10.46-22.53a31.62,31.62,0,0,1,1.37,5.19C145.93,110.46,143.28,123.16,133.77,123.44ZM146.54,101c-1.4-8.77-8.12-21.23-18.49-19.48-9.84,1.67-12.75,15-11.07,24.47s8.37,21.07,18.48,19.37C145.14,123.68,148.07,110.53,146.54,101Zm-12.77,22.49a26.17,26.17,0,0,1-1.14-4.82c-1.49-8.77.91-21,10.46-22.53a31.62,31.62,0,0,1,1.37,5.19C145.93,110.46,143.28,123.16,133.77,123.44ZM146.54,101c-1.4-8.77-8.12-21.23-18.49-19.48-9.84,1.67-12.75,15-11.07,24.47s8.37,21.07,18.48,19.37C145.14,123.68,148.07,110.53,146.54,101Zm-12.77,22.49a26.17,26.17,0,0,1-1.14-4.82c-1.49-8.77.91-21,10.46-22.53a31.62,31.62,0,0,1,1.37,5.19C145.93,110.46,143.28,123.16,133.77,123.44ZM146.54,101c-1.4-8.77-8.12-21.23-18.49-19.48-9.84,1.67-12.75,15-11.07,24.47s8.37,21.07,18.48,19.37C145.14,123.68,148.07,110.53,146.54,101Zm-12.77,22.49a26.17,26.17,0,0,1-1.14-4.82c-1.49-8.77.91-21,10.46-22.53a31.62,31.62,0,0,1,1.37,5.19C145.93,110.46,143.28,123.16,133.77,123.44ZM146.54,101c-1.4-8.77-8.12-21.23-18.49-19.48-9.84,1.67-12.75,15-11.07,24.47s8.37,21.07,18.48,19.37C145.14,123.68,148.07,110.53,146.54,101Zm-12.77,22.49a26.17,26.17,0,0,1-1.14-4.82c-1.49-8.77.91-21,10.46-22.53a31.62,31.62,0,0,1,1.37,5.19C145.93,110.46,143.28,123.16,133.77,123.44ZM146.54,101c-1.4-8.77-8.12-21.23-18.49-19.48-9.84,1.67-12.75,15-11.07,24.47s8.37,21.07,18.48,19.37C145.14,123.68,148.07,110.53,146.54,101Zm-12.77,22.49a26.17,26.17,0,0,1-1.14-4.82c-1.49-8.77.91-21,10.46-22.53a31.62,31.62,0,0,1,1.37,5.19C145.93,110.46,143.28,123.16,133.77,123.44ZM146.54,101c-1.4-8.77-8.12-21.23-18.49-19.48-9.84,1.67-12.75,15-11.07,24.47s8.37,21.07,18.48,19.37C145.14,123.68,148.07,110.53,146.54,101Zm-12.77,22.49a26.17,26.17,0,0,1-1.14-4.82c-1.49-8.77.91-21,10.46-22.53a31.62,31.62,0,0,1,1.37,5.19C145.93,110.46,143.28,123.16,133.77,123.44ZM146.54,101c-1.4-8.77-8.12-21.23-18.49-19.48-9.84,1.67-12.75,15-11.07,24.47s8.37,21.07,18.48,19.37C145.14,123.68,148.07,110.53,146.54,101Zm-12.77,22.49a26.17,26.17,0,0,1-1.14-4.82c-1.49-8.77.91-21,10.46-22.53a31.62,31.62,0,0,1,1.37,5.19C145.93,110.46,143.28,123.16,133.77,123.44ZM146.54,101c-1.4-8.77-8.12-21.23-18.49-19.48-9.84,1.67-12.75,15-11.07,24.47s8.37,21.07,18.48,19.37C145.14,123.68,148.07,110.53,146.54,101Zm-12.77,22.49a26.17,26.17,0,0,1-1.14-4.82c-1.49-8.77.91-21,10.46-22.53a31.62,31.62,0,0,1,1.37,5.19C145.93,110.46,143.28,123.16,133.77,123.44Zm52-13.09a37.39,37.39,0,0,0-11-21.8c-2.46-2.42-4.91-4.85-7.38-7.27-2-2-4-3.91-6-5.86a40.63,40.63,0,0,0-13.94-9A41.87,41.87,0,0,0,125.11,64C101.6,68,87,90.2,91,110.72a38.26,38.26,0,0,0,12,21.37q7.11,6.34,14.18,12.72a41.14,41.14,0,0,0,34.74,10.75,42.34,42.34,0,0,0,15.51-5.71A39.56,39.56,0,0,0,185.82,110.35ZM167.42,119a38.08,38.08,0,0,1-19.93,19,40.94,40.94,0,0,1-9.44,2.74c-19.88,3.34-41-9.49-45-30.42-3.75-19.44,10.09-40.54,32.4-44.3a40.18,40.18,0,0,1,22.05,2.52A38.17,38.17,0,0,1,167.42,87a35.43,35.43,0,0,1,3.14,10.25A38.24,38.24,0,0,1,167.42,119ZM128.05,81.47c-9.84,1.67-12.75,15-11.07,24.47s8.37,21.07,18.48,19.37c9.68-1.63,12.61-14.78,11.08-24.36C145.14,92.18,138.42,79.72,128.05,81.47Zm5.72,42a26.17,26.17,0,0,1-1.14-4.82c-1.49-8.77.91-21,10.46-22.53a31.62,31.62,0,0,1,1.37,5.19C145.93,110.46,143.28,123.16,133.77,123.44ZM146.54,101c-1.4-8.77-8.12-21.23-18.49-19.48-9.84,1.67-12.75,15-11.07,24.47s8.37,21.07,18.48,19.37C145.14,123.68,148.07,110.53,146.54,101Zm-12.77,22.49a26.17,26.17,0,0,1-1.14-4.82c-1.49-8.77.91-21,10.46-22.53a31.62,31.62,0,0,1,1.37,5.19C145.93,110.46,143.28,123.16,133.77,123.44ZM146.54,101c-1.4-8.77-8.12-21.23-18.49-19.48-9.84,1.67-12.75,15-11.07,24.47s8.37,21.07,18.48,19.37C145.14,123.68,148.07,110.53,146.54,101Zm-12.77,22.49a26.17,26.17,0,0,1-1.14-4.82c-1.49-8.77.91-21,10.46-22.53a31.62,31.62,0,0,1,1.37,5.19C145.93,110.46,143.28,123.16,133.77,123.44ZM146.54,101c-1.4-8.77-8.12-21.23-18.49-19.48-9.84,1.67-12.75,15-11.07,24.47s8.37,21.07,18.48,19.37C145.14,123.68,148.07,110.53,146.54,101Zm-12.77,22.49a26.17,26.17,0,0,1-1.14-4.82c-1.49-8.77.91-21,10.46-22.53a31.62,31.62,0,0,1,1.37,5.19C145.93,110.46,143.28,123.16,133.77,123.44ZM146.54,101c-1.4-8.77-8.12-21.23-18.49-19.48-9.84,1.67-12.75,15-11.07,24.47s8.37,21.07,18.48,19.37C145.14,123.68,148.07,110.53,146.54,101Zm-12.77,22.49a26.17,26.17,0,0,1-1.14-4.82c-1.49-8.77.91-21,10.46-22.53a31.62,31.62,0,0,1,1.37,5.19C145.93,110.46,143.28,123.16,133.77,123.44ZM146.54,101c-1.4-8.77-8.12-21.23-18.49-19.48-9.84,1.67-12.75,15-11.07,24.47s8.37,21.07,18.48,19.37C145.14,123.68,148.07,110.53,146.54,101Zm-12.77,22.49a26.17,26.17,0,0,1-1.14-4.82c-1.49-8.77.91-21,10.46-22.53a31.62,31.62,0,0,1,1.37,5.19C145.93,110.46,143.28,123.16,133.77,123.44ZM146.54,101c-1.4-8.77-8.12-21.23-18.49-19.48-9.84,1.67-12.75,15-11.07,24.47s8.37,21.07,18.48,19.37C145.14,123.68,148.07,110.53,146.54,101Zm-12.77,22.49a26.17,26.17,0,0,1-1.14-4.82c-1.49-8.77.91-21,10.46-22.53a31.62,31.62,0,0,1,1.37,5.19C145.93,110.46,143.28,123.16,133.77,123.44ZM146.54,101c-1.4-8.77-8.12-21.23-18.49-19.48-9.84,1.67-12.75,15-11.07,24.47s8.37,21.07,18.48,19.37C145.14,123.68,148.07,110.53,146.54,101Zm-12.77,22.49a26.17,26.17,0,0,1-1.14-4.82c-1.49-8.77.91-21,10.46-22.53a31.62,31.62,0,0,1,1.37,5.19C145.93,110.46,143.28,123.16,133.77,123.44ZM146.54,101c-1.4-8.77-8.12-21.23-18.49-19.48-9.84,1.67-12.75,15-11.07,24.47s8.37,21.07,18.48,19.37C145.14,123.68,148.07,110.53,146.54,101Zm-12.77,22.49a26.17,26.17,0,0,1-1.14-4.82c-1.49-8.77.91-21,10.46-22.53a31.62,31.62,0,0,1,1.37,5.19C145.93,110.46,143.28,123.16,133.77,123.44ZM146.54,101c-1.4-8.77-8.12-21.23-18.49-19.48-9.84,1.67-12.75,15-11.07,24.47s8.37,21.07,18.48,19.37C145.14,123.68,148.07,110.53,146.54,101Zm-12.77,22.49a26.17,26.17,0,0,1-1.14-4.82c-1.49-8.77.91-21,10.46-22.53a31.62,31.62,0,0,1,1.37,5.19C145.93,110.46,143.28,123.16,133.77,123.44ZM146.54,101c-1.4-8.77-8.12-21.23-18.49-19.48-9.84,1.67-12.75,15-11.07,24.47s8.37,21.07,18.48,19.37C145.14,123.68,148.07,110.53,146.54,101Zm-12.77,22.49a26.17,26.17,0,0,1-1.14-4.82c-1.49-8.77.91-21,10.46-22.53a31.62,31.62,0,0,1,1.37,5.19C145.93,110.46,143.28,123.16,133.77,123.44ZM146.54,101c-1.4-8.77-8.12-21.23-18.49-19.48-9.84,1.67-12.75,15-11.07,24.47s8.37,21.07,18.48,19.37C145.14,123.68,148.07,110.53,146.54,101Zm-12.77,22.49a26.17,26.17,0,0,1-1.14-4.82c-1.49-8.77.91-21,10.46-22.53a31.62,31.62,0,0,1,1.37,5.19C145.93,110.46,143.28,123.16,133.77,123.44ZM146.54,101c-1.4-8.77-8.12-21.23-18.49-19.48-9.84,1.67-12.75,15-11.07,24.47s8.37,21.07,18.48,19.37C145.14,123.68,148.07,110.53,146.54,101Zm-12.77,22.49a26.17,26.17,0,0,1-1.14-4.82c-1.49-8.77.91-21,10.46-22.53a31.62,31.62,0,0,1,1.37,5.19C145.93,110.46,143.28,123.16,133.77,123.44ZM146.54,101c-1.4-8.77-8.12-21.23-18.49-19.48-9.84,1.67-12.75,15-11.07,24.47s8.37,21.07,18.48,19.37C145.14,123.68,148.07,110.53,146.54,101Zm-12.77,22.49a26.17,26.17,0,0,1-1.14-4.82c-1.49-8.77.91-21,10.46-22.53a31.62,31.62,0,0,1,1.37,5.19C145.93,110.46,143.28,123.16,133.77,123.44ZM146.54,101c-1.4-8.77-8.12-21.23-18.49-19.48-9.84,1.67-12.75,15-11.07,24.47s8.37,21.07,18.48,19.37C145.14,123.68,148.07,110.53,146.54,101Zm-12.77,22.49a26.17,26.17,0,0,1-1.14-4.82c-1.49-8.77.91-21,10.46-22.53a31.62,31.62,0,0,1,1.37,5.19C145.93,110.46,143.28,123.16,133.77,123.44ZM146.54,101c-1.4-8.77-8.12-21.23-18.49-19.48-9.84,1.67-12.75,15-11.07,24.47s8.37,21.07,18.48,19.37C145.14,123.68,148.07,110.53,146.54,101Zm-12.77,22.49a26.17,26.17,0,0,1-1.14-4.82c-1.49-8.77.91-21,10.46-22.53a31.62,31.62,0,0,1,1.37,5.19C145.93,110.46,143.28,123.16,133.77,123.44ZM146.54,101c-1.4-8.77-8.12-21.23-18.49-19.48-9.84,1.67-12.75,15-11.07,24.47s8.37,21.07,18.48,19.37C145.14,123.68,148.07,110.53,146.54,101Zm-12.77,22.49a26.17,26.17,0,0,1-1.14-4.82c-1.49-8.77.91-21,10.46-22.53a31.62,31.62,0,0,1,1.37,5.19C145.93,110.46,143.28,123.16,133.77,123.44ZM146.54,101c-1.4-8.77-8.12-21.23-18.49-19.48-9.84,1.67-12.75,15-11.07,24.47s8.37,21.07,18.48,19.37C145.14,123.68,148.07,110.53,146.54,101Zm-12.77,22.49a26.17,26.17,0,0,1-1.14-4.82c-1.49-8.77.91-21,10.46-22.53a31.62,31.62,0,0,1,1.37,5.19C145.93,110.46,143.28,123.16,133.77,123.44ZM146.54,101c-1.4-8.77-8.12-21.23-18.49-19.48-9.84,1.67-12.75,15-11.07,24.47s8.37,21.07,18.48,19.37C145.14,123.68,148.07,110.53,146.54,101Zm-12.77,22.49a26.17,26.17,0,0,1-1.14-4.82c-1.49-8.77.91-21,10.46-22.53a31.62,31.62,0,0,1,1.37,5.19C145.93,110.46,143.28,123.16,133.77,123.44ZM146.54,101c-1.4-8.77-8.12-21.23-18.49-19.48-9.84,1.67-12.75,15-11.07,24.47s8.37,21.07,18.48,19.37C145.14,123.68,148.07,110.53,146.54,101Zm-12.77,22.49a26.17,26.17,0,0,1-1.14-4.82c-1.49-8.77.91-21,10.46-22.53a31.62,31.62,0,0,1,1.37,5.19C145.93,110.46,143.28,123.16,133.77,123.44ZM146.54,101c-1.4-8.77-8.12-21.23-18.49-19.48-9.84,1.67-12.75,15-11.07,24.47s8.37,21.07,18.48,19.37C145.14,123.68,148.07,110.53,146.54,101Zm-12.77,22.49a26.17,26.17,0,0,1-1.14-4.82c-1.49-8.77.91-21,10.46-22.53a31.62,31.62,0,0,1,1.37,5.19C145.93,110.46,143.28,123.16,133.77,123.44ZM146.54,101c-1.4-8.77-8.12-21.23-18.49-19.48-9.84,1.67-12.75,15-11.07,24.47s8.37,21.07,18.48,19.37C145.14,123.68,148.07,110.53,146.54,101Zm-12.77,22.49a26.17,26.17,0,0,1-1.14-4.82c-1.49-8.77.91-21,10.46-22.53a31.62,31.62,0,0,1,1.37,5.19C145.93,110.46,143.28,123.16,133.77,123.44ZM146.54,101c-1.4-8.77-8.12-21.23-18.49-19.48-9.84,1.67-12.75,15-11.07,24.47s8.37,21.07,18.48,19.37C145.14,123.68,148.07,110.53,146.54,101Zm-12.77,22.49a26.17,26.17,0,0,1-1.14-4.82c-1.49-8.77.91-21,10.46-22.53a31.62,31.62,0,0,1,1.37,5.19C145.93,110.46,143.28,123.16,133.77,123.44ZM146.54,101c-1.4-8.77-8.12-21.23-18.49-19.48-9.84,1.67-12.75,15-11.07,24.47s8.37,21.07,18.48,19.37C145.14,123.68,148.07,110.53,146.54,101Zm-12.77,22.49a26.17,26.17,0,0,1-1.14-4.82c-1.49-8.77.91-21,10.46-22.53a31.62,31.62,0,0,1,1.37,5.19C145.93,110.46,143.28,123.16,133.77,123.44ZM146.54,101c-1.4-8.77-8.12-21.23-18.49-19.48-9.84,1.67-12.75,15-11.07,24.47s8.37,21.07,18.48,19.37C145.14,123.68,148.07,110.53,146.54,101Zm-12.77,22.49a26.17,26.17,0,0,1-1.14-4.82c-1.49-8.77.91-21,10.46-22.53a31.62,31.62,0,0,1,1.37,5.19C145.93,110.46,143.28,123.16,133.77,123.44ZM146.54,101c-1.4-8.77-8.12-21.23-18.49-19.48-9.84,1.67-12.75,15-11.07,24.47s8.37,21.07,18.48,19.37C145.14,123.68,148.07,110.53,146.54,101Zm-12.77,22.49a26.17,26.17,0,0,1-1.14-4.82c-1.49-8.77.91-21,10.46-22.53a31.62,31.62,0,0,1,1.37,5.19C145.93,110.46,143.28,123.16,133.77,123.44ZM146.54,101c-1.4-8.77-8.12-21.23-18.49-19.48-9.84,1.67-12.75,15-11.07,24.47s8.37,21.07,18.48,19.37C145.14,123.68,148.07,110.53,146.54,101Zm-12.77,22.49a26.17,26.17,0,0,1-1.14-4.82c-1.49-8.77.91-21,10.46-22.53a31.62,31.62,0,0,1,1.37,5.19C145.93,110.46,143.28,123.16,133.77,123.44ZM146.54,101c-1.4-8.77-8.12-21.23-18.49-19.48-9.84,1.67-12.75,15-11.07,24.47s8.37,21.07,18.48,19.37C145.14,123.68,148.07,110.53,146.54,101Zm-12.77,22.49a26.17,26.17,0,0,1-1.14-4.82c-1.49-8.77.91-21,10.46-22.53a31.62,31.62,0,0,1,1.37,5.19C145.93,110.46,143.28,123.16,133.77,123.44ZM146.54,101c-1.4-8.77-8.12-21.23-18.49-19.48-9.84,1.67-12.75,15-11.07,24.47s8.37,21.07,18.48,19.37C145.14,123.68,148.07,110.53,146.54,101Zm-12.77,22.49a26.17,26.17,0,0,1-1.14-4.82c-1.49-8.77.91-21,10.46-22.53a31.62,31.62,0,0,1,1.37,5.19C145.93,110.46,143.28,123.16,133.77,123.44Z"/><path class="cls-1" d="M260.23,127.94c-.08-2.22-.17-4.46-.26-6.68-.14-.18-.28-.34-.44-.51q-6-6.89-12.15-13.71l-7.21.79q9.3-22.64,19.1-45.21-4.44-5-8.91-10-1.87-2.13-3.78-4.23-18.33,1.95-36.64,4.23-13.53,1.68-27,3.55.72,9.86,1.45,19.7,6.94,6.51,13.79,13.1l4.17-.55q-9,23.14-17.52,46.36,6.88,6.51,13.7,13.07,31.07-4.26,62.22-7.49Q260.46,134.15,260.23,127.94Zm-72.34,4.36q11.49-31.11,24-62.1c-8.53,1-17.08,2.18-25.59,3.36-.37-5.23-.74-10.44-1.1-15.66Q206,55,226.82,52.62q8.25-1,16.49-1.85c-.26.62-.54,1.23-.8,1.85q-12.76,29.87-24.6,59.89,13.74-1.71,27.53-3.23l.69,15.68Q217,128.17,187.89,132.3Z"/><path class="cls-1" d="M287.94,85.93q-2,6.36-4,12.73c3.35-.31,6.68-.6,10-.88C292,93.82,290,89.87,287.94,85.93Zm0,0q-2,6.36-4,12.73c3.35-.31,6.68-.6,10-.88C292,93.82,290,89.87,287.94,85.93Zm0,0q-2,6.36-4,12.73c3.35-.31,6.68-.6,10-.88C292,93.82,290,89.87,287.94,85.93Zm0,0q-2,6.36-4,12.73c3.35-.31,6.68-.6,10-.88C292,93.82,290,89.87,287.94,85.93Zm0,0q-2,6.36-4,12.73c3.35-.31,6.68-.6,10-.88C292,93.82,290,89.87,287.94,85.93Zm0,0q-2,6.36-4,12.73c3.35-.31,6.68-.6,10-.88C292,93.82,290,89.87,287.94,85.93Zm0,0q-2,6.36-4,12.73c3.35-.31,6.68-.6,10-.88C292,93.82,290,89.87,287.94,85.93Zm0,0q-2,6.36-4,12.73c3.35-.31,6.68-.6,10-.88C292,93.82,290,89.87,287.94,85.93Zm0,0q-2,6.36-4,12.73c3.35-.31,6.68-.6,10-.88C292,93.82,290,89.87,287.94,85.93Zm0,0q-2,6.36-4,12.73c3.35-.31,6.68-.6,10-.88C292,93.82,290,89.87,287.94,85.93Zm0,0q-2,6.36-4,12.73c3.35-.31,6.68-.6,10-.88C292,93.82,290,89.87,287.94,85.93Zm0,0q-2,6.36-4,12.73c3.35-.31,6.68-.6,10-.88C292,93.82,290,89.87,287.94,85.93Zm0,0q-2,6.36-4,12.73c3.35-.31,6.68-.6,10-.88C292,93.82,290,89.87,287.94,85.93Zm0,0q-2,6.36-4,12.73c3.35-.31,6.68-.6,10-.88C292,93.82,290,89.87,287.94,85.93Zm0,0q-2,6.36-4,12.73c3.35-.31,6.68-.6,10-.88C292,93.82,290,89.87,287.94,85.93Zm0,0q-2,6.36-4,12.73c3.35-.31,6.68-.6,10-.88C292,93.82,290,89.87,287.94,85.93Zm0,0q-2,6.36-4,12.73c3.35-.31,6.68-.6,10-.88C292,93.82,290,89.87,287.94,85.93Zm0,0q-2,6.36-4,12.73c3.35-.31,6.68-.6,10-.88C292,93.82,290,89.87,287.94,85.93Zm0,0q-2,6.36-4,12.73c3.35-.31,6.68-.6,10-.88C292,93.82,290,89.87,287.94,85.93Zm0,0q-2,6.36-4,12.73c3.35-.31,6.68-.6,10-.88C292,93.82,290,89.87,287.94,85.93Zm0,0q-2,6.36-4,12.73c3.35-.31,6.68-.6,10-.88C292,93.82,290,89.87,287.94,85.93Zm0,0q-2,6.36-4,12.73c3.35-.31,6.68-.6,10-.88C292,93.82,290,89.87,287.94,85.93Zm0,0q-2,6.36-4,12.73c3.35-.31,6.68-.6,10-.88C292,93.82,290,89.87,287.94,85.93Zm0,0q-2,6.36-4,12.73c3.35-.31,6.68-.6,10-.88C292,93.82,290,89.87,287.94,85.93Zm0,0q-2,6.36-4,12.73c3.35-.31,6.68-.6,10-.88C292,93.82,290,89.87,287.94,85.93Zm0,0q-2,6.36-4,12.73c3.35-.31,6.68-.6,10-.88C292,93.82,290,89.87,287.94,85.93Zm0,0q-2,6.36-4,12.73c3.35-.31,6.68-.6,10-.88C292,93.82,290,89.87,287.94,85.93Zm0,0q-2,6.36-4,12.73c3.35-.31,6.68-.6,10-.88C292,93.82,290,89.87,287.94,85.93Zm16.64-27.32c-1.73-2-3.47-4-5.22-6q-3.71-4.26-7.45-8.5l-8.82.75c-.83,2.58-1.68,5.17-2.51,7.75q-11,34-21.05,68.13c-.49,1.65-1,3.31-1.46,5,.72.73,1.44,1.48,2.16,2.22,3.7,3.78,7.35,7.57,11,11.37q9.72-.94,19.44-1.8c.92-3,1.85-6,2.79-9.07,5.26-.44,10.52-.88,15.77-1.28,2.4,2.76,4.79,5.51,7.16,8.28q12.72-.94,25.44-1.71Q323.84,96,304.58,58.61Zm.45,60.77c-1.46-2.83-2.91-5.64-4.39-8.47-7,.58-14.1,1.18-21.14,1.83-.92,3-1.85,6.06-2.76,9.09q-7.92.73-15.83,1.56Q271.37,88,282.85,52.62c.62-2,1.27-3.91,1.9-5.88,1.95-.15,3.9-.33,5.85-.49L294,52.62Q311,85,327,117.78,316,118.51,305,119.38Zm-21.1-20.72c3.35-.31,6.68-.6,10-.88-2-4-4-7.91-6-11.85Q285.91,92.29,283.93,98.66Zm4-12.73q-2,6.36-4,12.73c3.35-.31,6.68-.6,10-.88C292,93.82,290,89.87,287.94,85.93Zm0,0q-2,6.36-4,12.73c3.35-.31,6.68-.6,10-.88C292,93.82,290,89.87,287.94,85.93Zm0,0q-2,6.36-4,12.73c3.35-.31,6.68-.6,10-.88C292,93.82,290,89.87,287.94,85.93Zm0,0q-2,6.36-4,12.73c3.35-.31,6.68-.6,10-.88C292,93.82,290,89.87,287.94,85.93Zm0,0q-2,6.36-4,12.73c3.35-.31,6.68-.6,10-.88C292,93.82,290,89.87,287.94,85.93Zm0,0q-2,6.36-4,12.73c3.35-.31,6.68-.6,10-.88C292,93.82,290,89.87,287.94,85.93Zm0,0q-2,6.36-4,12.73c3.35-.31,6.68-.6,10-.88C292,93.82,290,89.87,287.94,85.93Zm0,0q-2,6.36-4,12.73c3.35-.31,6.68-.6,10-.88C292,93.82,290,89.87,287.94,85.93Zm0,0q-2,6.36-4,12.73c3.35-.31,6.68-.6,10-.88C292,93.82,290,89.87,287.94,85.93Zm0,0q-2,6.36-4,12.73c3.35-.31,6.68-.6,10-.88C292,93.82,290,89.87,287.94,85.93Zm0,0q-2,6.36-4,12.73c3.35-.31,6.68-.6,10-.88C292,93.82,290,89.87,287.94,85.93Zm0,0q-2,6.36-4,12.73c3.35-.31,6.68-.6,10-.88C292,93.82,290,89.87,287.94,85.93Zm0,0q-2,6.36-4,12.73c3.35-.31,6.68-.6,10-.88C292,93.82,290,89.87,287.94,85.93Zm0,0q-2,6.36-4,12.73c3.35-.31,6.68-.6,10-.88C292,93.82,290,89.87,287.94,85.93Zm0,0q-2,6.36-4,12.73c3.35-.31,6.68-.6,10-.88C292,93.82,290,89.87,287.94,85.93Zm0,0q-2,6.36-4,12.73c3.35-.31,6.68-.6,10-.88C292,93.82,290,89.87,287.94,85.93Zm0,0q-2,6.36-4,12.73c3.35-.31,6.68-.6,10-.88C292,93.82,290,89.87,287.94,85.93Zm0,0q-2,6.36-4,12.73c3.35-.31,6.68-.6,10-.88C292,93.82,290,89.87,287.94,85.93Zm0,0q-2,6.36-4,12.73c3.35-.31,6.68-.6,10-.88C292,93.82,290,89.87,287.94,85.93Zm0,0q-2,6.36-4,12.73c3.35-.31,6.68-.6,10-.88C292,93.82,290,89.87,287.94,85.93Zm0,0q-2,6.36-4,12.73c3.35-.31,6.68-.6,10-.88C292,93.82,290,89.87,287.94,85.93Zm0,0q-2,6.36-4,12.73c3.35-.31,6.68-.6,10-.88C292,93.82,290,89.87,287.94,85.93Zm0,0q-2,6.36-4,12.73c3.35-.31,6.68-.6,10-.88C292,93.82,290,89.87,287.94,85.93Zm0,0q-2,6.36-4,12.73c3.35-.31,6.68-.6,10-.88C292,93.82,290,89.87,287.94,85.93Zm0,0q-2,6.36-4,12.73c3.35-.31,6.68-.6,10-.88C292,93.82,290,89.87,287.94,85.93Zm0,0q-2,6.36-4,12.73c3.35-.31,6.68-.6,10-.88C292,93.82,290,89.87,287.94,85.93Zm0,0q-2,6.36-4,12.73c3.35-.31,6.68-.6,10-.88C292,93.82,290,89.87,287.94,85.93Zm0,0q-2,6.36-4,12.73c3.35-.31,6.68-.6,10-.88C292,93.82,290,89.87,287.94,85.93Z"/><path class="cls-1" d="M372.57,67.61c-.26-6.16-4-10.65-8.15-10.46-1,.06-2.05.1-3.06.14.34,7.23.69,14.48,1,21.71l3.43-.17C369.69,78.65,372.83,73.78,372.57,67.61Zm0,0c-.26-6.16-4-10.65-8.15-10.46-1,.06-2.05.1-3.06.14.34,7.23.69,14.48,1,21.71l3.43-.17C369.69,78.65,372.83,73.78,372.57,67.61Zm0,0c-.26-6.16-4-10.65-8.15-10.46-1,.06-2.05.1-3.06.14.34,7.23.69,14.48,1,21.71l3.43-.17C369.69,78.65,372.83,73.78,372.57,67.61Zm0,0c-.26-6.16-4-10.65-8.15-10.46-1,.06-2.05.1-3.06.14.34,7.23.69,14.48,1,21.71l3.43-.17C369.69,78.65,372.83,73.78,372.57,67.61Zm0,0c-.26-6.16-4-10.65-8.15-10.46-1,.06-2.05.1-3.06.14.34,7.23.69,14.48,1,21.71l3.43-.17C369.69,78.65,372.83,73.78,372.57,67.61Zm0,0c-.26-6.16-4-10.65-8.15-10.46-1,.06-2.05.1-3.06.14.34,7.23.69,14.48,1,21.71l3.43-.17C369.69,78.65,372.83,73.78,372.57,67.61Zm0,0c-.26-6.16-4-10.65-8.15-10.46-1,.06-2.05.1-3.06.14.34,7.23.69,14.48,1,21.71l3.43-.17C369.69,78.65,372.83,73.78,372.57,67.61Zm0,0c-.26-6.16-4-10.65-8.15-10.46-1,.06-2.05.1-3.06.14.34,7.23.69,14.48,1,21.71l3.43-.17C369.69,78.65,372.83,73.78,372.57,67.61Zm0,0c-.26-6.16-4-10.65-8.15-10.46-1,.06-2.05.1-3.06.14.34,7.23.69,14.48,1,21.71l3.43-.17C369.69,78.65,372.83,73.78,372.57,67.61Zm0,0c-.26-6.16-4-10.65-8.15-10.46-1,.06-2.05.1-3.06.14.34,7.23.69,14.48,1,21.71l3.43-.17C369.69,78.65,372.83,73.78,372.57,67.61Zm0,0c-.26-6.16-4-10.65-8.15-10.46-1,.06-2.05.1-3.06.14.34,7.23.69,14.48,1,21.71l3.43-.17C369.69,78.65,372.83,73.78,372.57,67.61Zm0,0c-.26-6.16-4-10.65-8.15-10.46-1,.06-2.05.1-3.06.14.34,7.23.69,14.48,1,21.71l3.43-.17C369.69,78.65,372.83,73.78,372.57,67.61Zm0,0c-.26-6.16-4-10.65-8.15-10.46-1,.06-2.05.1-3.06.14.34,7.23.69,14.48,1,21.71l3.43-.17C369.69,78.65,372.83,73.78,372.57,67.61Zm0,0c-.26-6.16-4-10.65-8.15-10.46-1,.06-2.05.1-3.06.14.34,7.23.69,14.48,1,21.71l3.43-.17C369.69,78.65,372.83,73.78,372.57,67.61Zm0,0c-.26-6.16-4-10.65-8.15-10.46-1,.06-2.05.1-3.06.14.34,7.23.69,14.48,1,21.71l3.43-.17C369.69,78.65,372.83,73.78,372.57,67.61Zm0,0c-.26-6.16-4-10.65-8.15-10.46-1,.06-2.05.1-3.06.14.34,7.23.69,14.48,1,21.71l3.43-.17C369.69,78.65,372.83,73.78,372.57,67.61Zm0,0c-.26-6.16-4-10.65-8.15-10.46-1,.06-2.05.1-3.06.14.34,7.23.69,14.48,1,21.71l3.43-.17C369.69,78.65,372.83,73.78,372.57,67.61Zm0,0c-.26-6.16-4-10.65-8.15-10.46-1,.06-2.05.1-3.06.14.34,7.23.69,14.48,1,21.71l3.43-.17C369.69,78.65,372.83,73.78,372.57,67.61Zm0,0c-.26-6.16-4-10.65-8.15-10.46-1,.06-2.05.1-3.06.14.34,7.23.69,14.48,1,21.71l3.43-.17C369.69,78.65,372.83,73.78,372.57,67.61Zm0,0c-.26-6.16-4-10.65-8.15-10.46-1,.06-2.05.1-3.06.14.34,7.23.69,14.48,1,21.71l3.43-.17C369.69,78.65,372.83,73.78,372.57,67.61Zm0,0c-.26-6.16-4-10.65-8.15-10.46-1,.06-2.05.1-3.06.14.34,7.23.69,14.48,1,21.71l3.43-.17C369.69,78.65,372.83,73.78,372.57,67.61Zm0,0c-.26-6.16-4-10.65-8.15-10.46-1,.06-2.05.1-3.06.14.34,7.23.69,14.48,1,21.71l3.43-.17C369.69,78.65,372.83,73.78,372.57,67.61Zm0,0c-.26-6.16-4-10.65-8.15-10.46-1,.06-2.05.1-3.06.14.34,7.23.69,14.48,1,21.71l3.43-.17C369.69,78.65,372.83,73.78,372.57,67.61Zm0,0c-.26-6.16-4-10.65-8.15-10.46-1,.06-2.05.1-3.06.14.34,7.23.69,14.48,1,21.71l3.43-.17C369.69,78.65,372.83,73.78,372.57,67.61Zm0,0c-.26-6.16-4-10.65-8.15-10.46-1,.06-2.05.1-3.06.14.34,7.23.69,14.48,1,21.71l3.43-.17C369.69,78.65,372.83,73.78,372.57,67.61Zm0,0c-.26-6.16-4-10.65-8.15-10.46-1,.06-2.05.1-3.06.14.34,7.23.69,14.48,1,21.71l3.43-.17C369.69,78.65,372.83,73.78,372.57,67.61Zm0,0c-.26-6.16-4-10.65-8.15-10.46-1,.06-2.05.1-3.06.14.34,7.23.69,14.48,1,21.71l3.43-.17C369.69,78.65,372.83,73.78,372.57,67.61Zm0,0c-.26-6.16-4-10.65-8.15-10.46-1,.06-2.05.1-3.06.14.34,7.23.69,14.48,1,21.71l3.43-.17C369.69,78.65,372.83,73.78,372.57,67.61Zm37.76,63.24q-6.13-14.09-12.43-28.17a27.78,27.78,0,0,0,9.26-21.17,26.2,26.2,0,0,0-6.09-16.21C394.41,57.14,392,54,390.9,52.62c-.53-.69-.72-1-.89-1.24a29.85,29.85,0,0,0-25.14-12q-14.58.68-29.16,1.56c.23,3.88.48,7.75.71,11.63q2,33.17,4,66.31,6.21,7.08,12.36,14.17,12.57-.69,25.15-1.19c-.16-3.77-.3-7.54-.46-11.32q4.41,5.5,8.79,11Q398.29,131.15,410.33,130.85Zm-34.71-15.74c-2.53-7-5.05-13.94-7.62-20.9l-4.77.22q.51,10.6,1,21.2-11,.51-21.89,1.17l-3.81-64.18c-.19-3.25-.39-6.5-.58-9.74q13.5-.81,27-1.43A28,28,0,0,1,388.4,52.62a24.74,24.74,0,0,1,5.05,14.11c.25,8-3.49,15.37-9.54,20.76q6.18,13.41,12.19,26.88C389.27,114.57,382.44,114.83,375.62,115.11Zm-11.2-58c-1,.06-2.05.1-3.06.14.34,7.23.69,14.48,1,21.71l3.43-.17c3.86-.18,7-5,6.74-11.22S368.53,57,364.42,57.15Zm8.15,10.46c-.26-6.16-4-10.65-8.15-10.46-1,.06-2.05.1-3.06.14.34,7.23.69,14.48,1,21.71l3.43-.17C369.69,78.65,372.83,73.78,372.57,67.61Zm0,0c-.26-6.16-4-10.65-8.15-10.46-1,.06-2.05.1-3.06.14.34,7.23.69,14.48,1,21.71l3.43-.17C369.69,78.65,372.83,73.78,372.57,67.61Zm0,0c-.26-6.16-4-10.65-8.15-10.46-1,.06-2.05.1-3.06.14.34,7.23.69,14.48,1,21.71l3.43-.17C369.69,78.65,372.83,73.78,372.57,67.61Zm0,0c-.26-6.16-4-10.65-8.15-10.46-1,.06-2.05.1-3.06.14.34,7.23.69,14.48,1,21.71l3.43-.17C369.69,78.65,372.83,73.78,372.57,67.61Zm0,0c-.26-6.16-4-10.65-8.15-10.46-1,.06-2.05.1-3.06.14.34,7.23.69,14.48,1,21.71l3.43-.17C369.69,78.65,372.83,73.78,372.57,67.61Zm0,0c-.26-6.16-4-10.65-8.15-10.46-1,.06-2.05.1-3.06.14.34,7.23.69,14.48,1,21.71l3.43-.17C369.69,78.65,372.83,73.78,372.57,67.61Zm0,0c-.26-6.16-4-10.65-8.15-10.46-1,.06-2.05.1-3.06.14.34,7.23.69,14.48,1,21.71l3.43-.17C369.69,78.65,372.83,73.78,372.57,67.61Zm0,0c-.26-6.16-4-10.65-8.15-10.46-1,.06-2.05.1-3.06.14.34,7.23.69,14.48,1,21.71l3.43-.17C369.69,78.65,372.83,73.78,372.57,67.61Zm0,0c-.26-6.16-4-10.65-8.15-10.46-1,.06-2.05.1-3.06.14.34,7.23.69,14.48,1,21.71l3.43-.17C369.69,78.65,372.83,73.78,372.57,67.61Zm0,0c-.26-6.16-4-10.65-8.15-10.46-1,.06-2.05.1-3.06.14.34,7.23.69,14.48,1,21.71l3.43-.17C369.69,78.65,372.83,73.78,372.57,67.61Zm0,0c-.26-6.16-4-10.65-8.15-10.46-1,.06-2.05.1-3.06.14.34,7.23.69,14.48,1,21.71l3.43-.17C369.69,78.65,372.83,73.78,372.57,67.61Zm0,0c-.26-6.16-4-10.65-8.15-10.46-1,.06-2.05.1-3.06.14.34,7.23.69,14.48,1,21.71l3.43-.17C369.69,78.65,372.83,73.78,372.57,67.61Zm0,0c-.26-6.16-4-10.65-8.15-10.46-1,.06-2.05.1-3.06.14.34,7.23.69,14.48,1,21.71l3.43-.17C369.69,78.65,372.83,73.78,372.57,67.61Zm0,0c-.26-6.16-4-10.65-8.15-10.46-1,.06-2.05.1-3.06.14.34,7.23.69,14.48,1,21.71l3.43-.17C369.69,78.65,372.83,73.78,372.57,67.61Zm0,0c-.26-6.16-4-10.65-8.15-10.46-1,.06-2.05.1-3.06.14.34,7.23.69,14.48,1,21.71l3.43-.17C369.69,78.65,372.83,73.78,372.57,67.61Zm0,0c-.26-6.16-4-10.65-8.15-10.46-1,.06-2.05.1-3.06.14.34,7.23.69,14.48,1,21.71l3.43-.17C369.69,78.65,372.83,73.78,372.57,67.61Zm0,0c-.26-6.16-4-10.65-8.15-10.46-1,.06-2.05.1-3.06.14.34,7.23.69,14.48,1,21.71l3.43-.17C369.69,78.65,372.83,73.78,372.57,67.61Zm0,0c-.26-6.16-4-10.65-8.15-10.46-1,.06-2.05.1-3.06.14.34,7.23.69,14.48,1,21.71l3.43-.17C369.69,78.65,372.83,73.78,372.57,67.61Zm0,0c-.26-6.16-4-10.65-8.15-10.46-1,.06-2.05.1-3.06.14.34,7.23.69,14.48,1,21.71l3.43-.17C369.69,78.65,372.83,73.78,372.57,67.61Zm0,0c-.26-6.16-4-10.65-8.15-10.46-1,.06-2.05.1-3.06.14.34,7.23.69,14.48,1,21.71l3.43-.17C369.69,78.65,372.83,73.78,372.57,67.61Zm0,0c-.26-6.16-4-10.65-8.15-10.46-1,.06-2.05.1-3.06.14.34,7.23.69,14.48,1,21.71l3.43-.17C369.69,78.65,372.83,73.78,372.57,67.61Zm0,0c-.26-6.16-4-10.65-8.15-10.46-1,.06-2.05.1-3.06.14.34,7.23.69,14.48,1,21.71l3.43-.17C369.69,78.65,372.83,73.78,372.57,67.61Zm0,0c-.26-6.16-4-10.65-8.15-10.46-1,.06-2.05.1-3.06.14.34,7.23.69,14.48,1,21.71l3.43-.17C369.69,78.65,372.83,73.78,372.57,67.61Zm0,0c-.26-6.16-4-10.65-8.15-10.46-1,.06-2.05.1-3.06.14.34,7.23.69,14.48,1,21.71l3.43-.17C369.69,78.65,372.83,73.78,372.57,67.61Zm0,0c-.26-6.16-4-10.65-8.15-10.46-1,.06-2.05.1-3.06.14.34,7.23.69,14.48,1,21.71l3.43-.17C369.69,78.65,372.83,73.78,372.57,67.61Zm0,0c-.26-6.16-4-10.65-8.15-10.46-1,.06-2.05.1-3.06.14.34,7.23.69,14.48,1,21.71l3.43-.17C369.69,78.65,372.83,73.78,372.57,67.61Zm0,0c-.26-6.16-4-10.65-8.15-10.46-1,.06-2.05.1-3.06.14.34,7.23.69,14.48,1,21.71l3.43-.17C369.69,78.65,372.83,73.78,372.57,67.61Zm0,0c-.26-6.16-4-10.65-8.15-10.46-1,.06-2.05.1-3.06.14.34,7.23.69,14.48,1,21.71l3.43-.17C369.69,78.65,372.83,73.78,372.57,67.61Z"/><path class="cls-1" d="M452.47,73.13q3.11,5.2,6.2,10.43V62.79Q455.55,68,452.47,73.13Zm0,0q3.11,5.2,6.2,10.43V62.79Q455.55,68,452.47,73.13ZM466,88.31q10.63-17.67,21.65-35.23c-.1-.16-.21-.3-.32-.46-3.5-5-7.05-10.1-10.6-15.14-4.94,0-9.87-.09-14.81-.1-1.07,0-2.15,0-3.22,0-2.26,0-4.53,0-6.8,0-2,3.34-4,6.69-6.13,10q-3.53-5-7.07-10-13.53.11-27.06.41c.12,4.93.22,9.85.33,14.77q.69,31.65,1.39,63.31,6,7.29,11.8,14.63,12.6-.21,25.19-.24c0-5.12,0-10.23-.05-15.36l.41-.7c.24.4.49.8.72,1.21,2.44,3.13,4.86,6.29,7.27,9.44,1.07,1.41,2.15,2.81,3.22,4.23l.91,1.19q13.62,0,27.22.29Q478.26,109.41,466,88.31Zm-4.08,25.15h-9.27q-5.94-10.11-12-20.16l-3.46,6q.06,7.11.12,14.26-11,.08-21.92.33-.65-30.62-1.28-61.25-.15-6.4-.28-12.8,11.4-.24,22.78-.35c0,4.39.08,8.76.13,13.15,0,4.7.08,9.42.13,14.13q4.15-7.08,8.37-14.13c2.64-4.42,5.31-8.82,8-13.24,1.83,0,3.68,0,5.51,0,1.08,0,2.15,0,3.22,0,3.69,0,7.37,0,11.05.06q-4.06,6.57-8.09,13.16c-1,1.61-2,3.23-3,4.85-1.08,1.77-2.15,3.55-3.22,5.32q-3.12,5.16-6.2,10.34,3.11,5.2,6.2,10.43c1.07,1.82,2.15,3.64,3.22,5.47q7.19,12.23,14.2,24.52Q469,113.46,461.89,113.46Zm-9.42-40.33q3.11,5.2,6.2,10.43V62.79Q455.55,68,452.47,73.13Zm0,0q3.11,5.2,6.2,10.43V62.79Q455.55,68,452.47,73.13Z"/><path class="cls-1" d="M559.75,57.81c-1-.05-2-.11-3.06-.15q-.54,10.85-1.11,21.69l3.44.17c3.86.2,7.47-4.34,7.82-10.49S563.88,58,559.75,57.81Zm0,0c-1-.05-2-.11-3.06-.15q-.54,10.85-1.11,21.69l3.44.17c3.86.2,7.47-4.34,7.82-10.49S563.88,58,559.75,57.81Zm0,0c-1-.05-2-.11-3.06-.15q-.54,10.85-1.11,21.69l3.44.17c3.86.2,7.47-4.34,7.82-10.49S563.88,58,559.75,57.81Zm0,0c-1-.05-2-.11-3.06-.15q-.54,10.85-1.11,21.69l3.44.17c3.86.2,7.47-4.34,7.82-10.49S563.88,58,559.75,57.81Zm0,0c-1-.05-2-.11-3.06-.15q-.54,10.85-1.11,21.69l3.44.17c3.86.2,7.47-4.34,7.82-10.49S563.88,58,559.75,57.81Zm0,0c-1-.05-2-.11-3.06-.15q-.54,10.85-1.11,21.69l3.44.17c3.86.2,7.47-4.34,7.82-10.49S563.88,58,559.75,57.81Zm0,0c-1-.05-2-.11-3.06-.15q-.54,10.85-1.11,21.69l3.44.17c3.86.2,7.47-4.34,7.82-10.49S563.88,58,559.75,57.81Zm0,0c-1-.05-2-.11-3.06-.15q-.54,10.85-1.11,21.69l3.44.17c3.86.2,7.47-4.34,7.82-10.49S563.88,58,559.75,57.81Zm0,0c-1-.05-2-.11-3.06-.15q-.54,10.85-1.11,21.69l3.44.17c3.86.2,7.47-4.34,7.82-10.49S563.88,58,559.75,57.81Zm0,0c-1-.05-2-.11-3.06-.15q-.54,10.85-1.11,21.69l3.44.17c3.86.2,7.47-4.34,7.82-10.49S563.88,58,559.75,57.81Zm0,0c-1-.05-2-.11-3.06-.15q-.54,10.85-1.11,21.69l3.44.17c3.86.2,7.47-4.34,7.82-10.49S563.88,58,559.75,57.81Zm0,0c-1-.05-2-.11-3.06-.15q-.54,10.85-1.11,21.69l3.44.17c3.86.2,7.47-4.34,7.82-10.49S563.88,58,559.75,57.81Zm0,0c-1-.05-2-.11-3.06-.15q-.54,10.85-1.11,21.69l3.44.17c3.86.2,7.47-4.34,7.82-10.49S563.88,58,559.75,57.81Zm0,0c-1-.05-2-.11-3.06-.15q-.54,10.85-1.11,21.69l3.44.17c3.86.2,7.47-4.34,7.82-10.49S563.88,58,559.75,57.81Zm0,0c-1-.05-2-.11-3.06-.15q-.54,10.85-1.11,21.69l3.44.17c3.86.2,7.47-4.34,7.82-10.49S563.88,58,559.75,57.81Zm0,0c-1-.05-2-.11-3.06-.15q-.54,10.85-1.11,21.69l3.44.17c3.86.2,7.47-4.34,7.82-10.49S563.88,58,559.75,57.81Zm0,0c-1-.05-2-.11-3.06-.15q-.54,10.85-1.11,21.69l3.44.17c3.86.2,7.47-4.34,7.82-10.49S563.88,58,559.75,57.81Zm0,0c-1-.05-2-.11-3.06-.15q-.54,10.85-1.11,21.69l3.44.17c3.86.2,7.47-4.34,7.82-10.49S563.88,58,559.75,57.81Zm0,0c-1-.05-2-.11-3.06-.15q-.54,10.85-1.11,21.69l3.44.17c3.86.2,7.47-4.34,7.82-10.49S563.88,58,559.75,57.81Zm0,0c-1-.05-2-.11-3.06-.15q-.54,10.85-1.11,21.69l3.44.17c3.86.2,7.47-4.34,7.82-10.49S563.88,58,559.75,57.81Zm0,0c-1-.05-2-.11-3.06-.15q-.54,10.85-1.11,21.69l3.44.17c3.86.2,7.47-4.34,7.82-10.49S563.88,58,559.75,57.81Zm0,0c-1-.05-2-.11-3.06-.15q-.54,10.85-1.11,21.69l3.44.17c3.86.2,7.47-4.34,7.82-10.49S563.88,58,559.75,57.81Zm0,0c-1-.05-2-.11-3.06-.15q-.54,10.85-1.11,21.69l3.44.17c3.86.2,7.47-4.34,7.82-10.49S563.88,58,559.75,57.81Zm0,0c-1-.05-2-.11-3.06-.15q-.54,10.85-1.11,21.69l3.44.17c3.86.2,7.47-4.34,7.82-10.49S563.88,58,559.75,57.81Zm0,0c-1-.05-2-.11-3.06-.15q-.54,10.85-1.11,21.69l3.44.17c3.86.2,7.47-4.34,7.82-10.49S563.88,58,559.75,57.81Zm0,0c-1-.05-2-.11-3.06-.15q-.54,10.85-1.11,21.69l3.44.17c3.86.2,7.47-4.34,7.82-10.49S563.88,58,559.75,57.81Zm0,0c-1-.05-2-.11-3.06-.15q-.54,10.85-1.11,21.69l3.44.17c3.86.2,7.47-4.34,7.82-10.49S563.88,58,559.75,57.81Zm0,0c-1-.05-2-.11-3.06-.15q-.54,10.85-1.11,21.69l3.44.17c3.86.2,7.47-4.34,7.82-10.49S563.88,58,559.75,57.81Zm40.14,28.48a26.21,26.21,0,0,0-4.43-16.74c-8.69-13.06-9.2-14.1-9.66-14.94a20.89,20.89,0,0,0-1.33-2A29.72,29.72,0,0,0,562,40.22q-14.58-.78-29.16-1.36l-.54,13.76q-1.24,32.14-2.51,64.29,5.5,7.65,10.88,15.33,12.6.56,25.17,1.3.33-5.65.65-11.3,3.85,5.88,7.67,11.8,12,.77,24,1.66-4.7-14.62-9.57-29.27A27.66,27.66,0,0,0,599.89,86.29ZM587.71,70.23c-.54,8-5,15-11.55,19.69q4.82,14,9.45,28-10.22-.69-20.46-1.29-2.7-10.77-5.5-21.56l-4.76-.24q-.54,10.59-1.1,21.18-10.95-.56-21.91-1l2.52-62.34q.21-5.82.46-11.65,13.5.54,27,1.27a27.85,27.85,0,0,1,20.07,10.38A25.19,25.19,0,0,1,587.71,70.23Zm-28-12.42c-1-.05-2-.11-3.06-.15q-.54,10.85-1.11,21.69l3.44.17c3.86.2,7.47-4.34,7.82-10.49S563.88,58,559.75,57.81Zm0,0c-1-.05-2-.11-3.06-.15q-.54,10.85-1.11,21.69l3.44.17c3.86.2,7.47-4.34,7.82-10.49S563.88,58,559.75,57.81Zm0,0c-1-.05-2-.11-3.06-.15q-.54,10.85-1.11,21.69l3.44.17c3.86.2,7.47-4.34,7.82-10.49S563.88,58,559.75,57.81Zm0,0c-1-.05-2-.11-3.06-.15q-.54,10.85-1.11,21.69l3.44.17c3.86.2,7.47-4.34,7.82-10.49S563.88,58,559.75,57.81Zm0,0c-1-.05-2-.11-3.06-.15q-.54,10.85-1.11,21.69l3.44.17c3.86.2,7.47-4.34,7.82-10.49S563.88,58,559.75,57.81Zm0,0c-1-.05-2-.11-3.06-.15q-.54,10.85-1.11,21.69l3.44.17c3.86.2,7.47-4.34,7.82-10.49S563.88,58,559.75,57.81Zm0,0c-1-.05-2-.11-3.06-.15q-.54,10.85-1.11,21.69l3.44.17c3.86.2,7.47-4.34,7.82-10.49S563.88,58,559.75,57.81Zm0,0c-1-.05-2-.11-3.06-.15q-.54,10.85-1.11,21.69l3.44.17c3.86.2,7.47-4.34,7.82-10.49S563.88,58,559.75,57.81Zm0,0c-1-.05-2-.11-3.06-.15q-.54,10.85-1.11,21.69l3.44.17c3.86.2,7.47-4.34,7.82-10.49S563.88,58,559.75,57.81Zm0,0c-1-.05-2-.11-3.06-.15q-.54,10.85-1.11,21.69l3.44.17c3.86.2,7.47-4.34,7.82-10.49S563.88,58,559.75,57.81Zm0,0c-1-.05-2-.11-3.06-.15q-.54,10.85-1.11,21.69l3.44.17c3.86.2,7.47-4.34,7.82-10.49S563.88,58,559.75,57.81Zm0,0c-1-.05-2-.11-3.06-.15q-.54,10.85-1.11,21.69l3.44.17c3.86.2,7.47-4.34,7.82-10.49S563.88,58,559.75,57.81Zm0,0c-1-.05-2-.11-3.06-.15q-.54,10.85-1.11,21.69l3.44.17c3.86.2,7.47-4.34,7.82-10.49S563.88,58,559.75,57.81Zm0,0c-1-.05-2-.11-3.06-.15q-.54,10.85-1.11,21.69l3.44.17c3.86.2,7.47-4.34,7.82-10.49S563.88,58,559.75,57.81Zm0,0c-1-.05-2-.11-3.06-.15q-.54,10.85-1.11,21.69l3.44.17c3.86.2,7.47-4.34,7.82-10.49S563.88,58,559.75,57.81Zm0,0c-1-.05-2-.11-3.06-.15q-.54,10.85-1.11,21.69l3.44.17c3.86.2,7.47-4.34,7.82-10.49S563.88,58,559.75,57.81Zm0,0c-1-.05-2-.11-3.06-.15q-.54,10.85-1.11,21.69l3.44.17c3.86.2,7.47-4.34,7.82-10.49S563.88,58,559.75,57.81Zm0,0c-1-.05-2-.11-3.06-.15q-.54,10.85-1.11,21.69l3.44.17c3.86.2,7.47-4.34,7.82-10.49S563.88,58,559.75,57.81Zm0,0c-1-.05-2-.11-3.06-.15q-.54,10.85-1.11,21.69l3.44.17c3.86.2,7.47-4.34,7.82-10.49S563.88,58,559.75,57.81Zm0,0c-1-.05-2-.11-3.06-.15q-.54,10.85-1.11,21.69l3.44.17c3.86.2,7.47-4.34,7.82-10.49S563.88,58,559.75,57.81Zm0,0c-1-.05-2-.11-3.06-.15q-.54,10.85-1.11,21.69l3.44.17c3.86.2,7.47-4.34,7.82-10.49S563.88,58,559.75,57.81Zm0,0c-1-.05-2-.11-3.06-.15q-.54,10.85-1.11,21.69l3.44.17c3.86.2,7.47-4.34,7.82-10.49S563.88,58,559.75,57.81Zm0,0c-1-.05-2-.11-3.06-.15q-.54,10.85-1.11,21.69l3.44.17c3.86.2,7.47-4.34,7.82-10.49S563.88,58,559.75,57.81Zm0,0c-1-.05-2-.11-3.06-.15q-.54,10.85-1.11,21.69l3.44.17c3.86.2,7.47-4.34,7.82-10.49S563.88,58,559.75,57.81Zm0,0c-1-.05-2-.11-3.06-.15q-.54,10.85-1.11,21.69l3.44.17c3.86.2,7.47-4.34,7.82-10.49S563.88,58,559.75,57.81Zm0,0c-1-.05-2-.11-3.06-.15q-.54,10.85-1.11,21.69l3.44.17c3.86.2,7.47-4.34,7.82-10.49S563.88,58,559.75,57.81Zm0,0c-1-.05-2-.11-3.06-.15q-.54,10.85-1.11,21.69l3.44.17c3.86.2,7.47-4.34,7.82-10.49S563.88,58,559.75,57.81Zm0,0c-1-.05-2-.11-3.06-.15q-.54,10.85-1.11,21.69l3.44.17c3.86.2,7.47-4.34,7.82-10.49S563.88,58,559.75,57.81Zm0,0c-1-.05-2-.11-3.06-.15q-.54,10.85-1.11,21.69l3.44.17c3.86.2,7.47-4.34,7.82-10.49S563.88,58,559.75,57.81Z"/><path class="cls-1" d="M671.53,52.62c-.71-1.23-1.42-2.47-2.14-3.7q-11.92-1.29-23.87-2.44c-.2,2.05-.39,4.09-.59,6.14q-2.19,22.62-4.36,45.26a6.72,6.72,0,0,1-2,3.86l3.81-40q-2.72-4.55-5.45-9.09c-1.47-2.46-2.95-4.89-4.44-7.35Q619,44.06,605.46,43c-.25,3.19-.49,6.39-.72,9.58q-1.59,20.66-3.14,41.3a28.3,28.3,0,0,0,4.28,14.71c.69,1.48,1.68,2.55,10.43,16a32.22,32.22,0,0,0,24.22,15.1c15.12,1.48,30.22-9.79,32.7-23.74.13-1.09.24-2.18.37-3.27s.25-2.18.38-3.27q2.5-21.93,5-43.86Q675.29,59.07,671.53,52.62Zm-9.7,46.71c-2.28,13.17-16.53,23.82-30.87,22.5S603.74,108.77,603.68,94q1.61-20.68,3.19-41.35.28-3.7.56-7.41,11.37.87,22.72,1.88c-.16,1.85-.33,3.68-.49,5.53q-1.95,21.95-3.88,43.89a8.47,8.47,0,0,0,16.85,1.57q2.22-22.72,4.43-45.46c.12-1.31.25-2.61.38-3.93q9.81,1,19.61,2c-.07.64-.13,1.27-.2,1.91Q664.34,76,661.83,99.33Z"/><path class="cls-1" d="M730.28,99.54A30.37,30.37,0,0,0,728.07,95q8.26-6.39,16.61-12.7-4.41-8.31-8.92-16.63a38.52,38.52,0,0,0-21.54-13c-.54-.1-1.06-.19-1.59-.26a31.55,31.55,0,0,0-9.92.26c-11,2.05-19.58,10-20.82,20.79-.84,7.32,1.86,13.14,5.81,18q2.43,4.25,4.84,8.53-9.31,4.69-18.56,9.48c-.61.3-1.2.62-1.79.92.48.78.95,1.57,1.41,2.35q4.29,7.08,8.49,14.16c7.42,11.47,15.13,20,27.83,21.68,14.87,2,28.17-7,30.3-21a22.45,22.45,0,0,0-2.78-15C735.07,108.2,732.67,103.87,730.28,99.54Zm-.85,11.11c-1.91,13-14.32,21.5-28.43,19.67-12-1.56-19.36-8.93-25.89-19.15q8.37-4.38,16.81-8.68c1.77,3.48,4.23,11.41,10.48,12.21,2.87.38,5.75-1,6.14-3.88.73-5.41-8.94-11.76-11.73-13.94-6.9-5.24-14-13.09-12.81-23.22,1.47-12.84,14.36-21.13,28.35-19.3A32.85,32.85,0,0,1,732.8,65.3q-7.27,5.57-14.49,11.16c-1.64-2.06-4.4-6.09-8.08-6.58a4.15,4.15,0,0,0-4.85,3.65c-.56,4.4,7.13,9,9.73,11C723.65,90.52,731,99.65,729.43,110.65ZM695.69,105a40.94,40.94,0,0,0,6.76,7.69,5.91,5.91,0,0,1-3.71-2.1Q697.23,107.78,695.69,105Z"/><path class="cls-1" d="M816,70.4q-13.35-2.48-26.74-4.76c-.75,4.38-1.5,8.77-2.24,13.14-2.44-4.92-4.87-9.84-7.36-14.75q-7.16-1.19-14.33-2.32-6.23-1-12.47-1.93Q749.16,84.4,745.43,109q-2.11,14-4.24,28l4.24,7.59q2.48,4.42,4.89,8.85c5,.79,10,1.6,15,2.44,3.31.55,6.6,1.09,9.9,1.66l2.25-13.14q3.79,7.41,7.49,14.84,12.45,2.2,24.87,4.58,7.25-38.07,14.52-76.13Q820.25,79,816,70.4Zm-15.84,74.44q-10.83-2-21.67-3.86,2-11.55,4-23.1c-4.49-.77-9-1.52-13.45-2.25q-1.83,11.16-3.68,22.32c0,.26-.08.54-.13.8q-9.88-1.63-19.8-3.15l-1.92-.3c.64-4.19,1.29-8.37,1.92-12.56q4.65-30.3,9.27-60.64c3.56.53,7.11,1.1,10.66,1.65q6,.94,11.89,1.93l-5.67,34.49q6.78,1.11,13.55,2.28,3-17.24,5.92-34.46c7.52,1.3,15,2.62,22.51,4Q806.87,108.41,800.19,144.84Z"/><path class="cls-1" d="M322.92,270.79c-.81,4.75-1.62,9,2.32,9,4.35,0,7.88-5.46,9.8-9.5s4.15-7.17,5.86-7.17.81,3.74-2.83,11.11c-3.53,7-8.08,13.14-15.25,13.14-5.66,0-8-3.34-8.89-6.67a19.84,19.84,0,0,1-.51-6.67c.31-3.94,2.12-12.93,4.25-23.44-13.44.3-26.07,2.83-39.81,6.06-11.52,21.72-15.26,37.69-17.18,42.74-2.42,6-8.89,3.84-4.85-12.33,1.52-6.46,5-16.16,10.21-27.38q-5.31,1.36-10.31,3A10.11,10.11,0,0,1,244.92,260c-.71-1-5-3.94,1.21-5.86,9.2-2.73,17.48-5,25.87-6.57,14.55-28.19,28.09-58.6,49.1-58.6,16.37,0,16.77,15.46,14.35,26.07-.2.7-2.83,13.94-5.76,27.68,8.18.71,13,2.12,13.94,4.85s-5.45,2.93-15.66,2.93Zm-3.64-28.6c3.64-20.51,10.91-43.74,1.32-43.74-13.54,0-23.85,25.86-36.38,46.88C295.54,243.71,306.25,242.3,319.28,242.19Z"/><path class="cls-1" d="M392.52,273.11c-3.54,7.17-8.08,12.12-15.26,12.12-7,0-9.39-7.68-8.58-13.53-4.65,7.67-11.52,16.36-20.92,15.05-11.31-1.62-13.13-11.72-9.9-21.72,4-11.82,12.93-20.31,22.94-20.31,7.37,0,9.39,3.33,11,5.76,3.23-18.39,8.79-49.1,9.19-51,.51-2.73,1.62-5.26,4.85-5.26,3.64,0,9.2-2.72,7.28,3-2.83,9-13,62.44-15.87,72.44-.8,4.75-1.51,9,2.43,9,4.34,0,7.88-5.46,9.8-9.5s4.14-7.17,5.86-7.17S396.16,265.73,392.52,273.11Zm-22-14.35.51-2.93a3.76,3.76,0,0,1-3.33.1c-2.43-.8-1-4.85-5.76-4.85s-10.21,6.37-12.63,13.64S347.36,279,351.91,279C357.16,279,365.14,273.51,370.49,258.76Z"/><path class="cls-1" d="M402,286.85c-7.58,0-10.81-5.15-11.21-12.12-.81-8.49.3-15.56,2.32-24.45.71-2.93.71-4.95,4.24-5.66,4.35-.81,10.11-.51,8.19,5.45-2.33,7.28-4.65,13.74-4.65,21.73-.1,5.55,1.72,7.78,3.23,7.78,6.77,0,13.94-20.41,13.94-33.24,0-2.73,7.18-2.53,7.18,1.51C425.25,258.36,418.28,286.85,402,286.85Z"/><path class="cls-1" d="M465,272.81c-7.88,13.23-19.7,16.16-28.69,12.83-10.41-3.74-12.63-12.23-9.4-22.73,3.54-11.62,10.51-17.08,18.49-18.7,6.77-1.31,13.34,2.33,13,8.79-.5,7-8.89,15.26-16.57,15.26-2.83.3-4.54-.4-6.87-1.92-1.31,5.15,1,8.69,3.94,11,4.65,3.84,15.46,3.34,23.24-8.48,2.43-3.94,3.64-7.28,5.36-7.28S469.39,265.43,465,272.81Zm-25.36-15.46c-1.21,1.92-.91,3.33.71,3.84,2.73.71,6.26-1.62,8.58-4.95,1.72-1.92,1.93-5.46-.1-5.66C445.45,251.39,442.72,253,439.59,257.35Z"/><path class="cls-1" d="M511.72,269.37c-1.92,3.34-5.55,17.68-14.75,17.68-7.37,0-11.11-4.95-9.6-11.72,1.22-6.87,6.47-21.52,2-21.52-3,0-15.06,25.06-19,30.21-2,2.73-3.84,3-6.67,3-1.11,0-1.92-1.21-1.82-3.13.31-6.77,3.44-24.05,5.06-30.71.8-3.14.7-7.58,4.74-7.58,4.45,0,8.39-1.62,7,5.25-1.32,6.37-4.05,13.14-6,19.5,3.23-6.87,11.71-23.44,19.19-25,13.84-2.83,10.21,12.52,8,21.52-3,12.73-4.24,14.14-.91,14.14,3.14,0,9.1-11.21,10.71-13.34S513.54,266.14,511.72,269.37Z"/><path class="cls-1" d="M520.41,280.18c4.14,0,8.48-5.86,10.81-9.49,2.52-3.74,5.15-7.18,6.87-7.18s.2,3.94-3.84,11.12c-3.94,6.87-9.1,12.12-16.27,12.12-4.75,0-7-3-7.88-6.16a16.77,16.77,0,0,1-.81-6.17c0-1.11,1.62-11.62,2.12-14.85.71-4.85,1.82-12.12,3.34-19.9l-7.48.6c-1.92.1-3.13-2.12-3.63-3.83-.31-.51-1.52-2.63,1.21-2.63l11-.2c2.73-15.56,5.66-31.32,5.86-32.54.5-2.73,1.62-5.35,4.85-5.35,3.84,0,9-2.63,7.37,3-1.11,3.54-4.44,19-7.67,34.55,1.51-.1,2.62-.1,4.14-.1,9.7-.3,12.83-.81,13.84,1.52s-5.56,3.33-16.57,4l-2.63.2c-2.32,10.81-4.95,21.32-7,32.23C517.27,275.94,516.47,280.18,520.41,280.18Z"/><path class="cls-1" d="M580.32,267.25c-1.92,3.54-6.77,19.6-16.07,19.6-6.87,0-9.7-4.14-9.29-9.8-3.14,6.47-7,9.8-12.73,9.8-7.48,0-9.5-5.15-9-12.12.51-7.48,2.63-18.09,3.74-23.14.51-2.83.71-5.15,4.25-5.66,4.24-.81,9.39-.6,7.47,5.46-4.24,14.14-9.29,29.2-4.34,29.2,7.27,0,12.83-14.45,15.76-30.92a3,3,0,0,1,.3-1c.41-1.72,1.11-2.93,3.64-3,4,0,9.6-2.22,7.68,3.84-2.83,8.48-8.79,31.12-5.36,31.12,3.14,0,9.7-12.94,11.32-15.16S582.23,263.71,580.32,267.25Z"/><path class="cls-1" d="M609.21,251.49c.3,5.25-5.16,13.44-9.6,13.44a2.22,2.22,0,0,1-2.22-2.83c1.11-5.16,2.72-9.8.3-9.8-2.83,0-7.07,3.43-10.21,12-2.72,11.42-4.14,22.53-10.2,22.53-1,0-1.52-1-1.52-3.13-.3-6.17,1.72-15.66,4.45-31.52.5-3.14.5-6.57,4.75-6.57,4.65,0,8.79-3.94,7.37,3.43-.3,1.32-.5,2.53-.8,3.64,2.72-3.54,6.36-8.38,11.21-8.38C606.28,244.32,608.9,246.94,609.21,251.49Z"/><path class="cls-1" d="M648.1,272.81C640.22,286,628.4,289,619.41,285.64c-10.41-3.74-12.63-12.23-9.4-22.73,3.54-11.62,10.51-17.08,18.49-18.7,6.77-1.31,13.34,2.33,13,8.79-.5,7-8.89,15.26-16.57,15.26-2.83.3-4.54-.4-6.87-1.92-1.31,5.15,1,8.69,3.94,11,4.65,3.84,15.46,3.34,23.24-8.48,2.43-3.94,3.64-7.28,5.36-7.28S652.54,265.43,648.1,272.81Zm-25.36-15.46c-1.21,1.92-.91,3.33.71,3.84,2.73.71,6.26-1.62,8.59-4.95,1.71-1.92,1.92-5.46-.11-5.66C628.6,251.39,625.87,253,622.74,257.35Z"/><path class="cls-1" d="M674.26,275.84c-1.41,5.76-6.36,11.72-17.78,11.72-7.17,0-13.23-4.15-14.34-10.11-.81-4.34.9-7.27,3.63-8.48.41-.1.61-.2.71-.2a3.87,3.87,0,0,1,.2-1.22c2.83-6.87,8.69-23.64,16-22.83,4.15.5,3.74,2.93,4.85,7.88C668.61,258.06,676.18,267.86,674.26,275.84Zm-14.44-19.5c-.31-.81-.51-1.82-1.42-1.82-1.92,0-4.24,6.06-7.47,13a3.45,3.45,0,0,1-.81,1.11c2,.41,2.42,1.52,2.42,2.23,0,1.51-1.72,3.33-1.72,4.95,0,3.13,1.62,5.45,6.07,4.75,3.13-.41,5.55-3,6.66-6.17C665.68,268.16,660.62,258.46,659.82,256.34Z"/><path class="cls-1" d="M602.36,397.26l1.81-.06V363l-1.81.12Z"/></g></g></svg>