<svg xmlns="http://www.w3.org/2000/svg" viewBox="0 0 623 353.55"><defs><style>.cls-1{fill:#324e00;}</style></defs><g id="Layer_2" data-name="Layer 2"><g id="Layer_1-2" data-name="Layer 1"><path class="cls-1" d="M165,0C92.9,0,45,47.85,45,122.71,45,156,55.28,184.19,73.46,205,86,189.5,99,182,113.07,182c12.58,0,19.52,5.4,23.13,9.93,9,11.28,6.92,27.93,4.88,36.85L141,229c-.17.72-.94,4.49-1.84,8.86-.19.95-.4,2-.62,3a148.23,148.23,0,0,0,27.49,2.49,154,154,0,0,0,19-1.15c3.43-19.06,6.63-36.67,7.11-39,.78-4.17,3.75-13.64,14.35-13.64a23.56,23.56,0,0,0,3-.38c3.76-.62,9.44-1.56,13.24,2.9,2.5,2.93,3,6.85,1.38,11.66-1.32,4.22-4,16.24-6.93,30.3,43.11-17.35,69.51-58,69.51-113.37C286.71,48.53,237.83,0,165,0Zm.69,181.16c-33.85,0-54.36-24.61-54.36-62.55,0-35.55,20.85-56.06,53.67-56.06,34.18,0,55.38,24.27,55.38,62.55C220.4,160.31,199.2,181.16,165.71,181.16Z"/><path class="cls-1" d="M535.91,140.48C562.23,131.26,578,107.67,578,77.25c0-41.7-33.84-69-87.17-69-5.12,0-31.78.68-168.51.68V72.46h22.56V173H322.28V236.2H389.6c1.79-9.93,3.41-18.78,4.44-24.43.62-3.37,1-5.55,1.1-6,0,0,0-.09,0-.13.77-4.17,3.72-13.86,14.37-13.86a23.45,23.45,0,0,0,3.18-.38c3.65-.57,9.16-1.45,13,2.84,2.51,2.83,3.09,6.69,1.72,11.47a1.05,1.05,0,0,1-.05.19c-.95,3-3.41,13.77-6.94,30.34h16.74V175l-28-2v-22.9h57.77l12.64,48.53c10.26,33.5,31.45,44.78,56.4,44.78,13,0,27-3.07,40.68-7.52V172.62a17.09,17.09,0,0,1-3.76.34C564.29,173,544.12,169.54,535.91,140.48ZM486.69,96.73H409.1V72.12c60.84-.68,75.2-.68,75.88-.68,12.65,0,18.81,5.81,18.81,12S497.63,96.73,486.69,96.73Z"/><path class="cls-1" d="M115.61,307.9c-1.17,6.85-2.34,13,3.35,13,6.27,0,11.37-7.87,14.14-13.7s6-10.35,8.46-10.35,1.16,5.39-4.09,16c-5.1,10.05-11.66,18.95-22,18.95-8.16,0-11.52-4.81-12.83-9.62a28.75,28.75,0,0,1-.73-9.62c.44-5.69,3.06-18.66,6.13-33.83-19.39.44-37.61,4.09-57.44,8.75-16.62,31.34-22,54.38-24.78,61.67-3.5,8.6-12.83,5.53-7-17.79C21,322,26.1,308.05,33.53,291.86q-7.65,2-14.87,4.38A14.6,14.6,0,0,1,3.07,292.3c-1-1.46-7.29-5.68,1.74-8.45,13.27-3.94,25.22-7.15,37.32-9.48,21-40.67,40.53-84.55,70.85-84.55,23.62,0,24.2,22.3,20.7,37.61-.29,1-4.08,20.12-8.31,39.94,11.81,1,18.81,3.06,20.12,7s-7.87,4.23-22.59,4.23Zm-5.25-41.25c5.25-29.6,15.74-63.13,1.89-63.13-19.53,0-34.4,37.32-52.48,67.64C76.1,268.83,91.55,266.79,110.36,266.65Z"/><path class="cls-1" d="M216,311.25c-5.1,10.35-11.66,17.5-22,17.5-10.06,0-13.56-11.08-12.39-19.54-6.71,11.08-16.62,23.62-30.18,21.72-16.32-2.33-18.95-16.91-14.28-31.34,5.83-17.06,18.66-29.3,33.09-29.3,10.64,0,13.55,4.81,15.89,8.31,4.66-26.53,12.68-70.85,13.26-73.62.73-3.94,2.34-7.58,7-7.58,5.25,0,13.27-3.94,10.5,4.37-4.08,13-18.81,90.09-22.89,104.53-1.17,6.85-2.19,13,3.5,13,6.27,0,11.37-7.87,14.14-13.7s6-10.35,8.45-10.35S221.28,300.61,216,311.25Zm-31.78-20.7.73-4.23a5.47,5.47,0,0,1-4.81.15c-3.5-1.17-1.46-7-8.31-7-7,0-14.72,9.19-18.22,19.68s-2.77,20.56,3.79,20.56C165,319.71,176.53,311.84,184.25,290.55Z"/><path class="cls-1" d="M229.72,331.08c-10.93,0-15.59-7.44-16.18-17.49-1.16-12.25.44-22.45,3.36-35.28,1-4.23,1-7.15,6.12-8.17,6.27-1.16,14.58-.73,11.81,7.88-3.36,10.49-6.71,19.82-6.71,31.34-.14,8,2.48,11.22,4.67,11.22,9.76,0,20.11-29.44,20.11-48,0-3.93,10.35-3.64,10.35,2.19C263.25,290,253.2,331.08,229.72,331.08Z"/><path class="cls-1" d="M320.54,310.82c-11.37,19.09-28.43,23.32-41.4,18.51-15-5.39-18.22-17.64-13.56-32.8,5.1-16.77,15.16-24.64,26.68-27,9.76-1.9,19.24,3.35,18.8,12.68-.73,10.06-12.82,22-23.91,22-4.08.43-6.56-.59-9.91-2.77-1.89,7.43,1.46,12.53,5.69,15.89,6.7,5.53,22.3,4.81,33.53-12.25,3.5-5.69,5.24-10.5,7.72-10.5S327,300.17,320.54,310.82ZM284,288.51c-1.75,2.77-1.31,4.81,1,5.54,3.94,1,9-2.33,12.39-7.14,2.48-2.77,2.77-7.87-.15-8.17C292.4,279.91,288.47,282.24,284,288.51Z"/><path class="cls-1" d="M388,305.86c-2.77,4.81-8,25.51-21.28,25.51-10.65,0-16-7.14-13.86-16.91,1.76-9.91,9.33-31,2.92-31-4.37,0-21.72,36.15-27.41,43.59-2.91,3.93-5.53,4.37-9.62,4.37-1.6,0-2.77-1.75-2.62-4.52.44-9.77,4.95-34.69,7.29-44.32,1.16-4.51,1-10.93,6.85-10.93,6.41,0,12.1-2.33,10.06,7.58-1.9,9.19-5.83,18.95-8.6,28.14,4.66-9.92,16.91-33.82,27.69-36.16,20-4.08,14.73,18.08,11.52,31-4.37,18.37-6.12,20.41-1.31,20.41,4.52,0,13.12-16.18,15.45-19.24S390.65,301.19,388,305.86Z"/><path class="cls-1" d="M400.56,321.46c6,0,12.24-8.46,15.59-13.71,3.65-5.39,7.44-10.35,9.92-10.35,2.33,0,.29,5.69-5.54,16-5.69,9.91-13.12,17.49-23.47,17.49-6.85,0-10.06-4.37-11.37-8.89a24,24,0,0,1-1.17-8.89c0-1.61,2.33-16.77,3.06-21.43,1-7,2.63-17.49,4.81-28.72l-10.79.87c-2.77.15-4.51-3.06-5.24-5.53-.44-.73-2.19-3.8,1.75-3.8l15.89-.29c3.93-22.45,8.16-45.19,8.45-46.94.73-3.93,2.33-7.72,7-7.72,5.54,0,13-3.79,10.64,4.37-1.6,5.1-6.41,27.41-11.08,49.86,2.19-.15,3.79-.15,6-.15,14-.44,18.51-1.17,20,2.19s-8,4.81-23.91,5.83l-3.79.29c-3.35,15.6-7.14,30.76-10.06,46.5C396,315.33,394.87,321.46,400.56,321.46Z"/><path class="cls-1" d="M487,302.8c-2.77,5.1-9.77,28.28-23.18,28.28-9.91,0-14-6-13.41-14.14-4.52,9.33-10.06,14.14-18.37,14.14-10.79,0-13.7-7.44-13-17.49.72-10.79,3.79-26.1,5.39-33.39.73-4.08,1-7.43,6.12-8.16,6.12-1.17,13.56-.88,10.79,7.87C435.25,300.32,428,322,435.1,322c10.5,0,18.52-20.85,22.74-44.61a4.24,4.24,0,0,1,.44-1.46c.58-2.47,1.6-4.22,5.25-4.37,5.83,0,13.85-3.21,11.08,5.54-4.08,12.25-12.69,44.9-7.73,44.9,4.52,0,14-18.66,16.33-21.87S489.77,297.7,487,302.8Z"/><path class="cls-1" d="M528.68,280.06c.44,7.58-7.43,19.38-13.85,19.38a3.2,3.2,0,0,1-3.2-4.08c1.6-7.43,3.93-14.14.43-14.14-4.08,0-10.2,5-14.72,17.35-3.93,16.47-6,32.51-14.72,32.51-1.46,0-2.19-1.46-2.19-4.52-.44-8.89,2.48-22.6,6.42-45.48.72-4.52.72-9.48,6.85-9.48,6.7,0,12.68-5.68,10.64,5-.44,1.89-.73,3.64-1.17,5.25,3.94-5.11,9.19-12.1,16.18-12.1C524.46,269.71,528.25,273.5,528.68,280.06Z"/><path class="cls-1" d="M584.8,310.82c-11.37,19.09-28.42,23.32-41.4,18.51-15-5.39-18.22-17.64-13.56-32.8,5.11-16.77,15.16-24.64,26.68-27,9.77-1.9,19.24,3.35,18.81,12.68-.73,10.06-12.83,22-23.91,22-4.08.43-6.56-.59-9.91-2.77-1.9,7.43,1.45,12.53,5.68,15.89,6.71,5.53,22.31,4.81,33.53-12.25,3.5-5.69,5.25-10.5,7.73-10.5C590.78,294.63,591.22,300.17,584.8,310.82Zm-36.59-22.31c-1.75,2.77-1.31,4.81,1,5.54,3.94,1,9-2.33,12.39-7.14,2.48-2.77,2.77-7.87-.14-8.17C556.67,279.91,552.73,282.24,548.21,288.51Z"/><path class="cls-1" d="M622.55,315.19c-2,8.31-9.18,16.91-25.65,16.91-10.35,0-19.1-6-20.7-14.58-1.17-6.27,1.31-10.49,5.24-12.24.59-.15.88-.3,1-.3a5.25,5.25,0,0,1,.3-1.74c4.08-9.92,12.53-34.12,23-32.95,6,.73,5.39,4.23,7,11.37C614.39,289.53,625.32,303.67,622.55,315.19Zm-20.84-28.14c-.44-1.16-.73-2.62-2-2.62-2.77,0-6.13,8.75-10.79,18.81a4.86,4.86,0,0,1-1.17,1.6c2.92.58,3.5,2.19,3.5,3.21,0,2.18-2.48,4.81-2.48,7.14,0,4.52,2.34,7.87,8.75,6.85,4.52-.58,8-4.37,9.62-8.89C610.16,304.11,602.87,290.12,601.71,287.05Z"/></g></g></svg>