<svg xmlns="http://www.w3.org/2000/svg" viewBox="0 0 638.05 588.86"><defs><style>.cls-1{fill:#324e00;}.cls-2{fill:#fff;}</style></defs><g id="Layer_2" data-name="Layer 2"><g id="Layer_1-2" data-name="Layer 1"><path class="cls-1" d="M199.28,551.08l19.85,3.48c0,.43,0,.89-.07,1.36C212.39,554.29,205.82,552.73,199.28,551.08Z"/><path class="cls-1" d="M332.87,575.49c.68-.22,1.36-.43,2.05-.63l3.56.62A9.73,9.73,0,0,1,332.87,575.49Z"/><path class="cls-1" d="M516.52,485.75q-14.65-11.06-29.35-22.09c-18.35-13.71-36.79-27.3-55.07-41.1-4.79-3.62-9.09-4.26-15-2-3.55,1.36-9.13.76-12.45-1.22-11.74-7-23.05-14.78-34.24-22.65-6.82-4.79-13.32-5.36-20.41-.93-3,1.88-6.62,2.89-9.35,5.06-10,8-19,5.72-28.81-1-12.62-8.65-26.05-16.12-39-24.33-3.53-2.24-6-2.21-9.33.53Q236,398.82,208,421.12c-2.35,1.87-6,2.09-9.06,3.07-3.68,1.17-8.13,1.4-10.92,3.66-23.67,19.22-47.11,38.74-72,59.39l-7,5.77c3.16.35,5.26.9,7,.94a5.53,5.53,0,0,0,1.54-.13c4.34-1.05,8.9-2.12,12.69-4.35,15.07-8.87,31.59-7,47.78-6.58,4.09.11,8.1,3.89,13,6.43-7.89-9.77-.29-17.92,2.35-26.63,2.76-9.12,2.62-19.48,11.32-26.58l32.87,25.28a40.14,40.14,0,0,0,1.86-4.4c4.24-14.63,13.27-25.39,26.36-32.9,12.05-6.93,13.36-11.36,6.33-23.2-3.43-5.78-3.64-11.5-.52-18.13a24.51,24.51,0,0,1,3,1.46c6.18,4.27,12.33,8.59,18.71,13L287.91,403l16.78,9.13c3.41-8.88-5.63-6.13-7.74-9.66,2.18-3.89,5.35-4.88,8.91-2,5.48,4.41,11.43,8.63,15.61,14.12,2.69,3.52,4.27,9.55,3.33,13.79-1.5,6.71-2.93,12.73,1.76,19-9.67-4.84-20.11-8.1-23.15-20.75-3.7,11.3-10.23,19.37-21.49,23.69l14.22,2.21.06,1.13L281,459.26c.08.4.15.79.23,1.19l15.88,2.71c-8.35,7.7-19.22,7.64-26,14.25.24.62.48,1.24.73,1.87l22.76,1.27c-1.05,2.39-1.29,4.11-2,4.31-9.59,2.78-19.18,3.48-28-2.3a8.67,8.67,0,0,1-3.2-5.74c-.74-7.21-.92-14.48-1.32-21.72l-2.82-.4L248.73,471c4.25,3.6,4.91,7-.15,11.08-10.22,8.2-10,8.42,1.57,15.7l-23.73-1.08-.66-1.3,9.62-5.34c-9.95-2.37-8.16-11.25-11.51-19.07l-13.48,22.94,6.32,2.62-17.12,3.33,15.9,6.41-19,4.85,13.88,5.62c-.11.83-.21,1.66-.31,2.5-4.49.48-9,1.18-13.46,1.4-13,.63-26,.6-38.88,1.83-5.32.51-10.39,3.58-15.37,6.2,12.18-1.91,24.55-3.93,35.46,2.62,10.52,6.31,21.71,9.82,33.36,12.82,4.79,1.23,6.91,2.8,7.62,6a17.65,17.65,0,0,1,.29,4.46l26.48,4.64,30.93,5.42-26.82-6.75c19.19-5.93,38.43-8.17,54.91-18,.05-1,.09-2,.14-3l-19.55-5.69c-.2-.43-.41-.86-.62-1.28l27.75-7c.2.69.39,1.37.58,2.06l-13.73,5c-.05.4-.11.79-.17,1.19l33.33,5.81c.08,1.08.17,2.15.25,3.22-4.95,2.36-9.75,5.11-14.87,7-18,6.67-20.75,11.62-10.14,22.9l15.77,2.76,11.55,2a53.6,53.6,0,0,0,5.73-1.94c8.5-3.65,17.12-7.06,25.54-10.87,3.14-1.42,6.26-2.9,9.33-4.47C398,546.05,422.07,541,446.93,538.19c8.58-1,16.86-4.54,25.28-6.93-.13-.92-.26-1.84-.38-2.76l-24.71-6.4,4.62-5.41c-7.57-10.17-11.22-21.1-13.13-34.79l-13.39,24.62,5,3.3c-.28.6-.35,1.16-.63,1.31-6.44,3.49-11.95,10.32-21,5.52l6.09-8.83L405.26,504l7.4-6.55c-16.06-14.93-15-29,3.38-40.8,7.28-4.66,11.69-10.07,9.79-19.23-.56-2.69-.09-5.59-.09-9.92,3.31,1.38,5.72,1.92,7.59,3.24q41.42,29.14,82.73,58.45l.46.31c1.39.88,3,1.45,4.5,2.2l1-1.76Zm-341.93-7.46h-8.76c-.3-4-.57-7.62-.84-11.28l-.91.41q-.32,2.77-.65,5.56c-.58,0-1.15.11-1.35-.1-6.56-7.06-5.64-13.05,2.87-18.29,2.92-1.8,6-3.38,9.64-5.44Zm14.49-13-1.48.22c-.36-3.4-.73-6.79-1.09-10.18l-.84,0q-1,9.56-2.08,19.11l-2.52.39c-3.95-6.58-3.1-14.56-3.6-21.87a14.44,14.44,0,0,1,11.61-15.15Zm38.26-19.68c-7.06-1.85-7.13-20.45,0-30.54Zm7.42,7.78c-6.15-14.47-6.18-28.88-5-43.38.08-1.07,2.43-2,4.92-3.84V441l1.44,0V402.91C246.36,408.1,245,437.82,234.76,453.4Zm18-29.24c-.47,2.68-3,5-5.91,6.53a193.46,193.46,0,0,1-1.48-33.29l3.4,0v25.21l1.5,0c.7-9.8,1.4-19.6,2.22-29.39,0-.11,1.71-.09,4.62-.22C255.66,404,254.56,414.15,252.78,424.16Zm12.75-9.48-4.66-4.44c-.18,3-.39,6.42-.59,9.79l-.64-.08V387.59l1.69-.21,5.79,26.1Zm30.34,74.11c-5.15,8.19-19.06,10.35-34.22,7.1l-.3-1.91Zm-1.81,26c-5.64,1.58-11.53,2.3-17.33,3.34l-1.29-2.61,5.37-2.89c-.15-.5-.31-1-.47-1.49l-19.47-2.6c0-.61,0-1.23,0-1.84,3-.21,6-.58,9-.59,7.56,0,15.12,0,22.65.37,1.73.1,4.84,2.07,4.75,2.92C297,511.35,295.6,514.35,294.06,514.79Zm53.36-17.62c-.27.83-.53,1.67-.8,2.5l-32.7-5.13c0-.49,0-1,0-1.47L331,488.46l-.18-1.11-21.2-4.14c3-1.85,4.41-3.51,5.56-3.34,13.61,2,29.17-3.28,40.5,11l-19.8,2Zm-23.33,25.05c-4.4-.6-8.49-4.43-12.36-7.29-.88-.66-1-4.24-.18-5,3.25-2.78,6.73-6,10.67-7.09,5.14-1.39,10.81-1.29,16.21-1,2.25.12,4.38,2.39,6.57,3.67-.29.72-.59,1.43-.88,2.15L325,510.86c8.89,5.24,20,1.09,26.75,11.69C341.36,522.55,332.59,523.36,324.09,522.22Zm59.58.41-23.21-1.7c4.32-4.63,27.38-9,34-5.87l-12.72,3.6Zm24.9-75.7c-3.36,9.57-7.79,18.76-11.73,28.13-.19.43-.23,1.11-.55,1.27-9.12,4.57-5.45,9.77-.14,15.25l-8.41,3.91a19.52,19.52,0,0,1,1.83,2.89c.86,2.32,1.58,4.69,2.36,7-3.79,1.1-7.91,3.68-11.28,2.92-4-.91-7.33-4.7-11.63-7.72,4.11-2.56,7.41-4.61,11.61-7.24L366,487.47l12.31-8.93-15.59-2.22c.76-3.92,1.45-7.48,2.13-11l2.52.18-7.83-17.76-7.13,12.66-8-2.81,9.95,16.89c-11.21,2.88-21.81,3.79-31.82-3.17a7.08,7.08,0,0,0-3.6-1.5c-8.32-.13-8.32-.07-10.64-8.65l17.79,1.71c-2.3-7.75,2.21-11.6,7-15.79,6.16-5.36,11.67-11.47,18.79-18.59h-9.05c-.61-2.64-1.21-5.3-1.82-8l-1,.06v16.6c-3.56-1.58-3.56-1.58-4.34-15.21-1.88-.78-4.82-1.54-4.77-2,.25-2.64.41-6.36,2.12-7.6,5.89-4.25,12.4-7.62,19.68-11.92,0,5.52.56,11.05-.13,16.43-1,8,1.79,13.18,10.07,16-7-11.3.28-21.62.57-34.51,13.56,8.74,25.79,16.13,37.46,24.3C412.69,430.93,413.38,433.25,408.57,446.93Z"/><path class="cls-2" d="M314.21,580l-74.48-18.61q2.93-1.15,5.88-2.15c1.37-.47,2.74-.91,4.11-1.33l26.82,6.75,34,8.56c.89,1.15,1.59,2.49,2.37,3.72A27.25,27.25,0,0,1,314.21,580Z"/><path class="cls-1" d="M465.31,210.91c-.49-.85-1-1.71-1.48-2.56q-8.26-.9-16.54-1.69c-.14,1.42-.27,2.83-.41,4.25h1.48c.08-.91.17-1.81.26-2.72q6.79.67,13.59,1.4c0,.44-.09.88-.14,1.32Zm56.38,5q-2.6,17.06-5.17,34.11v9.52q3.22-21,6.42-42c2.47.37,4.93.76,7.39,1.14v-1.41C527.45,216.75,524.57,216.31,521.69,215.87Zm-5.17,87.39v221L366.19,562.05l-42.82,10.78-7.11,1.79-5.72-1.44-34-8.56-26.82-6.75-30.88-7.77L116,524.22V303.57q-6.92.81-13.81,1.68V535l214.06,53.88L530.33,535V304.9Q523.43,304,516.52,303.26Zm13.72-32.67q-6.86-1.12-13.72-2.18v6.23c1.14,2,2.27,4.09,3.39,6.13q5.22.83,10.42,1.69V270Zm-36.45-59.86a21.85,21.85,0,0,0-6.87.18h8C494.52,210.84,494.16,210.78,493.79,210.73Zm-52.47.18c-1-1.7-2.05-3.39-3.08-5.09q-9.35-.84-18.71-1.55c-.17,2.21-.34,4.43-.5,6.64h1.48l.39-5.13q7.88.6,15.74,1.3c-.11,1.28-.23,2.55-.34,3.83Zm-51.92-8.59q-10.11-.54-20.21-.94c-.12,3.18-.25,6.35-.37,9.53h1.47q.15-4,.32-8.07,9.36.38,18.71.88a19.32,19.32,0,0,1,13.91,7.19H405A20.6,20.6,0,0,0,389.4,202.32Zm-51.74,8.59c-2.43-3.5-4.89-7-7.35-10.49-3.42,0-6.84-.06-10.26-.07h-6.94c-1.4,2.31-2.79,4.63-4.25,6.95q-2.44-3.47-4.9-6.9-9.37.08-18.75.29c.08,3.41.15,6.82.23,10.23h1.46c-.07-3-.13-5.91-.19-8.87q7.89-.16,15.78-.24l.09,9.11h5.89q2.75-4.59,5.53-9.17h6.05c2.56,0,5.11,0,7.66,0q-2.82,4.56-5.61,9.12Zm-67.42-.86a20.67,20.67,0,0,0-17.42-8.28q-10.09.47-20.2,1.08c.16,2.69.33,5.37.49,8.06h1.47c-.13-2.25-.27-4.5-.4-6.75q9.34-.56,18.71-1a19.38,19.38,0,0,1,16.24,7.74h1.73C270.49,210.43,270.36,210.23,270.24,210.05Zm-68-5-6.11.52c-.58,1.79-1.17,3.58-1.74,5.37H196c.43-1.36.88-2.71,1.32-4.07l4.05-.34q1.17,2.2,2.32,4.41h3.75Q204.87,208,202.27,205Zm-28.79,5.89c-.87-1-1.74-2-2.62-2.93q-12.71,1.35-25.39,2.93h11.7q5.72-.66,11.42-1.28c-.18.43-.37.85-.55,1.28Zm-61.62,15.8a28.17,28.17,0,0,0-9.66-6.27V222A26.45,26.45,0,0,1,116,234.73v-4Zm-9.66,43.37v12.48a28.86,28.86,0,0,0,3.06-.32,29.35,29.35,0,0,0,10.75-4V256.9A26.42,26.42,0,0,1,102.2,270.08Z"/><path class="cls-2" d="M317.64,291.79h-2.37c-3.65,0-7.3,0-10.95.05h-2.07l-1.62,0A1741.37,1741.37,0,0,0,116,303.57q-6.92.81-13.81,1.68-23.55,2.94-47,6.53V312q23.4-3.56,47-6.48,6.9-.86,13.81-1.65A1767.73,1767.73,0,0,1,317.82,292h2.23v-.2Zm-15.06-80.88.09,9.79q2.88-4.9,5.8-9.79,2.75-4.59,5.53-9.17h6.05v-1.4h-6.94c-1.4,2.31-2.79,4.63-4.25,6.95q-2.44-3.47-4.9-6.9-9.37.08-18.75.29c.08,3.41.15,6.82.23,10.23l1,43.87q4.13,5.05,8.18,10.14,8.73-.15,17.45-.17l0-10.64.28-.49c.17.28.34.56.5.84,1.69,2.17,3.37,4.36,5,6.54l2.23,2.93V253.07h-6.42q-4.12-7-8.34-14l-2.4,4.15.09,9.88q-7.59.06-15.19.23-.45-21.21-.89-42.44c-.07-3-.13-5.91-.19-8.87q7.89-.16,15.78-.24ZM317.82,218q-2.16,3.57-4.3,7.16,2.16,3.62,4.3,7.23c.74,1.26,1.49,2.52,2.23,3.79V214.27C319.3,215.5,318.56,216.73,317.82,218Zm1.11-35.89h0ZM258.16,221.3c-.18-4.27-2.8-7.38-5.65-7.25l-2.12.1.72,15,2.38-.12C256.16,229,258.34,225.57,258.16,221.3Zm0,0c-.18-4.27-2.8-7.38-5.65-7.25l-2.12.1.72,15,2.38-.12C256.16,229,258.34,225.57,258.16,221.3Zm0,0c-.18-4.27-2.8-7.38-5.65-7.25l-2.12.1.72,15,2.38-.12C256.16,229,258.34,225.57,258.16,221.3Zm0,0c-.18-4.27-2.8-7.38-5.65-7.25l-2.12.1.72,15,2.38-.12C256.16,229,258.34,225.57,258.16,221.3Zm0,0c-.18-4.27-2.8-7.38-5.65-7.25l-2.12.1.72,15,2.38-.12C256.16,229,258.34,225.57,258.16,221.3Zm0,0c-.18-4.27-2.8-7.38-5.65-7.25l-2.12.1.72,15,2.38-.12C256.16,229,258.34,225.57,258.16,221.3Zm26.16,43.82q-4.24-9.76-8.61-19.52a19.26,19.26,0,0,0,6.42-14.67,18.17,18.17,0,0,0-4.22-11.23c-4.62-5.66-6.32-7.82-7.05-8.79-.37-.48-.5-.68-.62-.86a20.67,20.67,0,0,0-17.42-8.28q-10.09.47-20.2,1.08c.16,2.69.33,5.37.49,8.06q1.39,23,2.78,46,4.31,4.9,8.56,9.82,8.72-.48,17.43-.83c-.11-2.61-.21-5.22-.32-7.84q3.06,3.81,6.09,7.61Q276,265.32,284.32,265.12Zm-24.05-10.91Q257.65,247,255,239.73l-3.3.15q.34,7.35.7,14.69-7.59.36-15.17.81l-2.64-44.47c-.13-2.25-.27-4.5-.4-6.75q9.34-.56,18.71-1a19.38,19.38,0,0,1,16.24,7.74,17.18,17.18,0,0,1,3.5,9.78A18.6,18.6,0,0,1,266,235.07q4.28,9.3,8.44,18.63C269.73,253.84,265,254,260.27,254.21Zm-7.76-40.16-2.12.1.72,15,2.38-.12c2.67-.12,4.85-3.5,4.67-7.77S255.36,213.92,252.51,214.05Zm5.65,7.25c-.18-4.27-2.8-7.38-5.65-7.25l-2.12.1.72,15,2.38-.12C256.16,229,258.34,225.57,258.16,221.3Zm0,0c-.18-4.27-2.8-7.38-5.65-7.25l-2.12.1.72,15,2.38-.12C256.16,229,258.34,225.57,258.16,221.3Zm0,0c-.18-4.27-2.8-7.38-5.65-7.25l-2.12.1.72,15,2.38-.12C256.16,229,258.34,225.57,258.16,221.3Zm0,0c-.18-4.27-2.8-7.38-5.65-7.25l-2.12.1.72,15,2.38-.12C256.16,229,258.34,225.57,258.16,221.3ZM199.52,234c-.94,2.94-1.86,5.88-2.78,8.82l6.95-.61C202.31,239.46,200.91,236.72,199.52,234Zm0,0c-.94,2.94-1.86,5.88-2.78,8.82l6.95-.61C202.31,239.46,200.91,236.72,199.52,234Zm0,0c-.94,2.94-1.86,5.88-2.78,8.82l6.95-.61C202.31,239.46,200.91,236.72,199.52,234Zm0,0c-.94,2.94-1.86,5.88-2.78,8.82l6.95-.61C202.31,239.46,200.91,236.72,199.52,234Zm11.53-18.93-3.62-4.15q-2.56-3-5.16-5.89l-6.11.52c-.58,1.79-1.17,3.58-1.74,5.37q-7.63,23.57-14.59,47.21-4.19-4.77-8.42-9.5l-5,.55q6.44-15.69,13.23-31.33-3.08-3.47-6.17-6.93c-.87-1-1.74-2-2.62-2.93q-12.71,1.35-25.39,2.93-9.37,1.17-18.72,2.46.5,6.82,1,13.65,4.81,4.51,9.56,9.08l2.89-.38q-6.27,16-12.14,32.12,4.77,4.52,9.49,9.06,21.52-3,43.11-5.19-.18-4.31-.34-8.61c2.56,2.62,5.09,5.25,7.62,7.88q6.74-.66,13.47-1.25c.64-2.09,1.28-4.19,1.93-6.28q5.47-.46,10.93-.89c1.66,1.91,3.32,3.82,5,5.74q8.82-.66,17.63-1.19Q224.4,241,211.05,215.06Zm-80.86,51.06q8-21.56,16.63-43-8.87,1.09-17.73,2.33c-.26-3.62-.51-7.23-.76-10.85q14.4-2,28.84-3.66,5.72-.66,11.42-1.28c-.18.43-.37.85-.55,1.28q-8.85,20.7-17,41.5,9.52-1.18,19.08-2.24l.48,10.87Q150.35,263.26,130.19,266.12Zm81.17-8.95-3-5.87q-7.32.6-14.65,1.27-1,3.15-1.91,6.3-5.49.51-11,1.08,7.25-24.55,15.2-49c.43-1.36.88-2.71,1.32-4.07l4.05-.34q1.17,2.2,2.32,4.41,11.79,22.47,22.91,45.15Q219,256.57,211.36,257.17Zm-14.62-14.36,6.95-.61c-1.38-2.74-2.78-5.48-4.17-8.21C198.58,236.93,197.66,239.87,196.74,242.81Zm2.78-8.82c-.94,2.94-1.86,5.88-2.78,8.82l6.95-.61C202.31,239.46,200.91,236.72,199.52,234Zm0,0c-.94,2.94-1.86,5.88-2.78,8.82l6.95-.61C202.31,239.46,200.91,236.72,199.52,234Zm0,0c-.94,2.94-1.86,5.88-2.78,8.82l6.95-.61C202.31,239.46,200.91,236.72,199.52,234Zm0,0c-.94,2.94-1.86,5.88-2.78,8.82l6.95-.61C202.31,239.46,200.91,236.72,199.52,234Zm-98,10.41c-1-6.08-5.63-14.71-12.81-13.5-6.82,1.16-8.84,10.41-7.67,17s5.8,14.6,12.8,13.42C100.57,260.15,102.6,251,101.54,244.4ZM92.69,260a18.43,18.43,0,0,1-.79-3.34c-1-6.07.63-14.53,7.25-15.61a22.48,22.48,0,0,1,.95,3.6C101.12,251,99.28,259.79,92.69,260Zm8.85-15.58c-1-6.08-5.63-14.71-12.81-13.5-6.82,1.16-8.84,10.41-7.67,17s5.8,14.6,12.8,13.42C100.57,260.15,102.6,251,101.54,244.4ZM92.69,260a18.43,18.43,0,0,1-.79-3.34c-1-6.07.63-14.53,7.25-15.61a22.48,22.48,0,0,1,.95,3.6C101.12,251,99.28,259.79,92.69,260Zm36.07-9.07a25.89,25.89,0,0,0-7.64-15.1l-5.11-5-4.15-4.06a28.17,28.17,0,0,0-9.66-6.27,29,29,0,0,0-15.51-1.62C70.4,221.57,60.27,237,63.05,251.17A26.54,26.54,0,0,0,71.36,266q4.94,4.39,9.83,8.81a28.47,28.47,0,0,0,24.07,7.45,29.35,29.35,0,0,0,10.75-4A27.42,27.42,0,0,0,128.76,250.91Zm-12.75,6a26.42,26.42,0,0,1-13.81,13.18,28.63,28.63,0,0,1-6.54,1.9c-13.78,2.31-28.38-6.58-31.19-21.08-2.6-13.47,7-28.09,22.45-30.7A27.86,27.86,0,0,1,102.2,222,26.45,26.45,0,0,1,116,234.73a24.34,24.34,0,0,1,2.17,7.1A26.49,26.49,0,0,1,116,256.9Zm-27.28-26c-6.82,1.16-8.84,10.41-7.67,17s5.8,14.6,12.8,13.42c6.71-1.13,8.74-10.24,7.68-16.88C100.57,238.32,95.91,229.69,88.73,230.9Zm4,29.08a18.43,18.43,0,0,1-.79-3.34c-1-6.07.63-14.53,7.25-15.61a22.48,22.48,0,0,1,.95,3.6C101.12,251,99.28,259.79,92.69,260Z"/><path class="cls-2" d="M318.93,182.07h0Z"/><path class="cls-2" d="M339.54,265q-9.44-.16-18.86-.2l-.63-.83L317.82,261v-7.94h2.23q4.92,0,9.84.06-4.86-8.52-9.84-17c-.74-1.27-1.49-2.53-2.23-3.79V218c.74-1.23,1.48-2.46,2.23-3.69s1.36-2.24,2.05-3.36q2.79-4.56,5.61-9.12c-2.55,0-5.1,0-7.66,0h-2.23v-1.4h2.23c3.42,0,6.84,0,10.26.07,2.46,3.49,4.92,7,7.35,10.49l.22.32q-7.63,12.17-15,24.41Q331.4,250.25,339.54,265Z"/><path class="cls-2" d="M392.77,222.28c-.24,4.26-2.74,7.41-5.42,7.27l-2.38-.12q.39-7.52.77-15l2.12.11C390.72,214.66,393,218,392.77,222.28Z"/><path class="cls-2" d="M415.67,234.24a18.17,18.17,0,0,0-3.07-11.6c-6-9-6.37-9.77-6.69-10.35a15,15,0,0,0-.92-1.38,20.6,20.6,0,0,0-15.59-8.59q-10.11-.54-20.21-.94c-.12,3.18-.25,6.35-.37,9.53l-1.74,44.55q3.81,5.29,7.54,10.62,8.73.39,17.44.9l.45-7.83q2.67,4.08,5.31,8.18,8.32.53,16.64,1.15-3.25-10.14-6.63-20.28A19.19,19.19,0,0,0,415.67,234.24Zm-8.44-11.13a18.54,18.54,0,0,1-8,13.65q3.33,9.68,6.55,19.37-7.08-.48-14.18-.89-1.87-7.47-3.81-14.94l-3.3-.17q-.37,7.34-.76,14.68-7.59-.39-15.18-.7l1.74-43.2q.15-4,.32-8.07,9.36.38,18.71.88a19.32,19.32,0,0,1,13.91,7.19A17.47,17.47,0,0,1,407.23,223.11Z"/><path class="cls-2" d="M506,243.42a21.19,21.19,0,0,0-1.53-3.18q5.73-4.43,11.51-8.8-3.06-5.76-6.18-11.52a26.7,26.7,0,0,0-14.93-9c-.37-.07-.73-.13-1.1-.18a21.85,21.85,0,0,0-6.87.18c-7.6,1.42-13.57,6.9-14.43,14.41-.58,5.07,1.29,9.1,4,12.46q1.68,2.94,3.35,5.91c-4.3,2.17-8.6,4.36-12.86,6.57q1.74-15.19,3.47-30.39-2.57-4.49-5.17-9c-.49-.85-1-1.71-1.48-2.56q-8.26-.9-16.54-1.69c-.14,1.42-.27,2.83-.41,4.25q-1.51,15.68-3,31.36a4.66,4.66,0,0,1-1.41,2.68l2.64-27.74q-1.87-3.15-3.77-6.3c-1-1.7-2.05-3.39-3.08-5.09q-9.35-.84-18.71-1.55c-.17,2.21-.34,4.43-.5,6.64q-1.09,14.31-2.17,28.62a19.59,19.59,0,0,0,3,10.19c.48,1,1.17,1.77,7.23,11.06a22.3,22.3,0,0,0,16.78,10.46c10.48,1,20.94-6.78,22.66-16.45.09-.75.17-1.51.26-2.26,2,3.27,3.93,6.53,5.88,9.81,5.14,8,10.48,13.83,19.28,15,10.31,1.4,19.52-4.84,21-14.53A15.52,15.52,0,0,0,511,252.42Q508.52,247.92,506,243.42Zm-47.43-.14c-1.58,9.12-11.45,16.5-21.39,15.59s-18.86-9.05-18.9-19.31q1.11-14.33,2.21-28.65l.39-5.13q7.88.6,15.74,1.3c-.11,1.28-.23,2.55-.34,3.83q-1.35,15.21-2.69,30.41a5.87,5.87,0,0,0,11.68,1.09q1.53-15.75,3.07-31.5c.08-.91.17-1.81.26-2.72q6.79.67,13.59,1.4c0,.44-.09.88-.14,1.32Zm46.84,7.84c-1.32,9-9.92,14.9-19.7,13.63-8.32-1.08-13.41-6.19-17.94-13.27q5.81-3,11.65-6c1.23,2.41,2.93,7.9,7.26,8.46,2,.26,4-.67,4.26-2.69.5-3.75-6.2-8.15-8.13-9.66-4.78-3.63-9.7-9.07-8.88-16.09,1-8.9,9.95-14.64,19.65-13.37a22.73,22.73,0,0,1,14.17,7.58q-5,3.86-10,7.73c-1.14-1.43-3.05-4.22-5.6-4.56a2.88,2.88,0,0,0-3.36,2.53c-.39,3,4.94,6.22,6.74,7.59C501.43,237.17,506.53,243.5,505.43,251.12Zm-23.38-3.92a28.48,28.48,0,0,0,4.69,5.33,4.08,4.08,0,0,1-2.57-1.46C483.47,249.78,482.76,248.49,482.05,247.2Z"/><path class="cls-2" d="M530.33,304.9q-6.9-.86-13.81-1.64a1735.32,1735.32,0,0,0-184-11.4h-1.62l-2.06,0c-2.93,0-5.85,0-8.78,0h-2.23v.2h2.23a1736.5,1736.5,0,0,1,196.47,11.45q6.91.8,13.81,1.65,24.93,3.07,49.72,6.88v-.19Q555.27,308,530.33,304.9Zm35.11-81.67q-9.26-1.71-18.53-3.3-.78,4.56-1.55,9.11c-1.69-3.41-3.38-6.82-5.1-10.22q-5-.82-9.93-1.61c-2.88-.46-5.76-.9-8.64-1.34q-2.6,17.06-5.17,34.11l-2.94,19.4,2.94,5.26c1.14,2,2.27,4.09,3.39,6.13q5.22.83,10.42,1.69l6.86,1.15,1.56-9.1q2.63,5.13,5.19,10.28,8.63,1.53,17.23,3.17,5-26.37,10.06-52.75Q568.37,229.21,565.44,223.23Zm-11,51.58q-7.5-1.38-15-2.67,1.37-8,2.75-16c-3.11-.53-6.21-1-9.32-1.56L530.33,270l-.09.55q-6.86-1.12-13.72-2.18l-1.33-.21c.44-2.9.89-5.8,1.33-8.7q3.22-21,6.42-42c2.47.37,4.93.76,7.39,1.14l8.24,1.34-3.93,23.9q4.7.76,9.39,1.58,2.06-11.94,4.1-23.88,7.82,1.35,15.6,2.78Z"/><path class="cls-1" d="M638.05,214.47l-3-.64a230.86,230.86,0,0,0-46.74-5.05v-8.67a5.08,5.08,0,0,0-4-5q-76.68-12-154-17-5.1-.34-10.2-.64l-2.9-.17-1.59-.09q-48.94-2.79-98-2.78-50,0-100,2.89l-1.59.1-2.89.17c-3.4.2-6.79.42-10.19.65q-76.25,5.06-152,16.86a5.08,5.08,0,0,0-4,5v10l2.76-.26v.52A230.16,230.16,0,0,0,3,215.43l-3,.64v2.32c0,18,17,50.55,21.42,58.66C17,285,0,316.68,0,334.29v4.53l4.42-.95a215.73,215.73,0,0,1,66.35-3.75,110.86,110.86,0,0,0,15.39,2.07c3,.5,5.91,1.05,8.86,1.68l4.42.95v-2.36H96.67V312.51c1.84-.24,3.69-.47,5.53-.69q6.9-.87,13.81-1.67a1731.88,1731.88,0,0,1,177.84-11.48l1.6,0,2.12,0q5.44-.06,10.87-.08l7.82,0,8.46,0,10.88.09,2.12,0,1.59,0a1728.13,1728.13,0,0,1,177.21,11.47q6.9.81,13.81,1.67l5.52.69v26.31l4.54-.95c3-.63,6.07-1.18,9.11-1.68a116.75,116.75,0,0,0,15.81-2.07,227.79,227.79,0,0,1,68.2,3.75l4.54.95v-2.29c0-18.08-17.5-50.59-22.07-58.78,4.54-8.33,22.07-41.7,22.07-60.24ZM49.71,325.39H48.42a225.33,225.33,0,0,0-42.17,4c2.85-18.94,21-50.48,21.16-50.82l1.05-1.81-1-1.83C27.23,274.58,8,240.23,6,221A217,217,0,0,1,47,216.87v2.31C41,220,35,221.11,29.1,222.54A178,178,0,0,1,47,221v7.36c-6,.83-11.93,1.93-17.86,3.36A178,178,0,0,1,47,230.19v7.36q-9,1.24-17.86,3.36Q38,239.7,47,239.38v7.36c-6,.83-11.93,1.93-17.86,3.36A178,178,0,0,1,47,248.57v7.36a181,181,0,0,0-17.86,3.36A178,178,0,0,1,47,257.75v7.36q-9,1.25-17.86,3.36A178,178,0,0,1,47,266.94v7.36q-9,1.24-17.86,3.36A178,178,0,0,1,47,276.13v7.36c-6,.83-11.93,1.93-17.86,3.36A175.11,175.11,0,0,1,47,285.32v7.36Q38,293.91,29.1,296,38,294.82,47,294.5v7.37c-6,.83-11.93,1.92-17.86,3.35A175.1,175.1,0,0,1,47,303.7v7.36a180.92,180.92,0,0,0-17.86,3.35A175.1,175.1,0,0,1,47,312.89v6.53H47a7,7,0,0,0,.13.8c-6,.83-12.06,1.94-18,3.38A179.22,179.22,0,0,1,47.75,322a11.24,11.24,0,0,0,2.43,3.38ZM55.24,202c51.15-7.91,102.91-13.52,154.77-16.78,3.4-.22,6.81-.42,10.21-.61l2.86-.16c.56,0,1.11-.07,1.67-.09q46.47-2.53,92.89-2.53,45.38,0,90.88,2.41l1.67.1,2.86.16q5.11.27,10.23.59c52.53,3.25,105,8.89,156.77,16.91V311.78q-24.78-3.79-49.72-6.88-6.9-.86-13.81-1.64a1735.32,1735.32,0,0,0-184-11.4h-1.62l-2.06,0c-2.93,0-5.85,0-8.78,0h-4.78c-3.65,0-7.3,0-10.95.05h-2.07l-1.62,0A1741.37,1741.37,0,0,0,116,303.57q-6.92.81-13.81,1.68-23.55,2.94-47,6.53ZM91.15,329.69c-23.11-.51-37-6.92-36.67-10.36l0,0q18.3-2.83,36.64-5.25Zm453,0V314.05q18.33,2.43,36.64,5.25l0,0C581.15,322.77,567.24,329.18,544.14,329.69ZM607.86,275l-1,1.82,1,1.81c.2.35,18.3,31.89,21.16,50.83a224.65,224.65,0,0,0-42.17-4h-1.76a11.33,11.33,0,0,0,2.43-3.37,179.22,179.22,0,0,1,18.65,1.56q-9-2.16-18.05-3.39c.05-.26.1-.52.13-.79h.06V312.9a178.24,178.24,0,0,1,17.86,1.52c-5.93-1.42-11.89-2.52-17.86-3.34v-7.37a178.26,178.26,0,0,1,17.86,1.53c-5.93-1.43-11.89-2.52-17.86-3.35v-7.37a178.26,178.26,0,0,1,17.86,1.53c-5.93-1.43-11.89-2.53-17.86-3.36v-7.36q9,.33,17.86,1.53-8.9-2.13-17.86-3.35v-7.37c6,.23,11.93.72,17.86,1.54a181.52,181.52,0,0,0-17.86-3.36V267a178.26,178.26,0,0,1,17.86,1.53c-5.93-1.43-11.89-2.53-17.86-3.36v-7.36a178.26,178.26,0,0,1,17.86,1.53q-8.9-2.13-17.86-3.36v-7.36a178.28,178.28,0,0,1,17.86,1.54c-5.93-1.43-11.89-2.53-17.86-3.36V239.4a178.26,178.26,0,0,1,17.86,1.53c-5.93-1.43-11.89-2.53-17.86-3.36v-7.36q9,.33,17.86,1.53-8.9-2.13-17.86-3.36V221a175.36,175.36,0,0,1,17.86,1.53c-5.93-1.43-11.89-2.53-17.86-3.36v-2.31A217,217,0,0,1,629.25,221C627.29,240.25,608.06,274.6,607.86,275Z"/><path class="cls-1" d="M101.54,244.4c-1-6.08-5.63-14.71-12.81-13.5-6.82,1.16-8.84,10.41-7.67,17s5.8,14.6,12.8,13.42C100.57,260.15,102.6,251,101.54,244.4ZM92.69,260a18.43,18.43,0,0,1-.79-3.34c-1-6.07.63-14.53,7.25-15.61a22.48,22.48,0,0,1,.95,3.6C101.12,251,99.28,259.79,92.69,260Zm8.85-15.58c-1-6.08-5.63-14.71-12.81-13.5-6.82,1.16-8.84,10.41-7.67,17s5.8,14.6,12.8,13.42C100.57,260.15,102.6,251,101.54,244.4ZM92.69,260a18.43,18.43,0,0,1-.79-3.34c-1-6.07.63-14.53,7.25-15.61a22.48,22.48,0,0,1,.95,3.6C101.12,251,99.28,259.79,92.69,260Zm8.85-15.58c-1-6.08-5.63-14.71-12.81-13.5-6.82,1.16-8.84,10.41-7.67,17s5.8,14.6,12.8,13.42C100.57,260.15,102.6,251,101.54,244.4ZM92.69,260a18.43,18.43,0,0,1-.79-3.34c-1-6.07.63-14.53,7.25-15.61a22.48,22.48,0,0,1,.95,3.6C101.12,251,99.28,259.79,92.69,260Zm8.85-15.58c-1-6.08-5.63-14.71-12.81-13.5-6.82,1.16-8.84,10.41-7.67,17s5.8,14.6,12.8,13.42C100.57,260.15,102.6,251,101.54,244.4ZM92.69,260a18.43,18.43,0,0,1-.79-3.34c-1-6.07.63-14.53,7.25-15.61a22.48,22.48,0,0,1,.95,3.6C101.12,251,99.28,259.79,92.69,260Zm8.85-15.58c-1-6.08-5.63-14.71-12.81-13.5-6.82,1.16-8.84,10.41-7.67,17s5.8,14.6,12.8,13.42C100.57,260.15,102.6,251,101.54,244.4ZM92.69,260a18.43,18.43,0,0,1-.79-3.34c-1-6.07.63-14.53,7.25-15.61a22.48,22.48,0,0,1,.95,3.6C101.12,251,99.28,259.79,92.69,260Zm8.85-15.58c-1-6.08-5.63-14.71-12.81-13.5-6.82,1.16-8.84,10.41-7.67,17s5.8,14.6,12.8,13.42C100.57,260.15,102.6,251,101.54,244.4ZM92.69,260a18.43,18.43,0,0,1-.79-3.34c-1-6.07.63-14.53,7.25-15.61a22.48,22.48,0,0,1,.95,3.6C101.12,251,99.28,259.79,92.69,260Zm8.85-15.58c-1-6.08-5.63-14.71-12.81-13.5-6.82,1.16-8.84,10.41-7.67,17s5.8,14.6,12.8,13.42C100.57,260.15,102.6,251,101.54,244.4ZM92.69,260a18.43,18.43,0,0,1-.79-3.34c-1-6.07.63-14.53,7.25-15.61a22.48,22.48,0,0,1,.95,3.6C101.12,251,99.28,259.79,92.69,260Zm8.85-15.58c-1-6.08-5.63-14.71-12.81-13.5-6.82,1.16-8.84,10.41-7.67,17s5.8,14.6,12.8,13.42C100.57,260.15,102.6,251,101.54,244.4ZM92.69,260a18.43,18.43,0,0,1-.79-3.34c-1-6.07.63-14.53,7.25-15.61a22.48,22.48,0,0,1,.95,3.6C101.12,251,99.28,259.79,92.69,260Zm8.85-15.58c-1-6.08-5.63-14.71-12.81-13.5-6.82,1.16-8.84,10.41-7.67,17s5.8,14.6,12.8,13.42C100.57,260.15,102.6,251,101.54,244.4ZM92.69,260a18.43,18.43,0,0,1-.79-3.34c-1-6.07.63-14.53,7.25-15.61a22.48,22.48,0,0,1,.95,3.6C101.12,251,99.28,259.79,92.69,260Zm8.85-15.58c-1-6.08-5.63-14.71-12.81-13.5-6.82,1.16-8.84,10.41-7.67,17s5.8,14.6,12.8,13.42C100.57,260.15,102.6,251,101.54,244.4ZM92.69,260a18.43,18.43,0,0,1-.79-3.34c-1-6.07.63-14.53,7.25-15.61a22.48,22.48,0,0,1,.95,3.6C101.12,251,99.28,259.79,92.69,260Zm8.85-15.58c-1-6.08-5.63-14.71-12.81-13.5-6.82,1.16-8.84,10.41-7.67,17s5.8,14.6,12.8,13.42C100.57,260.15,102.6,251,101.54,244.4ZM92.69,260a18.43,18.43,0,0,1-.79-3.34c-1-6.07.63-14.53,7.25-15.61a22.48,22.48,0,0,1,.95,3.6C101.12,251,99.28,259.79,92.69,260Zm8.85-15.58c-1-6.08-5.63-14.71-12.81-13.5-6.82,1.16-8.84,10.41-7.67,17s5.8,14.6,12.8,13.42C100.57,260.15,102.6,251,101.54,244.4ZM92.69,260a18.43,18.43,0,0,1-.79-3.34c-1-6.07.63-14.53,7.25-15.61a22.48,22.48,0,0,1,.95,3.6C101.12,251,99.28,259.79,92.69,260Zm8.85-15.58c-1-6.08-5.63-14.71-12.81-13.5-6.82,1.16-8.84,10.41-7.67,17s5.8,14.6,12.8,13.42C100.57,260.15,102.6,251,101.54,244.4ZM92.69,260a18.43,18.43,0,0,1-.79-3.34c-1-6.07.63-14.53,7.25-15.61a22.48,22.48,0,0,1,.95,3.6C101.12,251,99.28,259.79,92.69,260Zm8.85-15.58c-1-6.08-5.63-14.71-12.81-13.5-6.82,1.16-8.84,10.41-7.67,17s5.8,14.6,12.8,13.42C100.57,260.15,102.6,251,101.54,244.4ZM92.69,260a18.43,18.43,0,0,1-.79-3.34c-1-6.07.63-14.53,7.25-15.61a22.48,22.48,0,0,1,.95,3.6C101.12,251,99.28,259.79,92.69,260Zm8.85-15.58c-1-6.08-5.63-14.71-12.81-13.5-6.82,1.16-8.84,10.41-7.67,17s5.8,14.6,12.8,13.42C100.57,260.15,102.6,251,101.54,244.4ZM92.69,260a18.43,18.43,0,0,1-.79-3.34c-1-6.07.63-14.53,7.25-15.61a22.48,22.48,0,0,1,.95,3.6C101.12,251,99.28,259.79,92.69,260Zm8.85-15.58c-1-6.08-5.63-14.71-12.81-13.5-6.82,1.16-8.84,10.41-7.67,17s5.8,14.6,12.8,13.42C100.57,260.15,102.6,251,101.54,244.4ZM92.69,260a18.43,18.43,0,0,1-.79-3.34c-1-6.07.63-14.53,7.25-15.61a22.48,22.48,0,0,1,.95,3.6C101.12,251,99.28,259.79,92.69,260Zm8.85-15.58c-1-6.08-5.63-14.71-12.81-13.5-6.82,1.16-8.84,10.41-7.67,17s5.8,14.6,12.8,13.42C100.57,260.15,102.6,251,101.54,244.4ZM92.69,260a18.43,18.43,0,0,1-.79-3.34c-1-6.07.63-14.53,7.25-15.61a22.48,22.48,0,0,1,.95,3.6C101.12,251,99.28,259.79,92.69,260Zm8.85-15.58c-1-6.08-5.63-14.71-12.81-13.5-6.82,1.16-8.84,10.41-7.67,17s5.8,14.6,12.8,13.42C100.57,260.15,102.6,251,101.54,244.4ZM92.69,260a18.43,18.43,0,0,1-.79-3.34c-1-6.07.63-14.53,7.25-15.61a22.48,22.48,0,0,1,.95,3.6C101.12,251,99.28,259.79,92.69,260Zm8.85-15.58c-1-6.08-5.63-14.71-12.81-13.5-6.82,1.16-8.84,10.41-7.67,17s5.8,14.6,12.8,13.42C100.57,260.15,102.6,251,101.54,244.4ZM92.69,260a18.43,18.43,0,0,1-.79-3.34c-1-6.07.63-14.53,7.25-15.61a22.48,22.48,0,0,1,.95,3.6C101.12,251,99.28,259.79,92.69,260Zm8.85-15.58c-1-6.08-5.63-14.71-12.81-13.5-6.82,1.16-8.84,10.41-7.67,17s5.8,14.6,12.8,13.42C100.57,260.15,102.6,251,101.54,244.4ZM92.69,260a18.43,18.43,0,0,1-.79-3.34c-1-6.07.63-14.53,7.25-15.61a22.48,22.48,0,0,1,.95,3.6C101.12,251,99.28,259.79,92.69,260Zm8.85-15.58c-1-6.08-5.63-14.71-12.81-13.5-6.82,1.16-8.84,10.41-7.67,17s5.8,14.6,12.8,13.42C100.57,260.15,102.6,251,101.54,244.4ZM92.69,260a18.43,18.43,0,0,1-.79-3.34c-1-6.07.63-14.53,7.25-15.61a22.48,22.48,0,0,1,.95,3.6C101.12,251,99.28,259.79,92.69,260Zm8.85-15.58c-1-6.08-5.63-14.71-12.81-13.5-6.82,1.16-8.84,10.41-7.67,17s5.8,14.6,12.8,13.42C100.57,260.15,102.6,251,101.54,244.4ZM92.69,260a18.43,18.43,0,0,1-.79-3.34c-1-6.07.63-14.53,7.25-15.61a22.48,22.48,0,0,1,.95,3.6C101.12,251,99.28,259.79,92.69,260Zm8.85-15.58c-1-6.08-5.63-14.71-12.81-13.5-6.82,1.16-8.84,10.41-7.67,17s5.8,14.6,12.8,13.42C100.57,260.15,102.6,251,101.54,244.4ZM92.69,260a18.43,18.43,0,0,1-.79-3.34c-1-6.07.63-14.53,7.25-15.61a22.48,22.48,0,0,1,.95,3.6C101.12,251,99.28,259.79,92.69,260Zm8.85-15.58c-1-6.08-5.63-14.71-12.81-13.5-6.82,1.16-8.84,10.41-7.67,17s5.8,14.6,12.8,13.42C100.57,260.15,102.6,251,101.54,244.4ZM92.69,260a18.43,18.43,0,0,1-.79-3.34c-1-6.07.63-14.53,7.25-15.61a22.48,22.48,0,0,1,.95,3.6C101.12,251,99.28,259.79,92.69,260Zm8.85-15.58c-1-6.08-5.63-14.71-12.81-13.5-6.82,1.16-8.84,10.41-7.67,17s5.8,14.6,12.8,13.42C100.57,260.15,102.6,251,101.54,244.4ZM92.69,260a18.43,18.43,0,0,1-.79-3.34c-1-6.07.63-14.53,7.25-15.61a22.48,22.48,0,0,1,.95,3.6C101.12,251,99.28,259.79,92.69,260Zm8.85-15.58c-1-6.08-5.63-14.71-12.81-13.5-6.82,1.16-8.84,10.41-7.67,17s5.8,14.6,12.8,13.42C100.57,260.15,102.6,251,101.54,244.4ZM92.69,260a18.43,18.43,0,0,1-.79-3.34c-1-6.07.63-14.53,7.25-15.61a22.48,22.48,0,0,1,.95,3.6C101.12,251,99.28,259.79,92.69,260Zm8.85-15.58c-1-6.08-5.63-14.71-12.81-13.5-6.82,1.16-8.84,10.41-7.67,17s5.8,14.6,12.8,13.42C100.57,260.15,102.6,251,101.54,244.4ZM92.69,260a18.43,18.43,0,0,1-.79-3.34c-1-6.07.63-14.53,7.25-15.61a22.48,22.48,0,0,1,.95,3.6C101.12,251,99.28,259.79,92.69,260Zm8.85-15.58c-1-6.08-5.63-14.71-12.81-13.5-6.82,1.16-8.84,10.41-7.67,17s5.8,14.6,12.8,13.42C100.57,260.15,102.6,251,101.54,244.4ZM92.69,260a18.43,18.43,0,0,1-.79-3.34c-1-6.07.63-14.53,7.25-15.61a22.48,22.48,0,0,1,.95,3.6C101.12,251,99.28,259.79,92.69,260Zm36.07-9.07a25.89,25.89,0,0,0-7.64-15.1l-5.11-5-4.15-4.06a28.17,28.17,0,0,0-9.66-6.27,29,29,0,0,0-15.51-1.62C70.4,221.57,60.27,237,63.05,251.17A26.54,26.54,0,0,0,71.36,266q4.94,4.39,9.83,8.81a28.47,28.47,0,0,0,24.07,7.45,29.35,29.35,0,0,0,10.75-4A27.42,27.42,0,0,0,128.76,250.91Zm-12.75,6a26.42,26.42,0,0,1-13.81,13.18,28.63,28.63,0,0,1-6.54,1.9c-13.78,2.31-28.38-6.58-31.19-21.08-2.6-13.47,7-28.09,22.45-30.7A27.86,27.86,0,0,1,102.2,222,26.45,26.45,0,0,1,116,234.73a24.34,24.34,0,0,1,2.17,7.1A26.49,26.49,0,0,1,116,256.9Zm-27.28-26c-6.82,1.16-8.84,10.41-7.67,17s5.8,14.6,12.8,13.42c6.71-1.13,8.74-10.24,7.68-16.88C100.57,238.32,95.91,229.69,88.73,230.9Zm4,29.08a18.43,18.43,0,0,1-.79-3.34c-1-6.07.63-14.53,7.25-15.61a22.48,22.48,0,0,1,.95,3.6C101.12,251,99.28,259.79,92.69,260Zm8.85-15.58c-1-6.08-5.63-14.71-12.81-13.5-6.82,1.16-8.84,10.41-7.67,17s5.8,14.6,12.8,13.42C100.57,260.15,102.6,251,101.54,244.4ZM92.69,260a18.43,18.43,0,0,1-.79-3.34c-1-6.07.63-14.53,7.25-15.61a22.48,22.48,0,0,1,.95,3.6C101.12,251,99.28,259.79,92.69,260Zm8.85-15.58c-1-6.08-5.63-14.71-12.81-13.5-6.82,1.16-8.84,10.41-7.67,17s5.8,14.6,12.8,13.42C100.57,260.15,102.6,251,101.54,244.4ZM92.69,260a18.43,18.43,0,0,1-.79-3.34c-1-6.07.63-14.53,7.25-15.61a22.48,22.48,0,0,1,.95,3.6C101.12,251,99.28,259.79,92.69,260Zm8.85-15.58c-1-6.08-5.63-14.71-12.81-13.5-6.82,1.16-8.84,10.41-7.67,17s5.8,14.6,12.8,13.42C100.57,260.15,102.6,251,101.54,244.4ZM92.69,260a18.43,18.43,0,0,1-.79-3.34c-1-6.07.63-14.53,7.25-15.61a22.48,22.48,0,0,1,.95,3.6C101.12,251,99.28,259.79,92.69,260Zm8.85-15.58c-1-6.08-5.63-14.71-12.81-13.5-6.82,1.16-8.84,10.41-7.67,17s5.8,14.6,12.8,13.42C100.57,260.15,102.6,251,101.54,244.4ZM92.69,260a18.43,18.43,0,0,1-.79-3.34c-1-6.07.63-14.53,7.25-15.61a22.48,22.48,0,0,1,.95,3.6C101.12,251,99.28,259.79,92.69,260Zm8.85-15.58c-1-6.08-5.63-14.71-12.81-13.5-6.82,1.16-8.84,10.41-7.67,17s5.8,14.6,12.8,13.42C100.57,260.15,102.6,251,101.54,244.4ZM92.69,260a18.43,18.43,0,0,1-.79-3.34c-1-6.07.63-14.53,7.25-15.61a22.48,22.48,0,0,1,.95,3.6C101.12,251,99.28,259.79,92.69,260Zm8.85-15.58c-1-6.08-5.63-14.71-12.81-13.5-6.82,1.16-8.84,10.41-7.67,17s5.8,14.6,12.8,13.42C100.57,260.15,102.6,251,101.54,244.4ZM92.69,260a18.43,18.43,0,0,1-.79-3.34c-1-6.07.63-14.53,7.25-15.61a22.48,22.48,0,0,1,.95,3.6C101.12,251,99.28,259.79,92.69,260Zm8.85-15.58c-1-6.08-5.63-14.71-12.81-13.5-6.82,1.16-8.84,10.41-7.67,17s5.8,14.6,12.8,13.42C100.57,260.15,102.6,251,101.54,244.4ZM92.69,260a18.43,18.43,0,0,1-.79-3.34c-1-6.07.63-14.53,7.25-15.61a22.48,22.48,0,0,1,.95,3.6C101.12,251,99.28,259.79,92.69,260Zm8.85-15.58c-1-6.08-5.63-14.71-12.81-13.5-6.82,1.16-8.84,10.41-7.67,17s5.8,14.6,12.8,13.42C100.57,260.15,102.6,251,101.54,244.4ZM92.69,260a18.43,18.43,0,0,1-.79-3.34c-1-6.07.63-14.53,7.25-15.61a22.48,22.48,0,0,1,.95,3.6C101.12,251,99.28,259.79,92.69,260Zm8.85-15.58c-1-6.08-5.63-14.71-12.81-13.5-6.82,1.16-8.84,10.41-7.67,17s5.8,14.6,12.8,13.42C100.57,260.15,102.6,251,101.54,244.4ZM92.69,260a18.43,18.43,0,0,1-.79-3.34c-1-6.07.63-14.53,7.25-15.61a22.48,22.48,0,0,1,.95,3.6C101.12,251,99.28,259.79,92.69,260Zm8.85-15.58c-1-6.08-5.63-14.71-12.81-13.5-6.82,1.16-8.84,10.41-7.67,17s5.8,14.6,12.8,13.42C100.57,260.15,102.6,251,101.54,244.4ZM92.69,260a18.43,18.43,0,0,1-.79-3.34c-1-6.07.63-14.53,7.25-15.61a22.48,22.48,0,0,1,.95,3.6C101.12,251,99.28,259.79,92.69,260Zm8.85-15.58c-1-6.08-5.63-14.71-12.81-13.5-6.82,1.16-8.84,10.41-7.67,17s5.8,14.6,12.8,13.42C100.57,260.15,102.6,251,101.54,244.4ZM92.69,260a18.43,18.43,0,0,1-.79-3.34c-1-6.07.63-14.53,7.25-15.61a22.48,22.48,0,0,1,.95,3.6C101.12,251,99.28,259.79,92.69,260Zm8.85-15.58c-1-6.08-5.63-14.71-12.81-13.5-6.82,1.16-8.84,10.41-7.67,17s5.8,14.6,12.8,13.42C100.57,260.15,102.6,251,101.54,244.4ZM92.69,260a18.43,18.43,0,0,1-.79-3.34c-1-6.07.63-14.53,7.25-15.61a22.48,22.48,0,0,1,.95,3.6C101.12,251,99.28,259.79,92.69,260Zm8.85-15.58c-1-6.08-5.63-14.71-12.81-13.5-6.82,1.16-8.84,10.41-7.67,17s5.8,14.6,12.8,13.42C100.57,260.15,102.6,251,101.54,244.4ZM92.69,260a18.43,18.43,0,0,1-.79-3.34c-1-6.07.63-14.53,7.25-15.61a22.48,22.48,0,0,1,.95,3.6C101.12,251,99.28,259.79,92.69,260Zm8.85-15.58c-1-6.08-5.63-14.71-12.81-13.5-6.82,1.16-8.84,10.41-7.67,17s5.8,14.6,12.8,13.42C100.57,260.15,102.6,251,101.54,244.4ZM92.69,260a18.43,18.43,0,0,1-.79-3.34c-1-6.07.63-14.53,7.25-15.61a22.48,22.48,0,0,1,.95,3.6C101.12,251,99.28,259.79,92.69,260Zm8.85-15.58c-1-6.08-5.63-14.71-12.81-13.5-6.82,1.16-8.84,10.41-7.67,17s5.8,14.6,12.8,13.42C100.57,260.15,102.6,251,101.54,244.4ZM92.69,260a18.43,18.43,0,0,1-.79-3.34c-1-6.07.63-14.53,7.25-15.61a22.48,22.48,0,0,1,.95,3.6C101.12,251,99.28,259.79,92.69,260Zm8.85-15.58c-1-6.08-5.63-14.71-12.81-13.5-6.82,1.16-8.84,10.41-7.67,17s5.8,14.6,12.8,13.42C100.57,260.15,102.6,251,101.54,244.4ZM92.69,260a18.43,18.43,0,0,1-.79-3.34c-1-6.07.63-14.53,7.25-15.61a22.48,22.48,0,0,1,.95,3.6C101.12,251,99.28,259.79,92.69,260Zm8.85-15.58c-1-6.08-5.63-14.71-12.81-13.5-6.82,1.16-8.84,10.41-7.67,17s5.8,14.6,12.8,13.42C100.57,260.15,102.6,251,101.54,244.4ZM92.69,260a18.43,18.43,0,0,1-.79-3.34c-1-6.07.63-14.53,7.25-15.61a22.48,22.48,0,0,1,.95,3.6C101.12,251,99.28,259.79,92.69,260Zm8.85-15.58c-1-6.08-5.63-14.71-12.81-13.5-6.82,1.16-8.84,10.41-7.67,17s5.8,14.6,12.8,13.42C100.57,260.15,102.6,251,101.54,244.4ZM92.69,260a18.43,18.43,0,0,1-.79-3.34c-1-6.07.63-14.53,7.25-15.61a22.48,22.48,0,0,1,.95,3.6C101.12,251,99.28,259.79,92.69,260Zm8.85-15.58c-1-6.08-5.63-14.71-12.81-13.5-6.82,1.16-8.84,10.41-7.67,17s5.8,14.6,12.8,13.42C100.57,260.15,102.6,251,101.54,244.4ZM92.69,260a18.43,18.43,0,0,1-.79-3.34c-1-6.07.63-14.53,7.25-15.61a22.48,22.48,0,0,1,.95,3.6C101.12,251,99.28,259.79,92.69,260Zm8.85-15.58c-1-6.08-5.63-14.71-12.81-13.5-6.82,1.16-8.84,10.41-7.67,17s5.8,14.6,12.8,13.42C100.57,260.15,102.6,251,101.54,244.4ZM92.69,260a18.43,18.43,0,0,1-.79-3.34c-1-6.07.63-14.53,7.25-15.61a22.48,22.48,0,0,1,.95,3.6C101.12,251,99.28,259.79,92.69,260Zm8.85-15.58c-1-6.08-5.63-14.71-12.81-13.5-6.82,1.16-8.84,10.41-7.67,17s5.8,14.6,12.8,13.42C100.57,260.15,102.6,251,101.54,244.4ZM92.69,260a18.43,18.43,0,0,1-.79-3.34c-1-6.07.63-14.53,7.25-15.61a22.48,22.48,0,0,1,.95,3.6C101.12,251,99.28,259.79,92.69,260Zm8.85-15.58c-1-6.08-5.63-14.71-12.81-13.5-6.82,1.16-8.84,10.41-7.67,17s5.8,14.6,12.8,13.42C100.57,260.15,102.6,251,101.54,244.4ZM92.69,260a18.43,18.43,0,0,1-.79-3.34c-1-6.07.63-14.53,7.25-15.61a22.48,22.48,0,0,1,.95,3.6C101.12,251,99.28,259.79,92.69,260Zm8.85-15.58c-1-6.08-5.63-14.71-12.81-13.5-6.82,1.16-8.84,10.41-7.67,17s5.8,14.6,12.8,13.42C100.57,260.15,102.6,251,101.54,244.4ZM92.69,260a18.43,18.43,0,0,1-.79-3.34c-1-6.07.63-14.53,7.25-15.61a22.48,22.48,0,0,1,.95,3.6C101.12,251,99.28,259.79,92.69,260Zm8.85-15.58c-1-6.08-5.63-14.71-12.81-13.5-6.82,1.16-8.84,10.41-7.67,17s5.8,14.6,12.8,13.42C100.57,260.15,102.6,251,101.54,244.4ZM92.69,260a18.43,18.43,0,0,1-.79-3.34c-1-6.07.63-14.53,7.25-15.61a22.48,22.48,0,0,1,.95,3.6C101.12,251,99.28,259.79,92.69,260Zm8.85-15.58c-1-6.08-5.63-14.71-12.81-13.5-6.82,1.16-8.84,10.41-7.67,17s5.8,14.6,12.8,13.42C100.57,260.15,102.6,251,101.54,244.4ZM92.69,260a18.43,18.43,0,0,1-.79-3.34c-1-6.07.63-14.53,7.25-15.61a22.48,22.48,0,0,1,.95,3.6C101.12,251,99.28,259.79,92.69,260Zm8.85-15.58c-1-6.08-5.63-14.71-12.81-13.5-6.82,1.16-8.84,10.41-7.67,17s5.8,14.6,12.8,13.42C100.57,260.15,102.6,251,101.54,244.4ZM92.69,260a18.43,18.43,0,0,1-.79-3.34c-1-6.07.63-14.53,7.25-15.61a22.48,22.48,0,0,1,.95,3.6C101.12,251,99.28,259.79,92.69,260Zm8.85-15.58c-1-6.08-5.63-14.71-12.81-13.5-6.82,1.16-8.84,10.41-7.67,17s5.8,14.6,12.8,13.42C100.57,260.15,102.6,251,101.54,244.4ZM92.69,260a18.43,18.43,0,0,1-.79-3.34c-1-6.07.63-14.53,7.25-15.61a22.48,22.48,0,0,1,.95,3.6C101.12,251,99.28,259.79,92.69,260Zm8.85-15.58c-1-6.08-5.63-14.71-12.81-13.5-6.82,1.16-8.84,10.41-7.67,17s5.8,14.6,12.8,13.42C100.57,260.15,102.6,251,101.54,244.4ZM92.69,260a18.43,18.43,0,0,1-.79-3.34c-1-6.07.63-14.53,7.25-15.61a22.48,22.48,0,0,1,.95,3.6C101.12,251,99.28,259.79,92.69,260Z"/><path class="cls-1" d="M180.32,263.1l-.18-4.63-.31-.35q-4.19-4.77-8.42-9.5l-5,.55q6.44-15.69,13.23-31.33-3.08-3.47-6.17-6.93c-.87-1-1.74-2-2.62-2.93q-12.71,1.35-25.39,2.93-9.37,1.17-18.72,2.46.5,6.82,1,13.65,4.81,4.51,9.56,9.08l2.89-.38q-6.27,16-12.14,32.12,4.77,4.52,9.49,9.06,21.52-3,43.11-5.19Q180.48,267.4,180.32,263.1Zm-50.13,3q8-21.56,16.63-43-8.87,1.09-17.73,2.33c-.26-3.62-.51-7.23-.76-10.85q14.4-2,28.84-3.66,5.72-.66,11.42-1.28c-.18.43-.37.85-.55,1.28q-8.85,20.7-17,41.5,9.52-1.18,19.08-2.24l.48,10.87Q150.35,263.26,130.19,266.12Z"/><path class="cls-1" d="M199.52,234c-.94,2.94-1.86,5.88-2.78,8.82l6.95-.61C202.31,239.46,200.91,236.72,199.52,234Zm0,0c-.94,2.94-1.86,5.88-2.78,8.82l6.95-.61C202.31,239.46,200.91,236.72,199.52,234Zm0,0c-.94,2.94-1.86,5.88-2.78,8.82l6.95-.61C202.31,239.46,200.91,236.72,199.52,234Zm0,0c-.94,2.94-1.86,5.88-2.78,8.82l6.95-.61C202.31,239.46,200.91,236.72,199.52,234Zm0,0c-.94,2.94-1.86,5.88-2.78,8.82l6.95-.61C202.31,239.46,200.91,236.72,199.52,234Zm0,0c-.94,2.94-1.86,5.88-2.78,8.82l6.95-.61C202.31,239.46,200.91,236.72,199.52,234Zm0,0c-.94,2.94-1.86,5.88-2.78,8.82l6.95-.61C202.31,239.46,200.91,236.72,199.52,234Zm0,0c-.94,2.94-1.86,5.88-2.78,8.82l6.95-.61C202.31,239.46,200.91,236.72,199.52,234Zm0,0c-.94,2.94-1.86,5.88-2.78,8.82l6.95-.61C202.31,239.46,200.91,236.72,199.52,234Zm0,0c-.94,2.94-1.86,5.88-2.78,8.82l6.95-.61C202.31,239.46,200.91,236.72,199.52,234Zm0,0c-.94,2.94-1.86,5.88-2.78,8.82l6.95-.61C202.31,239.46,200.91,236.72,199.52,234Zm0,0c-.94,2.94-1.86,5.88-2.78,8.82l6.95-.61C202.31,239.46,200.91,236.72,199.52,234Zm0,0c-.94,2.94-1.86,5.88-2.78,8.82l6.95-.61C202.31,239.46,200.91,236.72,199.52,234Zm0,0c-.94,2.94-1.86,5.88-2.78,8.82l6.95-.61C202.31,239.46,200.91,236.72,199.52,234Zm0,0c-.94,2.94-1.86,5.88-2.78,8.82l6.95-.61C202.31,239.46,200.91,236.72,199.52,234Zm0,0c-.94,2.94-1.86,5.88-2.78,8.82l6.95-.61C202.31,239.46,200.91,236.72,199.52,234Zm0,0c-.94,2.94-1.86,5.88-2.78,8.82l6.95-.61C202.31,239.46,200.91,236.72,199.52,234Zm0,0c-.94,2.94-1.86,5.88-2.78,8.82l6.95-.61C202.31,239.46,200.91,236.72,199.52,234Zm0,0c-.94,2.94-1.86,5.88-2.78,8.82l6.95-.61C202.31,239.46,200.91,236.72,199.52,234Zm0,0c-.94,2.94-1.86,5.88-2.78,8.82l6.95-.61C202.31,239.46,200.91,236.72,199.52,234Zm0,0c-.94,2.94-1.86,5.88-2.78,8.82l6.95-.61C202.31,239.46,200.91,236.72,199.52,234Zm0,0c-.94,2.94-1.86,5.88-2.78,8.82l6.95-.61C202.31,239.46,200.91,236.72,199.52,234Zm0,0c-.94,2.94-1.86,5.88-2.78,8.82l6.95-.61C202.31,239.46,200.91,236.72,199.52,234Zm0,0c-.94,2.94-1.86,5.88-2.78,8.82l6.95-.61C202.31,239.46,200.91,236.72,199.52,234Zm0,0c-.94,2.94-1.86,5.88-2.78,8.82l6.95-.61C202.31,239.46,200.91,236.72,199.52,234Zm0,0c-.94,2.94-1.86,5.88-2.78,8.82l6.95-.61C202.31,239.46,200.91,236.72,199.52,234Zm0,0c-.94,2.94-1.86,5.88-2.78,8.82l6.95-.61C202.31,239.46,200.91,236.72,199.52,234Zm0,0c-.94,2.94-1.86,5.88-2.78,8.82l6.95-.61C202.31,239.46,200.91,236.72,199.52,234Zm11.53-18.93-3.62-4.15q-2.56-3-5.16-5.89l-6.11.52c-.58,1.79-1.17,3.58-1.74,5.37q-7.63,23.57-14.59,47.21c-.34,1.14-.67,2.29-1,3.44l1.5,1.54c2.56,2.62,5.09,5.25,7.62,7.88q6.74-.66,13.47-1.25c.64-2.09,1.28-4.19,1.93-6.28q5.47-.46,10.93-.89c1.66,1.91,3.32,3.82,5,5.74q8.82-.66,17.63-1.19Q224.4,241,211.05,215.06Zm.31,42.11-3-5.87q-7.32.6-14.65,1.27-1,3.15-1.91,6.3-5.49.51-11,1.08,7.25-24.55,15.2-49c.43-1.36.88-2.71,1.32-4.07l4.05-.34q1.17,2.2,2.32,4.41,11.79,22.47,22.91,45.15Q219,256.57,211.36,257.17Zm-14.62-14.36,6.95-.61c-1.38-2.74-2.78-5.48-4.17-8.21C198.58,236.93,197.66,239.87,196.74,242.81Zm2.78-8.82c-.94,2.94-1.86,5.88-2.78,8.82l6.95-.61C202.31,239.46,200.91,236.72,199.52,234Zm0,0c-.94,2.94-1.86,5.88-2.78,8.82l6.95-.61C202.31,239.46,200.91,236.72,199.52,234Zm0,0c-.94,2.94-1.86,5.88-2.78,8.82l6.95-.61C202.31,239.46,200.91,236.72,199.52,234Zm0,0c-.94,2.94-1.86,5.88-2.78,8.82l6.95-.61C202.31,239.46,200.91,236.72,199.52,234Zm0,0c-.94,2.94-1.86,5.88-2.78,8.82l6.95-.61C202.31,239.46,200.91,236.72,199.52,234Zm0,0c-.94,2.94-1.86,5.88-2.78,8.82l6.95-.61C202.31,239.46,200.91,236.72,199.52,234Zm0,0c-.94,2.94-1.86,5.88-2.78,8.82l6.95-.61C202.31,239.46,200.91,236.72,199.52,234Zm0,0c-.94,2.94-1.86,5.88-2.78,8.82l6.95-.61C202.31,239.46,200.91,236.72,199.52,234Zm0,0c-.94,2.94-1.86,5.88-2.78,8.82l6.95-.61C202.31,239.46,200.91,236.72,199.52,234Zm0,0c-.94,2.94-1.86,5.88-2.78,8.82l6.95-.61C202.31,239.46,200.91,236.72,199.52,234Zm0,0c-.94,2.94-1.86,5.88-2.78,8.82l6.95-.61C202.31,239.46,200.91,236.72,199.52,234Zm0,0c-.94,2.94-1.86,5.88-2.78,8.82l6.95-.61C202.31,239.46,200.91,236.72,199.52,234Zm0,0c-.94,2.94-1.86,5.88-2.78,8.82l6.95-.61C202.31,239.46,200.91,236.72,199.52,234Zm0,0c-.94,2.94-1.86,5.88-2.78,8.82l6.95-.61C202.31,239.46,200.91,236.72,199.52,234Zm0,0c-.94,2.94-1.86,5.88-2.78,8.82l6.95-.61C202.31,239.46,200.91,236.72,199.52,234Zm0,0c-.94,2.94-1.86,5.88-2.78,8.82l6.95-.61C202.31,239.46,200.91,236.72,199.52,234Zm0,0c-.94,2.94-1.86,5.88-2.78,8.82l6.95-.61C202.31,239.46,200.91,236.72,199.52,234Zm0,0c-.94,2.94-1.86,5.88-2.78,8.82l6.95-.61C202.31,239.46,200.91,236.72,199.52,234Zm0,0c-.94,2.94-1.86,5.88-2.78,8.82l6.95-.61C202.31,239.46,200.91,236.72,199.52,234Zm0,0c-.94,2.94-1.86,5.88-2.78,8.82l6.95-.61C202.31,239.46,200.91,236.72,199.52,234Zm0,0c-.94,2.94-1.86,5.88-2.78,8.82l6.95-.61C202.31,239.46,200.91,236.72,199.52,234Zm0,0c-.94,2.94-1.86,5.88-2.78,8.82l6.95-.61C202.31,239.46,200.91,236.72,199.52,234Zm0,0c-.94,2.94-1.86,5.88-2.78,8.82l6.95-.61C202.31,239.46,200.91,236.72,199.52,234Zm0,0c-.94,2.94-1.86,5.88-2.78,8.82l6.95-.61C202.31,239.46,200.91,236.72,199.52,234Zm0,0c-.94,2.94-1.86,5.88-2.78,8.82l6.95-.61C202.31,239.46,200.91,236.72,199.52,234Zm0,0c-.94,2.94-1.86,5.88-2.78,8.82l6.95-.61C202.31,239.46,200.91,236.72,199.52,234Zm0,0c-.94,2.94-1.86,5.88-2.78,8.82l6.95-.61C202.31,239.46,200.91,236.72,199.52,234Zm0,0c-.94,2.94-1.86,5.88-2.78,8.82l6.95-.61C202.31,239.46,200.91,236.72,199.52,234Z"/><path class="cls-1" d="M258.16,221.3c-.18-4.27-2.8-7.38-5.65-7.25l-2.12.1.72,15,2.38-.12C256.16,229,258.34,225.57,258.16,221.3Zm0,0c-.18-4.27-2.8-7.38-5.65-7.25l-2.12.1.72,15,2.38-.12C256.16,229,258.34,225.57,258.16,221.3Zm0,0c-.18-4.27-2.8-7.38-5.65-7.25l-2.12.1.72,15,2.38-.12C256.16,229,258.34,225.57,258.16,221.3Zm0,0c-.18-4.27-2.8-7.38-5.65-7.25l-2.12.1.72,15,2.38-.12C256.16,229,258.34,225.57,258.16,221.3Zm0,0c-.18-4.27-2.8-7.38-5.65-7.25l-2.12.1.72,15,2.38-.12C256.16,229,258.34,225.57,258.16,221.3Zm0,0c-.18-4.27-2.8-7.38-5.65-7.25l-2.12.1.72,15,2.38-.12C256.16,229,258.34,225.57,258.16,221.3Zm0,0c-.18-4.27-2.8-7.38-5.65-7.25l-2.12.1.72,15,2.38-.12C256.16,229,258.34,225.57,258.16,221.3Zm0,0c-.18-4.27-2.8-7.38-5.65-7.25l-2.12.1.72,15,2.38-.12C256.16,229,258.34,225.57,258.16,221.3Zm0,0c-.18-4.27-2.8-7.38-5.65-7.25l-2.12.1.72,15,2.38-.12C256.16,229,258.34,225.57,258.16,221.3Zm0,0c-.18-4.27-2.8-7.38-5.65-7.25l-2.12.1.72,15,2.38-.12C256.16,229,258.34,225.57,258.16,221.3Zm0,0c-.18-4.27-2.8-7.38-5.65-7.25l-2.12.1.72,15,2.38-.12C256.16,229,258.34,225.57,258.16,221.3Zm0,0c-.18-4.27-2.8-7.38-5.65-7.25l-2.12.1.72,15,2.38-.12C256.16,229,258.34,225.57,258.16,221.3Zm0,0c-.18-4.27-2.8-7.38-5.65-7.25l-2.12.1.72,15,2.38-.12C256.16,229,258.34,225.57,258.16,221.3Zm0,0c-.18-4.27-2.8-7.38-5.65-7.25l-2.12.1.72,15,2.38-.12C256.16,229,258.34,225.57,258.16,221.3Zm0,0c-.18-4.27-2.8-7.38-5.65-7.25l-2.12.1.72,15,2.38-.12C256.16,229,258.34,225.57,258.16,221.3Zm0,0c-.18-4.27-2.8-7.38-5.65-7.25l-2.12.1.72,15,2.38-.12C256.16,229,258.34,225.57,258.16,221.3Zm0,0c-.18-4.27-2.8-7.38-5.65-7.25l-2.12.1.72,15,2.38-.12C256.16,229,258.34,225.57,258.16,221.3Zm0,0c-.18-4.27-2.8-7.38-5.65-7.25l-2.12.1.72,15,2.38-.12C256.16,229,258.34,225.57,258.16,221.3Zm0,0c-.18-4.27-2.8-7.38-5.65-7.25l-2.12.1.72,15,2.38-.12C256.16,229,258.34,225.57,258.16,221.3Zm0,0c-.18-4.27-2.8-7.38-5.65-7.25l-2.12.1.72,15,2.38-.12C256.16,229,258.34,225.57,258.16,221.3Zm0,0c-.18-4.27-2.8-7.38-5.65-7.25l-2.12.1.72,15,2.38-.12C256.16,229,258.34,225.57,258.16,221.3Zm0,0c-.18-4.27-2.8-7.38-5.65-7.25l-2.12.1.72,15,2.38-.12C256.16,229,258.34,225.57,258.16,221.3Zm0,0c-.18-4.27-2.8-7.38-5.65-7.25l-2.12.1.72,15,2.38-.12C256.16,229,258.34,225.57,258.16,221.3Zm0,0c-.18-4.27-2.8-7.38-5.65-7.25l-2.12.1.72,15,2.38-.12C256.16,229,258.34,225.57,258.16,221.3Zm0,0c-.18-4.27-2.8-7.38-5.65-7.25l-2.12.1.72,15,2.38-.12C256.16,229,258.34,225.57,258.16,221.3Zm0,0c-.18-4.27-2.8-7.38-5.65-7.25l-2.12.1.72,15,2.38-.12C256.16,229,258.34,225.57,258.16,221.3Zm0,0c-.18-4.27-2.8-7.38-5.65-7.25l-2.12.1.72,15,2.38-.12C256.16,229,258.34,225.57,258.16,221.3Zm0,0c-.18-4.27-2.8-7.38-5.65-7.25l-2.12.1.72,15,2.38-.12C256.16,229,258.34,225.57,258.16,221.3Zm26.16,43.82q-4.24-9.76-8.61-19.52a19.26,19.26,0,0,0,6.42-14.67,18.17,18.17,0,0,0-4.22-11.23c-4.62-5.66-6.32-7.82-7.05-8.79-.37-.48-.5-.68-.62-.86a20.67,20.67,0,0,0-17.42-8.28q-10.09.47-20.2,1.08c.16,2.69.33,5.37.49,8.06q1.39,23,2.78,46,4.31,4.9,8.56,9.82,8.72-.48,17.43-.83c-.11-2.61-.21-5.22-.32-7.84q3.06,3.81,6.09,7.61Q276,265.32,284.32,265.12Zm-24.05-10.91Q257.65,247,255,239.73l-3.3.15q.34,7.35.7,14.69-7.59.36-15.17.81l-2.64-44.47c-.13-2.25-.27-4.5-.4-6.75q9.34-.56,18.71-1a19.38,19.38,0,0,1,16.24,7.74,17.18,17.18,0,0,1,3.5,9.78A18.6,18.6,0,0,1,266,235.07q4.28,9.3,8.44,18.63C269.73,253.84,265,254,260.27,254.21Zm-7.76-40.16-2.12.1.72,15,2.38-.12c2.67-.12,4.85-3.5,4.67-7.77S255.36,213.92,252.51,214.05Zm5.65,7.25c-.18-4.27-2.8-7.38-5.65-7.25l-2.12.1.72,15,2.38-.12C256.16,229,258.34,225.57,258.16,221.3Zm0,0c-.18-4.27-2.8-7.38-5.65-7.25l-2.12.1.72,15,2.38-.12C256.16,229,258.34,225.57,258.16,221.3Zm0,0c-.18-4.27-2.8-7.38-5.65-7.25l-2.12.1.72,15,2.38-.12C256.16,229,258.34,225.57,258.16,221.3Zm0,0c-.18-4.27-2.8-7.38-5.65-7.25l-2.12.1.72,15,2.38-.12C256.16,229,258.34,225.57,258.16,221.3Zm0,0c-.18-4.27-2.8-7.38-5.65-7.25l-2.12.1.72,15,2.38-.12C256.16,229,258.34,225.57,258.16,221.3Zm0,0c-.18-4.27-2.8-7.38-5.65-7.25l-2.12.1.72,15,2.38-.12C256.16,229,258.34,225.57,258.16,221.3Zm0,0c-.18-4.27-2.8-7.38-5.65-7.25l-2.12.1.72,15,2.38-.12C256.16,229,258.34,225.57,258.16,221.3Zm0,0c-.18-4.27-2.8-7.38-5.65-7.25l-2.12.1.72,15,2.38-.12C256.16,229,258.34,225.57,258.16,221.3Zm0,0c-.18-4.27-2.8-7.38-5.65-7.25l-2.12.1.72,15,2.38-.12C256.16,229,258.34,225.57,258.16,221.3Zm0,0c-.18-4.27-2.8-7.38-5.65-7.25l-2.12.1.72,15,2.38-.12C256.16,229,258.34,225.57,258.16,221.3Zm0,0c-.18-4.27-2.8-7.38-5.65-7.25l-2.12.1.72,15,2.38-.12C256.16,229,258.34,225.57,258.16,221.3Zm0,0c-.18-4.27-2.8-7.38-5.65-7.25l-2.12.1.72,15,2.38-.12C256.16,229,258.34,225.57,258.16,221.3Zm0,0c-.18-4.27-2.8-7.38-5.65-7.25l-2.12.1.72,15,2.38-.12C256.16,229,258.34,225.57,258.16,221.3Zm0,0c-.18-4.27-2.8-7.38-5.65-7.25l-2.12.1.72,15,2.38-.12C256.16,229,258.34,225.57,258.16,221.3Zm0,0c-.18-4.27-2.8-7.38-5.65-7.25l-2.12.1.72,15,2.38-.12C256.16,229,258.34,225.57,258.16,221.3Zm0,0c-.18-4.27-2.8-7.38-5.65-7.25l-2.12.1.72,15,2.38-.12C256.16,229,258.34,225.57,258.16,221.3Zm0,0c-.18-4.27-2.8-7.38-5.65-7.25l-2.12.1.72,15,2.38-.12C256.16,229,258.34,225.57,258.16,221.3Zm0,0c-.18-4.27-2.8-7.38-5.65-7.25l-2.12.1.72,15,2.38-.12C256.16,229,258.34,225.57,258.16,221.3Zm0,0c-.18-4.27-2.8-7.38-5.65-7.25l-2.12.1.72,15,2.38-.12C256.16,229,258.34,225.57,258.16,221.3Zm0,0c-.18-4.27-2.8-7.38-5.65-7.25l-2.12.1.72,15,2.38-.12C256.16,229,258.34,225.57,258.16,221.3Zm0,0c-.18-4.27-2.8-7.38-5.65-7.25l-2.12.1.72,15,2.38-.12C256.16,229,258.34,225.57,258.16,221.3Zm0,0c-.18-4.27-2.8-7.38-5.65-7.25l-2.12.1.72,15,2.38-.12C256.16,229,258.34,225.57,258.16,221.3Zm0,0c-.18-4.27-2.8-7.38-5.65-7.25l-2.12.1.72,15,2.38-.12C256.16,229,258.34,225.57,258.16,221.3Zm0,0c-.18-4.27-2.8-7.38-5.65-7.25l-2.12.1.72,15,2.38-.12C256.16,229,258.34,225.57,258.16,221.3Zm0,0c-.18-4.27-2.8-7.38-5.65-7.25l-2.12.1.72,15,2.38-.12C256.16,229,258.34,225.57,258.16,221.3Zm0,0c-.18-4.27-2.8-7.38-5.65-7.25l-2.12.1.72,15,2.38-.12C256.16,229,258.34,225.57,258.16,221.3Zm0,0c-.18-4.27-2.8-7.38-5.65-7.25l-2.12.1.72,15,2.38-.12C256.16,229,258.34,225.57,258.16,221.3Zm0,0c-.18-4.27-2.8-7.38-5.65-7.25l-2.12.1.72,15,2.38-.12C256.16,229,258.34,225.57,258.16,221.3Z"/><path class="cls-1" d="M313.52,225.12q2.16,3.62,4.3,7.23V218Q315.66,221.53,313.52,225.12Zm0,0q2.16,3.62,4.3,7.23V218Q315.66,221.53,313.52,225.12Zm9.36,10.52q7.37-12.24,15-24.41l-.22-.32c-2.43-3.5-4.89-7-7.35-10.49-3.42,0-6.84-.06-10.26-.07h-6.94c-1.4,2.31-2.79,4.63-4.25,6.95q-2.44-3.47-4.9-6.9-9.37.08-18.75.29c.08,3.41.15,6.82.23,10.23l1,43.87q4.13,5.05,8.18,10.14,8.73-.15,17.45-.17l0-10.64.28-.49c.17.28.34.56.5.84,1.69,2.17,3.37,4.36,5,6.54l2.23,2.93.63.83q9.44,0,18.86.2Q331.4,250.26,322.88,235.64Zm-2.83,17.43h-6.42q-4.12-7-8.34-14l-2.4,4.15.09,9.88q-7.59.06-15.19.23-.45-21.21-.89-42.44c-.07-3-.13-5.91-.19-8.87q7.89-.16,15.78-.24l.09,9.11.09,9.79q2.88-4.9,5.8-9.79,2.75-4.59,5.53-9.17h6.05c2.56,0,5.11,0,7.66,0q-2.82,4.56-5.61,9.12c-.69,1.12-1.37,2.24-2.05,3.36s-1.49,2.46-2.23,3.69q-2.16,3.57-4.3,7.16,2.16,3.62,4.3,7.23c.74,1.26,1.49,2.52,2.23,3.79q5,8.48,9.84,17Q325,253.07,320.05,253.07Zm-6.53-27.95q2.16,3.62,4.3,7.23V218Q315.66,221.53,313.52,225.12Zm0,0q2.16,3.62,4.3,7.23V218Q315.66,221.53,313.52,225.12Z"/><path class="cls-1" d="M387.86,214.51l-2.12-.11q-.37,7.51-.77,15l2.38.12c2.68.14,5.18-3,5.42-7.27S390.72,214.66,387.86,214.51Zm0,0-2.12-.11q-.37,7.51-.77,15l2.38.12c2.68.14,5.18-3,5.42-7.27S390.72,214.66,387.86,214.51Zm0,0-2.12-.11q-.37,7.51-.77,15l2.38.12c2.68.14,5.18-3,5.42-7.27S390.72,214.66,387.86,214.51Zm0,0-2.12-.11q-.37,7.51-.77,15l2.38.12c2.68.14,5.18-3,5.42-7.27S390.72,214.66,387.86,214.51Zm0,0-2.12-.11q-.37,7.51-.77,15l2.38.12c2.68.14,5.18-3,5.42-7.27S390.72,214.66,387.86,214.51Zm0,0-2.12-.11q-.37,7.51-.77,15l2.38.12c2.68.14,5.18-3,5.42-7.27S390.72,214.66,387.86,214.51Zm0,0-2.12-.11q-.37,7.51-.77,15l2.38.12c2.68.14,5.18-3,5.42-7.27S390.72,214.66,387.86,214.51Zm0,0-2.12-.11q-.37,7.51-.77,15l2.38.12c2.68.14,5.18-3,5.42-7.27S390.72,214.66,387.86,214.51Zm0,0-2.12-.11q-.37,7.51-.77,15l2.38.12c2.68.14,5.18-3,5.42-7.27S390.72,214.66,387.86,214.51Zm0,0-2.12-.11q-.37,7.51-.77,15l2.38.12c2.68.14,5.18-3,5.42-7.27S390.72,214.66,387.86,214.51Zm0,0-2.12-.11q-.37,7.51-.77,15l2.38.12c2.68.14,5.18-3,5.42-7.27S390.72,214.66,387.86,214.51Zm0,0-2.12-.11q-.37,7.51-.77,15l2.38.12c2.68.14,5.18-3,5.42-7.27S390.72,214.66,387.86,214.51Zm0,0-2.12-.11q-.37,7.51-.77,15l2.38.12c2.68.14,5.18-3,5.42-7.27S390.72,214.66,387.86,214.51Zm0,0-2.12-.11q-.37,7.51-.77,15l2.38.12c2.68.14,5.18-3,5.42-7.27S390.72,214.66,387.86,214.51Zm0,0-2.12-.11q-.37,7.51-.77,15l2.38.12c2.68.14,5.18-3,5.42-7.27S390.72,214.66,387.86,214.51Zm0,0-2.12-.11q-.37,7.51-.77,15l2.38.12c2.68.14,5.18-3,5.42-7.27S390.72,214.66,387.86,214.51Zm0,0-2.12-.11q-.37,7.51-.77,15l2.38.12c2.68.14,5.18-3,5.42-7.27S390.72,214.66,387.86,214.51Zm0,0-2.12-.11q-.37,7.51-.77,15l2.38.12c2.68.14,5.18-3,5.42-7.27S390.72,214.66,387.86,214.51Zm0,0-2.12-.11q-.37,7.51-.77,15l2.38.12c2.68.14,5.18-3,5.42-7.27S390.72,214.66,387.86,214.51Zm0,0-2.12-.11q-.37,7.51-.77,15l2.38.12c2.68.14,5.18-3,5.42-7.27S390.72,214.66,387.86,214.51Zm0,0-2.12-.11q-.37,7.51-.77,15l2.38.12c2.68.14,5.18-3,5.42-7.27S390.72,214.66,387.86,214.51Zm0,0-2.12-.11q-.37,7.51-.77,15l2.38.12c2.68.14,5.18-3,5.42-7.27S390.72,214.66,387.86,214.51Zm0,0-2.12-.11q-.37,7.51-.77,15l2.38.12c2.68.14,5.18-3,5.42-7.27S390.72,214.66,387.86,214.51Zm0,0-2.12-.11q-.37,7.51-.77,15l2.38.12c2.68.14,5.18-3,5.42-7.27S390.72,214.66,387.86,214.51Zm0,0-2.12-.11q-.37,7.51-.77,15l2.38.12c2.68.14,5.18-3,5.42-7.27S390.72,214.66,387.86,214.51Zm0,0-2.12-.11q-.37,7.51-.77,15l2.38.12c2.68.14,5.18-3,5.42-7.27S390.72,214.66,387.86,214.51Zm0,0-2.12-.11q-.37,7.51-.77,15l2.38.12c2.68.14,5.18-3,5.42-7.27S390.72,214.66,387.86,214.51Zm0,0-2.12-.11q-.37,7.51-.77,15l2.38.12c2.68.14,5.18-3,5.42-7.27S390.72,214.66,387.86,214.51Zm27.81,19.73a18.17,18.17,0,0,0-3.07-11.6c-6-9-6.37-9.77-6.69-10.35a15,15,0,0,0-.92-1.38,20.6,20.6,0,0,0-15.59-8.59q-10.11-.54-20.21-.94c-.12,3.18-.25,6.35-.37,9.53l-1.74,44.55q3.81,5.29,7.54,10.62,8.73.39,17.44.9l.45-7.83q2.67,4.08,5.31,8.18,8.32.53,16.64,1.15-3.25-10.14-6.63-20.28A19.19,19.19,0,0,0,415.67,234.24Zm-8.44-11.13a18.54,18.54,0,0,1-8,13.65q3.33,9.68,6.55,19.37-7.08-.48-14.18-.89-1.87-7.47-3.81-14.94l-3.3-.17q-.37,7.34-.76,14.68-7.59-.39-15.18-.7l1.74-43.2q.15-4,.32-8.07,9.36.38,18.71.88a19.32,19.32,0,0,1,13.91,7.19A17.47,17.47,0,0,1,407.23,223.11Zm-19.37-8.6-2.12-.11q-.37,7.51-.77,15l2.38.12c2.68.14,5.18-3,5.42-7.27S390.72,214.66,387.86,214.51Zm0,0-2.12-.11q-.37,7.51-.77,15l2.38.12c2.68.14,5.18-3,5.42-7.27S390.72,214.66,387.86,214.51Zm0,0-2.12-.11q-.37,7.51-.77,15l2.38.12c2.68.14,5.18-3,5.42-7.27S390.72,214.66,387.86,214.51Zm0,0-2.12-.11q-.37,7.51-.77,15l2.38.12c2.68.14,5.18-3,5.42-7.27S390.72,214.66,387.86,214.51Zm0,0-2.12-.11q-.37,7.51-.77,15l2.38.12c2.68.14,5.18-3,5.42-7.27S390.72,214.66,387.86,214.51Zm0,0-2.12-.11q-.37,7.51-.77,15l2.38.12c2.68.14,5.18-3,5.42-7.27S390.72,214.66,387.86,214.51Zm0,0-2.12-.11q-.37,7.51-.77,15l2.38.12c2.68.14,5.18-3,5.42-7.27S390.72,214.66,387.86,214.51Zm0,0-2.12-.11q-.37,7.51-.77,15l2.38.12c2.68.14,5.18-3,5.42-7.27S390.72,214.66,387.86,214.51Zm0,0-2.12-.11q-.37,7.51-.77,15l2.38.12c2.68.14,5.18-3,5.42-7.27S390.72,214.66,387.86,214.51Zm0,0-2.12-.11q-.37,7.51-.77,15l2.38.12c2.68.14,5.18-3,5.42-7.27S390.72,214.66,387.86,214.51Zm0,0-2.12-.11q-.37,7.51-.77,15l2.38.12c2.68.14,5.18-3,5.42-7.27S390.72,214.66,387.86,214.51Zm0,0-2.12-.11q-.37,7.51-.77,15l2.38.12c2.68.14,5.18-3,5.42-7.27S390.72,214.66,387.86,214.51Zm0,0-2.12-.11q-.37,7.51-.77,15l2.38.12c2.68.14,5.18-3,5.42-7.27S390.72,214.66,387.86,214.51Zm0,0-2.12-.11q-.37,7.51-.77,15l2.38.12c2.68.14,5.18-3,5.42-7.27S390.72,214.66,387.86,214.51Zm0,0-2.12-.11q-.37,7.51-.77,15l2.38.12c2.68.14,5.18-3,5.42-7.27S390.72,214.66,387.86,214.51Zm0,0-2.12-.11q-.37,7.51-.77,15l2.38.12c2.68.14,5.18-3,5.42-7.27S390.72,214.66,387.86,214.51Zm0,0-2.12-.11q-.37,7.51-.77,15l2.38.12c2.68.14,5.18-3,5.42-7.27S390.72,214.66,387.86,214.51Zm0,0-2.12-.11q-.37,7.51-.77,15l2.38.12c2.68.14,5.18-3,5.42-7.27S390.72,214.66,387.86,214.51Zm0,0-2.12-.11q-.37,7.51-.77,15l2.38.12c2.68.14,5.18-3,5.42-7.27S390.72,214.66,387.86,214.51Zm0,0-2.12-.11q-.37,7.51-.77,15l2.38.12c2.68.14,5.18-3,5.42-7.27S390.72,214.66,387.86,214.51Zm0,0-2.12-.11q-.37,7.51-.77,15l2.38.12c2.68.14,5.18-3,5.42-7.27S390.72,214.66,387.86,214.51Zm0,0-2.12-.11q-.37,7.51-.77,15l2.38.12c2.68.14,5.18-3,5.42-7.27S390.72,214.66,387.86,214.51Zm0,0-2.12-.11q-.37,7.51-.77,15l2.38.12c2.68.14,5.18-3,5.42-7.27S390.72,214.66,387.86,214.51Zm0,0-2.12-.11q-.37,7.51-.77,15l2.38.12c2.68.14,5.18-3,5.42-7.27S390.72,214.66,387.86,214.51Zm0,0-2.12-.11q-.37,7.51-.77,15l2.38.12c2.68.14,5.18-3,5.42-7.27S390.72,214.66,387.86,214.51Zm0,0-2.12-.11q-.37,7.51-.77,15l2.38.12c2.68.14,5.18-3,5.42-7.27S390.72,214.66,387.86,214.51Zm0,0-2.12-.11q-.37,7.51-.77,15l2.38.12c2.68.14,5.18-3,5.42-7.27S390.72,214.66,387.86,214.51Zm0,0-2.12-.11q-.37,7.51-.77,15l2.38.12c2.68.14,5.18-3,5.42-7.27S390.72,214.66,387.86,214.51Zm0,0-2.12-.11q-.37,7.51-.77,15l2.38.12c2.68.14,5.18-3,5.42-7.27S390.72,214.66,387.86,214.51Z"/><path class="cls-1" d="M465.31,210.91c-.49-.85-1-1.71-1.48-2.56q-8.26-.9-16.54-1.69c-.14,1.42-.27,2.83-.41,4.25q-1.51,15.68-3,31.36a4.66,4.66,0,0,1-1.41,2.68l2.64-27.74q-1.87-3.15-3.77-6.3c-1-1.7-2.05-3.39-3.08-5.09q-9.35-.84-18.71-1.55c-.17,2.21-.34,4.43-.5,6.64q-1.09,14.31-2.17,28.62a19.59,19.59,0,0,0,3,10.19c.48,1,1.17,1.77,7.23,11.06a22.3,22.3,0,0,0,16.78,10.46c10.48,1,20.94-6.78,22.66-16.45.09-.75.17-1.51.26-2.26s.17-1.51.26-2.27q1.74-15.19,3.47-30.39Q467.92,215.39,465.31,210.91Zm-6.72,32.37c-1.58,9.12-11.45,16.5-21.39,15.59s-18.86-9.05-18.9-19.31q1.11-14.33,2.21-28.65l.39-5.13q7.88.6,15.74,1.3c-.11,1.28-.23,2.55-.34,3.83q-1.35,15.21-2.69,30.41a5.87,5.87,0,0,0,11.68,1.09q1.53-15.75,3.07-31.5c.08-.91.17-1.81.26-2.72q6.79.67,13.59,1.4c0,.44-.09.88-.14,1.32Z"/><path class="cls-1" d="M506,243.42a21.19,21.19,0,0,0-1.53-3.18q5.73-4.43,11.51-8.8-3.06-5.76-6.18-11.52a26.7,26.7,0,0,0-14.93-9c-.37-.07-.73-.13-1.1-.18a21.85,21.85,0,0,0-6.87.18c-7.6,1.42-13.57,6.9-14.43,14.41-.58,5.07,1.29,9.1,4,12.46q1.68,2.94,3.35,5.91c-4.3,2.17-8.6,4.36-12.86,6.57l-1.24.64,1,1.63c2,3.27,3.93,6.53,5.88,9.81,5.14,8,10.48,13.83,19.28,15,10.31,1.4,19.52-4.84,21-14.53A15.52,15.52,0,0,0,511,252.42Q508.52,247.92,506,243.42Zm-.59,7.7c-1.32,9-9.92,14.9-19.7,13.63-8.32-1.08-13.41-6.19-17.94-13.27q5.81-3,11.65-6c1.23,2.41,2.93,7.9,7.26,8.46,2,.26,4-.67,4.26-2.69.5-3.75-6.2-8.15-8.13-9.66-4.78-3.63-9.7-9.07-8.88-16.09,1-8.9,9.95-14.64,19.65-13.37a22.73,22.73,0,0,1,14.17,7.58q-5,3.86-10,7.73c-1.14-1.43-3.05-4.22-5.6-4.56a2.88,2.88,0,0,0-3.36,2.53c-.39,3,4.94,6.22,6.74,7.59C501.43,237.17,506.53,243.5,505.43,251.12Zm-23.38-3.92a28.48,28.48,0,0,0,4.69,5.33,4.08,4.08,0,0,1-2.57-1.46C483.47,249.78,482.76,248.49,482.05,247.2Z"/><path class="cls-1" d="M565.44,223.23q-9.26-1.71-18.53-3.3-.78,4.56-1.55,9.11c-1.69-3.41-3.38-6.82-5.1-10.22q-5-.82-9.93-1.61c-2.88-.46-5.76-.9-8.64-1.34q-2.6,17.06-5.17,34.11l-2.94,19.4,2.94,5.26c1.14,2,2.27,4.09,3.39,6.13q5.22.83,10.42,1.69l6.86,1.15,1.56-9.1q2.63,5.13,5.19,10.28,8.63,1.53,17.23,3.17,5-26.37,10.06-52.75Q568.37,229.21,565.44,223.23Zm-11,51.58q-7.5-1.38-15-2.67,1.37-8,2.75-16c-3.11-.53-6.21-1-9.32-1.56L530.33,270l-.09.55q-6.86-1.12-13.72-2.18l-1.33-.21c.44-2.9.89-5.8,1.33-8.7q3.22-21,6.42-42c2.47.37,4.93.76,7.39,1.14l8.24,1.34-3.93,23.9q4.7.76,9.39,1.58,2.06-11.94,4.1-23.88,7.82,1.35,15.6,2.78Z"/><path class="cls-1" d="M223.76,362.08c-.56,3.29-1.13,6.23,1.61,6.23,3,0,5.46-3.78,6.79-6.58s2.87-5,4.06-5,.56,2.59-2,7.7c-2.45,4.83-5.6,9.1-10.57,9.1a5.83,5.83,0,0,1-6.17-4.62,13.8,13.8,0,0,1-.35-4.62c.21-2.73,1.47-9,2.94-16.24-9.31.21-18.06,2-27.58,4.2-8,15.05-10.57,26.11-11.9,29.61-1.68,4.13-6.16,2.66-3.36-8.54a110.49,110.49,0,0,1,7.07-19q-3.68.94-7.14,2.1a7,7,0,0,1-7.49-1.89c-.49-.7-3.5-2.73.84-4.06,6.37-1.89,12.11-3.43,17.92-4.55,10.08-19.53,19.46-40.6,34-40.6,11.34,0,11.62,10.71,9.94,18.06-.14.49-2,9.66-4,19.18,5.67.49,9,1.47,9.66,3.36s-3.78,2-10.85,2Zm-2.52-19.81c2.52-14.21,7.56-30.31.91-30.31-9.39,0-16.53,17.92-25.21,32.48A172.16,172.16,0,0,1,221.24,342.27Z"/><path class="cls-1" d="M272,363.69c-2.45,5-5.6,8.4-10.57,8.4s-6.51-5.32-6-9.38c-3.22,5.32-8,11.34-14.49,10.43-7.84-1.12-9.1-8.12-6.86-15.05,2.8-8.19,9-14.07,15.89-14.07,5.11,0,6.51,2.31,7.63,4,2.24-12.74,6.09-34,6.37-35.35.35-1.89,1.12-3.64,3.36-3.64,2.52,0,6.37-1.89,5,2.1-2,6.23-9,43.26-11,50.19-.56,3.29-1.05,6.23,1.68,6.23,3,0,5.46-3.78,6.79-6.58s2.87-5,4.06-5S274.5,358.58,272,363.69Zm-15.26-9.94.35-2a2.63,2.63,0,0,1-2.31.07c-1.68-.56-.7-3.36-4-3.36s-7.07,4.41-8.75,9.45-1.33,9.87,1.82,9.87C247.48,367.75,253,364,256.72,353.75Z"/><path class="cls-1" d="M278.56,373.21c-5.25,0-7.49-3.57-7.77-8.4-.56-5.88.21-10.78,1.61-16.94.49-2,.49-3.43,2.94-3.92,3-.56,7-.35,5.67,3.78-1.61,5-3.22,9.52-3.22,15-.07,3.85,1.19,5.39,2.24,5.39,4.69,0,9.66-14.14,9.66-23,0-1.89,5-1.75,5,1.05C294.66,353.47,289.83,373.21,278.56,373.21Z"/><path class="cls-1" d="M322.17,363.48c-5.46,9.17-13.65,11.2-19.88,8.89-7.21-2.59-8.75-8.47-6.51-15.75,2.45-8.05,7.28-11.83,12.81-12.95,4.69-.91,9.24,1.61,9,6.09-.35,4.83-6.16,10.57-11.48,10.57a6.47,6.47,0,0,1-4.76-1.33,7,7,0,0,0,2.73,7.63c3.22,2.66,10.71,2.31,16.1-5.88,1.68-2.73,2.52-5,3.71-5S325.25,358.37,322.17,363.48ZM304.6,352.77c-.84,1.33-.63,2.31.49,2.66,1.89.49,4.34-1.12,6-3.43,1.19-1.33,1.33-3.78-.07-3.92C308.66,348.64,306.77,349.76,304.6,352.77Z"/><path class="cls-1" d="M354.58,361.1c-1.33,2.31-3.85,12.25-10.22,12.25-5.11,0-7.7-3.43-6.65-8.12.84-4.76,4.48-14.91,1.4-14.91-2.1,0-10.43,17.36-13.16,20.93-1.4,1.89-2.66,2.1-4.62,2.1-.77,0-1.33-.84-1.26-2.17.21-4.69,2.38-16.66,3.5-21.28.56-2.17.49-5.25,3.29-5.25,3.08,0,5.81-1.12,4.83,3.64-.91,4.41-2.8,9.1-4.13,13.51,2.24-4.76,8.12-16.24,13.3-17.36,9.59-2,7.07,8.68,5.53,14.91-2.1,8.82-2.94,9.8-.63,9.8s6.3-7.77,7.42-9.24S355.84,358.86,354.58,361.1Z"/><path class="cls-1" d="M360.6,368.59c2.87,0,5.88-4.06,7.49-6.58s3.57-5,4.76-5,.14,2.73-2.66,7.7c-2.73,4.76-6.3,8.4-11.27,8.4a5.39,5.39,0,0,1-5.46-4.27,11.5,11.5,0,0,1-.56-4.27c0-.77,1.12-8.05,1.47-10.29.49-3.36,1.26-8.4,2.31-13.79l-5.18.42c-1.33.07-2.17-1.47-2.52-2.66-.21-.35-1.06-1.82.84-1.82l7.63-.14c1.89-10.78,3.92-21.7,4.06-22.54.35-1.89,1.12-3.71,3.36-3.71,2.66,0,6.23-1.82,5.11,2.1-.77,2.45-3.08,13.16-5.32,23.94,1-.07,1.82-.07,2.87-.07,6.72-.21,8.89-.56,9.59,1s-3.85,2.31-11.48,2.8l-1.82.14c-1.61,7.49-3.43,14.77-4.83,22.33C358.43,365.65,357.87,368.59,360.6,368.59Z"/><path class="cls-1" d="M402.11,359.63c-1.33,2.45-4.69,13.58-11.13,13.58-4.76,0-6.72-2.87-6.44-6.79-2.17,4.48-4.83,6.79-8.82,6.79-5.18,0-6.59-3.57-6.23-8.4a128.19,128.19,0,0,1,2.59-16c.35-2,.49-3.57,2.94-3.92,2.94-.56,6.51-.42,5.18,3.78-2.94,9.8-6.44,20.23-3,20.23,5,0,8.89-10,10.92-21.42a2.05,2.05,0,0,1,.21-.7,2.32,2.32,0,0,1,2.52-2.1c2.8,0,6.65-1.54,5.32,2.66-2,5.88-6.09,21.56-3.71,21.56,2.17,0,6.72-9,7.84-10.5S403.44,357.18,402.11,359.63Z"/><path class="cls-1" d="M422.13,348.71c.21,3.64-3.57,9.31-6.65,9.31a1.54,1.54,0,0,1-1.54-2c.77-3.57,1.89-6.79.21-6.79-2,0-4.9,2.38-7.07,8.33-1.89,7.91-2.87,15.61-7.07,15.61-.71,0-1.06-.7-1.06-2.17-.21-4.27,1.19-10.85,3.09-21.84.34-2.17.34-4.55,3.29-4.55,3.22,0,6.09-2.73,5.11,2.38-.21.91-.35,1.75-.56,2.52,1.89-2.45,4.41-5.81,7.77-5.81C420.1,343.74,421.92,345.56,422.13,348.71Z"/><path class="cls-1" d="M449.08,363.48c-5.46,9.17-13.65,11.2-19.88,8.89-7.22-2.59-8.76-8.47-6.52-15.75,2.45-8.05,7.29-11.83,12.82-12.95,4.69-.91,9.24,1.61,9,6.09-.35,4.83-6.16,10.57-11.48,10.57a6.46,6.46,0,0,1-4.76-1.33,7,7,0,0,0,2.72,7.63c3.23,2.66,10.72,2.31,16.11-5.88,1.68-2.73,2.52-5,3.71-5S452.16,358.37,449.08,363.48Zm-17.57-10.71c-.84,1.33-.63,2.31.49,2.66,1.89.49,4.34-1.12,5.95-3.43,1.19-1.33,1.33-3.78-.07-3.92C435.57,348.64,433.68,349.76,431.51,352.77Z"/><path class="cls-1" d="M467.21,365.58c-1,4-4.41,8.12-12.33,8.12-5,0-9.17-2.87-9.94-7-.56-3,.63-5,2.52-5.88.28-.07.42-.14.49-.14a2.61,2.61,0,0,1,.14-.84c2-4.76,6-16.38,11.07-15.82,2.87.35,2.59,2,3.36,5.46C463.29,353.26,468.54,360.05,467.21,365.58Zm-10-13.51c-.21-.56-.35-1.26-1-1.26-1.34,0-2.94,4.2-5.18,9a2.24,2.24,0,0,1-.57.77c1.41.28,1.69,1.05,1.69,1.54,0,1.05-1.19,2.31-1.19,3.43,0,2.17,1.12,3.78,4.2,3.29a6.08,6.08,0,0,0,4.62-4.27C461.26,360.26,457.76,353.54,457.2,352.07Z"/><g id="KcYkpS"><path class="cls-1" d="M600.92,44.33c-1.13-4.31-3.83-7.8-6.31-11.37-5.08-7.32-11.71-13.22-18.17-19.22a78.26,78.26,0,0,0-12-9.31C557.48.15,550.19,0,543.28,4.78a65.64,65.64,0,0,0-8.21,6.66c-7.61,7.3-15.22,14.6-22.55,22.16A145.86,145.86,0,0,0,493.84,58c-9.66,15.45-18.18,31.39-22.19,49.4-1.19,5.37-2.9,10.62-4.35,15.94a5.78,5.78,0,0,0-.15,1.76c.07,1.14.51,2.35.25,3.38a12.31,12.31,0,0,1-1.88,3.28c-.1.15-.56,0-.74.18a6.93,6.93,0,0,0-1.34,1.25c-.31.39-.38,1-.71,1.35-1.17,1.25-2.42,2.42-3.61,3.65a2.4,2.4,0,0,0-.7,1.06,8.84,8.84,0,0,1-3,5.33,18.45,18.45,0,0,0-1.92,2.2c-.49-.24-1-.48-1.48-.75-1.36,1.21-2.73,2.32-4,3.56-3.85,3.85-7.63,7.8-11.5,11.64q-8.19,8.13-16.42,16.24l-7,7q5.11.27,10.23.59l7-6.92,3.31-3.27Q444.33,164.26,455,153.6c.92-.91,2.41-1.57,1.67-3.37-.08-.22.39-.8.72-1a37.41,37.41,0,0,1,5.85-3.6c8-3.25,16-6.3,24-9.4,2.56-1,5.21-1.77,7.74-2.86,7.08-3,14.05-6.35,21.17-9.31,31.78-13.23,58.3-33.48,80.25-59.87A21.14,21.14,0,0,0,600.92,44.33ZM585.76,33.71c.81,2.26.81,2.26,2.34,2.45-2.05,1-4,2.08-6.16,2.85a2.81,2.81,0,0,1-3.84-1.79ZM577,41.41c-1.47.83-2.32.3-2.77-1.81Zm-7.57-29.26c2.63,1.73,2.65,1.74,1.26,4.52s-2.9,5.69-4.31,8.42l-2.13-.42-.18.37c.3.34.73.64.86,1s.28,1.2,0,1.51c-1.07,1.35-2.28,2.59-3.42,3.88a4.43,4.43,0,0,0-.43.69c-1.7-1-1.84-1.29-1.21-2.31.64.47,1.1,1.79,2.5.13-.41-.63-.87-1.31-1.33-2l-.74.66c.41-.83.83-1.66,1.36-2.72l2,1.82.86-1.23-2.14-1.79c2.22-4.17,4.48-8.43,6.71-12.61C569.35,12.14,569.41,12.12,569.45,12.15ZM558.4,34.63l-.42,0,.51-2.91.54-.11c.38.42.75.85,1.28,1.45Zm1,20.74c.07,1.29-2,2.61-4.3,2.42ZM562.57,7l3.29,2.21c-1.16,2.26-2.28,4.45-3.41,6.63-2.64,5.09-5.42,10.12-7.88,15.3-1.56,3.28-4.25,5.46-6.71,7.86-1.17,1.15-1.37,2-.16,3.13a1.71,1.71,0,0,1,.14,1.64A52.79,52.79,0,0,1,544,49.07c-1.9,2.21-4,4.28-6,6.41l-.55-.48C545.81,39.05,554.16,23.1,562.57,7ZM549.07,42c-1.11-.78-1.7-1.33-.52-2.35a26.35,26.35,0,0,0,2.17-2.42c.18.16.36.32.55.47l-2.17,2.76-.37-.17C548.83,40.73,548.93,41.22,549.07,42ZM546.56,7c.15-.29.32-.67.58-.77,1.46-.53,3-1,4.43-1.48l.21.52q-4.6,8.88-9.23,17.76c-9.16,17.63-18.37,35.23-27.46,52.9-1.91,3.72-5.13,6.15-7.89,9a4.2,4.2,0,0,1-1.89,1.2c1.35-2.55,2.72-5.09,4.05-7.65Q519.67,58.7,530,38.86q6.25-12,12.55-24.08Q544.53,10.9,546.56,7Zm-51.15,89.3q-3.57,3.76-7.18,7.51l-.48-.4c1.58-3.12,3.13-6.26,4.74-9.36C505.23,69.51,518,45,530.67,20.41c2-3.9,5.49-6.06,8.36-9l.42.36c-.94,1.86-1.86,3.72-2.82,5.57Q525.7,38.29,514.75,59.19q-9.48,18.19-18.91,36.42A2.92,2.92,0,0,1,495.41,96.31Zm78.71-21.63c.12,1-.3,1.33-1.22,1.54a7.26,7.26,0,0,0-2,1c-1.79,1.11-3.5,2.4-5.37,3.33-7,3.51-14.14,6.92-21.21,10.35L525.59,100c-.5.32-1,.64-1.49,1a20.3,20.3,0,0,0-2.78,1c-5.5,2.78-11,5.65-16.49,8.36-.68.34-1.74-.1-3.21-.24,1.73-1.6,2.94-3.31,4.58-4.14,10.13-5.14,20.36-10.1,30.57-15.09,6-3,12.1-5.85,18.14-8.79,6.44-3.14,12.87-6.3,19.45-9.52A9.59,9.59,0,0,0,574.12,74.68Zm21.46-17.32q-27.51,13.5-55,27-12.41,6.08-24.86,12.08l-.28-.29c3.91-3.22,6.86-7.41,11.7-9.72,23.54-11.27,47-22.74,70.46-34.14a2.31,2.31,0,0,1,.47-.11A4.36,4.36,0,0,1,595.58,57.36ZM304.32,291.85q-3.39,3.38-6.75,6.77,5.44-.06,10.87-.08l6.83-6.74C311.62,291.8,308,291.81,304.32,291.85Z"/><path class="cls-1" d="M302.25,291.86l-6.8,6.78-1.6,0,6.78-6.79Z"/><path class="cls-1" d="M450,144.6l-32.84,32.72-7,7-1.67-.1,7.08-7,5.79-5.72q11-10.92,21.88-21.89c1.68-1.68,3.36-3.36,5.08-5a5.14,5.14,0,0,1,1.26-.71Z"/><path class="cls-1" d="M457.71,133.65l7-16.5C462.78,122.73,462.81,129.15,457.71,133.65Z"/><path class="cls-1" d="M524.1,101c-1.1-.42-.5-.95,0-1.2A28.27,28.27,0,0,1,528.65,98l-3.06,2C525.09,100.34,524.59,100.66,524.1,101Z"/><path class="cls-1" d="M560,14.07l3-5.63.39.2q-1.44,2.87-2.89,5.73Z"/></g><g id="KcYkpS-2" data-name="KcYkpS"><path class="cls-1" d="M328.83,291.83q-5.47,0-10.95,0,3.42,3.36,6.84,6.75l10.88.09Q332.23,295.23,328.83,291.83ZM213.19,177.61q-8.28-8.18-16.54-16.36c-3.88-3.84-7.65-7.79-11.51-11.64-1.24-1.24-2.62-2.35-4-3.56l-1.48.75a18.53,18.53,0,0,0-1.93-2.2,8.87,8.87,0,0,1-3-5.33,2.4,2.4,0,0,0-.7-1.06c-1.19-1.23-2.44-2.4-3.61-3.65-.33-.36-.4-1-.71-1.35a6.93,6.93,0,0,0-1.34-1.25c-.18-.15-.64,0-.74-.18a12,12,0,0,1-1.88-3.28c-.26-1,.18-2.24.25-3.38a5.78,5.78,0,0,0-.15-1.76c-1.45-5.32-3.16-10.57-4.36-15.94-4-18-12.52-33.95-22.18-49.4A145.86,145.86,0,0,0,120.64,33.6C113.31,26,105.7,18.74,98.09,11.44a65.64,65.64,0,0,0-8.21-6.66C83,0,75.68.15,68.72,4.43a78.18,78.18,0,0,0-12,9.31c-6.46,6-13.09,11.9-18.17,19.22-2.48,3.57-5.18,7.06-6.31,11.37a21.14,21.14,0,0,0,4.5,19.84C58.69,90.56,85.22,110.81,117,124c7.12,3,14.09,6.26,21.17,9.31,2.52,1.09,5.18,1.87,7.74,2.86,8,3.1,16.06,6.15,24,9.4a37.32,37.32,0,0,1,5.84,3.6c.34.22.81.8.72,1-.73,1.8.76,2.46,1.68,3.37q10.68,10.65,21.39,21.26l3.44,3.4,7,6.92c3.4-.22,6.81-.42,10.21-.61ZM81.59,4.76c1.48.49,3,1,4.43,1.48.25.1.43.48.58.77q2,3.89,4.06,7.77l12.55,24.08q10.31,19.83,20.58,39.67c1.33,2.56,2.71,5.1,4.06,7.65A4.14,4.14,0,0,1,126,85c-2.77-2.89-6-5.32-7.9-9C109,58.27,99.77,40.67,90.61,23L81.37,5.28C81.44,5.11,81.52,4.94,81.59,4.76ZM70.58,7,95.7,55l-.55.48c-2-2.13-4.06-4.2-6-6.41a52.79,52.79,0,0,1-3.88-5.29,1.71,1.71,0,0,1,.14-1.64c1.2-1.18,1-2-.16-3.13-2.46-2.4-5.15-4.58-6.71-7.86-2.46-5.18-5.24-10.21-7.88-15.3-1.13-2.18-2.25-4.37-3.41-6.63Zm13.48,33.4-2.17-2.76.55-.47a26.35,26.35,0,0,0,2.17,2.42c1.18,1,.59,1.57-.52,2.35.14-.73.24-1.22.33-1.71Zm-6,17.38c-2.25.19-4.38-1.13-4.3-2.42ZM72.85,33c.52-.6.9-1,1.28-1.45l.54.11c.17,1,.34,1.94.5,2.91l-.41,0ZM63.71,12.15s.1,0,.34,0c2.23,4.18,4.49,8.44,6.71,12.61l-2.14,1.79.86,1.23,2-1.82c.53,1.06.94,1.89,1.36,2.72L72.06,28c-.46.68-.92,1.36-1.33,2,1.39,1.66,1.86.34,2.5-.13.63,1,.49,1.28-1.21,2.31a4.43,4.43,0,0,0-.43-.69c-1.14-1.29-2.35-2.53-3.42-3.88-.24-.31-.12-1,0-1.51s.56-.7.86-1l-.18-.37-2.13.42c-1.41-2.73-2.89-5.56-4.31-8.42S61.08,13.88,63.71,12.15ZM58.9,39.6c-.44,2.11-1.29,2.64-2.77,1.81ZM47.4,33.71l7.66,3.51A2.81,2.81,0,0,1,51.22,39c-2.12-.77-4.11-1.88-6.16-2.85C46.59,36,46.59,36,47.4,33.71ZM37.58,57.36a4.36,4.36,0,0,1-2.48-5.19,2.31,2.31,0,0,1,.47.11C59.05,63.68,82.49,75.15,106,86.42c4.83,2.31,7.79,6.5,11.7,9.72l-.29.29Q105,90.4,92.58,84.35,65.07,70.88,37.58,57.36Zm90.75,53c-5.53-2.71-11-5.58-16.49-8.36a20.3,20.3,0,0,0-2.78-1l-1.5-1,0,0q-9.34-4.53-18.7-9.07c-7.08-3.43-14.17-6.84-21.21-10.35-1.88-.93-3.58-2.22-5.38-3.33a7.07,7.07,0,0,0-2-1c-.93-.21-1.35-.52-1.22-1.54a10.22,10.22,0,0,0-.24-2.14c6.58,3.22,13,6.38,19.45,9.52,6,2.94,12.11,5.83,18.14,8.79,10.21,5,20.43,10,30.57,15.09,1.64.83,2.85,2.54,4.58,4.14C130.07,110.22,129,110.66,128.33,110.32Zm16.59-6.5c-2.39-2.5-4.79-5-7.17-7.51a2.92,2.92,0,0,1-.43-.7Q127.85,77.4,118.4,59.19,107.49,38.27,96.53,17.38c-1-1.85-1.88-3.71-2.82-5.57l.42-.36c2.87,2.9,6.35,5.06,8.35,9,12.64,24.59,25.45,49.1,38.18,73.65,1.61,3.1,3.17,6.24,4.75,9.36Z"/><path class="cls-1" d="M224.75,184.32c-.56,0-1.11.05-1.67.09l-7-7-33-32.84.42-.68a5.33,5.33,0,0,1,1.26.71c1.71,1.63,3.4,3.31,5.07,5,7.3,7.29,14.57,14.61,21.89,21.89q2.94,2.93,5.9,5.83Z"/><path class="cls-1" d="M339.31,298.68l-1.59,0-6.83-6.8h1.62Z"/><path class="cls-1" d="M175.45,133.65l-7-16.5C170.38,122.73,170.35,129.15,175.45,133.65Z"/><path class="cls-1" d="M81.89,37.65l2.17,2.76.36-.17L84.09,42c1.11-.78,1.7-1.33.52-2.35a26.35,26.35,0,0,1-2.17-2.42Z"/><path class="cls-1" d="M109.06,101c1.1-.42.5-.95,0-1.2A28.27,28.27,0,0,0,104.51,98l3,2Z"/><path class="cls-1" d="M75.17,34.61l-.5-2.91-.54-.11c-.38.42-.76.85-1.28,1.45l1.91,1.59Z"/><path class="cls-1" d="M73.17,14.07l-3-5.63-.4.2,2.9,5.73Z"/></g><g id="QwHvG1"><path class="cls-1" d="M323.66,0h.53a5.06,5.06,0,0,0,1.28.34,26.8,26.8,0,0,1,17,6.1c4.11,3.35,7.73,7.31,11.79,10.73,7.47,6.27,14.89,12.67,22.82,18.31,2.45,1.74,6.53,1.15,9.83,1.75a10.27,10.27,0,0,1,3,1.27c.46.25.64,1.1,1.08,1.25,3.74,1.25,5.47,4.45,7,7.6,2.83,5.92,5.3,12,9.52,17.16,1.89,2.31,3.08,5.19,4.59,7.81v1.07a65.27,65.27,0,0,1-1.52,7.28c-3.44,10.67-4.4,21.79-5.9,32.79-1.15,8.48-2.36,16.91-5.87,24.81-3.25,7.34-8.28,13-15.68,16.32,3.39,4.79,2.57,8.85-2.87,11.15A45,45,0,0,1,369,168.48c-6.06.86-12.18,1.23-18.27,1.9-3.71.4-7.4,1.3-11.11,1.4-9.89.27-19.8.09-29.7.33A58.33,58.33,0,0,1,284.73,167c-9.94-4.36-17.15-11.57-22.25-21.06a2.46,2.46,0,0,0-1.52-1.15c-6.23-1-12.48-1.89-18.71-2.86-3.46-.53-6-2.07-6.41-6-.86-7.69-1.82-15.37-2.72-23-.39-3.34-.71-6.68-1.07-10V97.5a16.93,16.93,0,0,0,.5-1.72C234,87.93,235,80,236.89,72.25c1.76-7,5.35-13.15,11.81-17.11a8.26,8.26,0,0,0,2.45-1.9c3.54-4.88,7.07-9.77,10.4-14.8,1.18-1.78,2.91-3.9.08-6-.41-.3-.54-1.1-.64-1.69-.54-3.31,2.29-7.25,5.9-8.07a37.5,37.5,0,0,1,5.28-.75c6.2-.48,12.15-1.79,17.51-5.08,4.55-2.78,9.15-5.5,13.5-8.56A45.77,45.77,0,0,1,323.66,0ZM304.84,156.81l10.77-.13,7.68-2.51.23.77-1,1.22c3.29-.44,5.95-1.13,8.59-1,2,.08,3.69.43,4.71-1.87.51-1.16,1.84-2,2.11-3.21A20.79,20.79,0,0,0,338,145a2.32,2.32,0,0,0-2.66-2.6c-2.67.06-5.35.13-8,.09q-11.23-.16-22.46-.45c-2.26-.06-3.29.76-3.18,3.12.14,3,.06,6.06.11,9.1a14.24,14.24,0,0,0,.46,2.13c1-2.26-.32-4.53,1.2-6ZM368.31,45.13c2-2.36,4.09-4.68,6-7.12a2.09,2.09,0,0,0,0-2c-2.15-2.1-4.44-4-6.91-6.25l-5.64,6.05c-4.78-1.3-8.56-5-13.83-4.42a7,7,0,0,0,3.3,2.78c5.66,1.8,6.84,5.27,3.35,9.9-.51.68-.83,2.4-.48,2.67,2.79,2.17,4.57,5.88,8.8,5.93a1.85,1.85,0,0,1,1.31.78,44.85,44.85,0,0,1,3.26,5.91c1.77,4.36,3.55,8.75,4.91,13.25a53.38,53.38,0,0,1,2.43,20.87c-1.28,12.18-5.68,23.11-14.23,32.17a53.39,53.39,0,0,0-3.74,5.06c.24,0-.51-.27-.75,0a51.6,51.6,0,0,0-3.87,4.22,1.21,1.21,0,0,0,.21,1.17,2.32,2.32,0,0,0,1.7.34c2.09-.82,4.13-1.78,5.91-2.57L373,143.65l6.71-7.31L370.76,128c1.12-.12,2.76.19,3.25-.42a71.69,71.69,0,0,0,6.42-9.09,46.56,46.56,0,0,0,6-18.95,82.37,82.37,0,0,0-3.83-33.2C380.24,58.93,378,51.56,372,46.05,370.8,45,369.88,44.07,368.31,45.13Zm-47.68,91.48a46.57,46.57,0,0,0,47-45.48c.75-28.43-20.2-49.35-47.74-49.37-27,0-45.94,19.92-46.89,45.44C271.93,115.15,293,136.68,320.63,136.61Zm62.95-93.1c1.16,1.8,2.21,3.34,3.18,4.93a78.8,78.8,0,0,1,.79,80.22c-3.83,6.78-9.45,12-14.42,17.81a11.37,11.37,0,0,0-1.2,2.36c.83.25,1.66.46,2.47.75,1.13.39,2.88.54,3.24,1.32,1.22,2.64,3.12,2,4.93,1.36a23.47,23.47,0,0,0,10.93-9c4.71-6.81,6.49-14.71,7.8-22.67,1.44-8.7,2.22-17.51,3.73-26.19,1-5.58,2.71-11,4.17-16.51.8-3,1.9-6.35-.57-8.87-5.41-5.53-8.89-12.15-11.92-19.12-1.47-3.4-3.67-6.34-7.35-7.68C387.31,41.5,385.28,41.41,383.58,43.51ZM260.4,42.88c1,.82,1.88,1.54,2.75,2.29,2.94,2.49,2.76,2.4,1.07,5.66-2.42,4.65-4.81,9.34-6.76,14.19a63,63,0,0,0-3.61,34.41c1.73,10.45,4.93,20.25,11.78,28.54a13.81,13.81,0,0,0,3.23,2.71,37.11,37.11,0,0,0,4.12,1.9c0-.33.32-1.35.06-1.53-3-2-3.74-5.31-5.15-8.23a117.47,117.47,0,0,1-5.19-11.37,64,64,0,0,1-2.3-35.53A56.83,56.83,0,0,1,271,52.39c.73.86,1.42,1.55,2,2.34,1.9,2.68,3.3,2.77,5.62.24,1.27-1.38,2.44-2.85,3.75-4.18s1-2.55-.39-3.76a44.43,44.43,0,0,1-3.08-3.31c1.81-2.22,3.2-4,4.74-5.75a3.64,3.64,0,0,1,2.14-1.34c3.25-.16,4.47-2.31,5.53-5.16a7.15,7.15,0,0,0-1.94.25c-4.27,2-8.59,3.89-12.73,6.13-2.28,1.23-4.16,1.93-6.09-.36a3.67,3.67,0,0,0-1.64-1.32c-.83-.2-2.12-.31-2.61.17C264.31,38.26,262.57,40.41,260.4,42.88Zm4.88,100.83-.68.36c.13.82,0,1.81.42,2.42,2.45,3.48,4.57,7.36,7.63,10.2,8.92,8.29,19.81,12.44,31.89,13.3a142.75,142.75,0,0,0,15.2.31c10.59-.37,21.27-.33,31.73-1.8,7.21-1,14.38-2,21.64-2.61,2.79-.23,5.6-1.69,8.13-3.09,2.34-1.29,2.37-3.52.32-5.23a13.44,13.44,0,0,0-3.93-2.12c-3.51-1.29-7.07-2.42-11.06-3.77-14.93,11.32-32.44,16.09-51.81,15C295.19,165.61,279,157.39,265.28,143.71ZM247.33,60.65l-.64-.29c-2.77,3.39-5.56,6.84-6.63,11.23-1.37,5.6-2.61,11.25-3.53,16.94a52.28,52.28,0,0,0-.9,12.2c.88,11.45,2.31,22.86,3.32,34.3.27,3.07,1.83,4.55,4.5,5.09,4.89,1,9.8,1.82,14.71,2.64,2.19.37,3-.45,2.09-2.41a94.86,94.86,0,0,0-4.9-8.35c-12.57-20.58-16.28-42.46-9.65-65.85C246.23,64.31,246.79,62.48,247.33,60.65Zm26.11-2-1-.6a11.37,11.37,0,0,0-2.19,2.38c-1.61,3.28-3.17,6.58-4.49,10-4.92,12.65-4.83,25.41-.49,38.19a54.84,54.84,0,0,0,9.36,16.69c.89,1.12,3.13,1.57,2,3.74a29.33,29.33,0,0,1-2.34,4.08,33.47,33.47,0,0,1-3.51,4c-1.68,1.68-3.69,3.71-2.54,5.93s3.66,3.95,5.62,5.84c.08.07.78-.37,1.06-.68,3.87-4.17,7.71-8.37,11.56-12.55,1.25-1.36,1-2.5-.37-3.64-2.08-1.77-4.44-3.35-6.05-5.49-3-4-6-8-8.12-12.45-7.66-16.26-8.35-32.78-.79-49.37C272.07,62.76,272.69,60.67,273.44,58.65Zm76.34-42.12c-7.16-7.84-14.87-14.75-26.56-14.07-7.13.41-21,7.22-23,11.1C317,10.28,333.48,10.15,349.78,16.53ZM279.1,22.35A33.08,33.08,0,0,0,266,25.67a3.08,3.08,0,0,0-1.54,1.74c-.12.53.69,1.82.92,1.78,2.16-.37,4.47-.57,6.37-1.56C274.21,26.35,276.31,24.41,279.1,22.35Z"/><path class="cls-1" d="M279.1,22.35c-2.79,2.06-4.89,4-7.34,5.28-1.9,1-4.21,1.19-6.37,1.56-.23,0-1-1.25-.92-1.78A3.08,3.08,0,0,1,266,25.67,33.08,33.08,0,0,1,279.1,22.35Z"/><path class="cls-1" d="M304.84,156.81a6.47,6.47,0,0,1,.13-1.06c3.8-.05,7.61,0,11.42,0l.08.65-.84.31Z"/><path class="cls-1" d="M368.14,45.22c-2.09,3.38-.07,6.14,1.8,8.44a54.55,54.55,0,0,1,11.51,27.45c1,7.48,1.46,15.22-1.37,22.66-1,2.64-1,5.67-2.06,8.27-1.92,4.64-4.33,9.08-6.49,13.63a14.18,14.18,0,0,0-.7,2.41c-3.49-2.89-3.1-2.63-.58-6.44a45.86,45.86,0,0,0,5.88-12.16,87.19,87.19,0,0,0,3-16.63,48.53,48.53,0,0,0-2.06-19.73,60.22,60.22,0,0,0-9-17.7,35.69,35.69,0,0,0-4-3.85C365.47,49.38,366.8,47.3,368.14,45.22Z"/><path class="cls-1" d="M333.57,144.66l.66.48a1.74,1.74,0,0,1-.49.42c-.11,0-.42-.14-.42-.23S333.45,145,333.57,144.66Z"/></g><path class="cls-1" d="M417.38,449.72l1.26-.05V426l-1.26.08Z"/></g></g></svg>